courier-code_italic.sfdir
StartChar: exclam
Encoding: 33 33 4
Width: 602
Flags: W
LayerCount: 2
Back
Fore
SplineSet
183 64 m 128,-1,1
 183 99 183 99 207 121 c 128,-1,2
 231 143 231 143 270 143 c 128,-1,3
 309 143 309 143 333.5 121 c 128,-1,4
 358 99 358 99 358 64 c 128,-1,5
 358 29 358 29 333.5 7 c 128,-1,6
 309 -15 309 -15 270 -15 c 128,-1,7
 231 -15 231 -15 207 7 c 128,-1,0
 183 29 183 29 183 64 c 128,-1,1
262 228 m 2,8,-1
 311 535 l 2,9,10
 316 569 316 569 328 584.5 c 128,-1,11
 340 600 340 600 373 600 c 0,12,13
 390 600 390 600 404 589 c 128,-1,14
 418 578 418 578 418 567 c 0,15,16
 418 563 418 563 411 535 c 2,17,-1
 333 231 l 2,18,19
 327 210 327 210 318 201 c 128,-1,20
 309 192 309 192 290 192 c 0,21,22
 261 192 261 192 261 217 c 0,23,24
 261 224 261 224 262 228 c 2,8,-1
EndSplineSet
EndChar
StartChar: numbersign
Encoding: 35 35 6
Width: 602
Flags: W
LayerCount: 2
Back
Fore
SplineSet
247 -27 m 2,0,1
 245 -58 245 -58 215 -58 c 0,2,3
 187 -58 187 -58 187 -27 c 2,4,5
 187 -27 187 -27 187 -24 c 2,6,-1
 198 184 l 1,7,-1
 137 184 l 2,8,9
 105 184 105 184 105 217 c 128,-1,10
 105 250 105 250 137 250 c 2,11,-1
 202 250 l 1,12,-1
 207 366 l 1,13,-1
 137 366 l 2,14,15
 105 366 105 366 105 399 c 0,16,17
 105 431 105 431 137 431 c 2,18,-1
 210 431 l 1,19,-1
 222 643 l 2,20,21
 224 673 224 673 252 673 c 0,22,23
 282 673 282 673 282 642 c 2,24,-1
 282 640 l 1,25,-1
 272 431 l 1,26,-1
 343 431 l 1,27,-1
 355 643 l 2,28,29
 356 673 356 673 385 673 c 0,30,31
 416 673 416 673 416 642 c 2,32,-1
 416 640 l 1,33,-1
 404 431 l 1,34,-1
 464 431 l 2,35,36
 496 431 496 431 496 399 c 0,37,38
 496 366 496 366 464 366 c 2,39,-1
 402 366 l 1,40,-1
 396 250 l 1,41,-1
 464 250 l 2,42,43
 496 250 496 250 496 217 c 128,-1,44
 496 184 496 184 464 184 c 2,45,-1
 392 184 l 1,46,-1
 381 -27 l 2,47,48
 379 -58 379 -58 349 -58 c 0,49,50
 336 -58 336 -58 328 -49.5 c 128,-1,51
 320 -41 320 -41 320 -26 c 2,52,-1
 320 -24 l 1,53,-1
 330 184 l 1,54,-1
 259 184 l 1,55,-1
 247 -27 l 2,0,1
262 250 m 1,56,-1
 334 250 l 1,57,-1
 341 366 l 1,58,-1
 268 366 l 1,59,-1
 262 250 l 1,56,-1
EndSplineSet
EndChar
StartChar: dollar
Encoding: 36 36 7
Width: 602
Flags: W
LayerCount: 2
Back
Fore
SplineSet
197 35 m 1,0,1
 156 43 156 43 129 68 c 1,2,3
 113 46 113 46 92 46 c 0,4,5
 77 46 77 46 67 56 c 128,-1,6
 57 66 57 66 57 82 c 0,7,8
 57 86 57 86 59 96 c 2,9,-1
 74 164 l 2,10,11
 78 181 78 181 90.5 192.5 c 128,-1,12
 103 204 103 204 118 204 c 128,-1,13
 133 204 133 204 142.5 195 c 128,-1,14
 152 186 152 186 152 171 c 2,15,-1
 152 162 l 2,16,17
 152 139 152 139 189.5 120 c 128,-1,18
 227 101 227 101 272 101 c 0,19,20
 319 101 319 101 350.5 130.5 c 128,-1,21
 382 160 382 160 382 203 c 0,22,23
 382 240 382 240 335 259 c 2,24,-1
 230 299 l 2,25,26
 142 333 142 333 142 414 c 0,27,28
 142 490 142 490 193.5 537.5 c 128,-1,29
 245 585 245 585 336 587 c 1,30,-1
 349 628 l 2,31,32
 360 664 360 664 390 664 c 128,-1,33
 420 664 420 664 420 643 c 0,34,35
 420 634 420 634 416 623 c 2,36,-1
 404 585 l 1,37,38
 436 577 436 577 467 558 c 1,39,40
 480 578 480 578 500 578 c 0,41,42
 510 578 510 578 517 571 c 128,-1,43
 524 564 524 564 524 553 c 2,44,-1
 524 548 l 1,45,-1
 509 473 l 2,46,47
 506 459 506 459 495.5 449 c 128,-1,48
 485 439 485 439 472 439 c 0,49,50
 455 439 455 439 447.5 446 c 128,-1,51
 440 453 440 453 437.5 469 c 128,-1,52
 435 485 435 485 434 486 c 0,53,54
 428 502 428 502 404 513 c 128,-1,55
 380 524 380 524 347 524 c 0,56,57
 294 524 294 524 258 497.5 c 128,-1,58
 222 471 222 471 222 434 c 0,59,60
 222 387 222 387 280 366 c 2,61,-1
 378 332 l 2,62,63
 471 300 471 300 471 210 c 0,64,65
 471 141 471 141 413.5 88.5 c 128,-1,66
 356 36 356 36 264 31 c 1,67,-1
 236 -80 l 2,68,69
 225 -122 225 -122 192 -122 c 0,70,71
 164 -122 164 -122 164 -100 c 0,72,73
 164 -89 164 -89 166 -83 c 2,74,-1
 197 35 l 1,0,1
EndSplineSet
EndChar
StartChar: percent
Encoding: 37 37 8
Width: 602
Flags: W
LayerCount: 2
Back
Fore
SplineSet
101 485 m 128,-1,1
 101 542 101 542 141.5 579.5 c 128,-1,2
 182 617 182 617 244 617 c 128,-1,3
 306 617 306 617 346 579.5 c 128,-1,4
 386 542 386 542 386 485 c 128,-1,5
 386 428 386 428 346 390.5 c 128,-1,6
 306 353 306 353 244 353 c 0,7,8
 181 353 181 353 141 390.5 c 128,-1,0
 101 428 101 428 101 485 c 128,-1,1
215 131 m 0,9,10
 215 187 215 187 255.5 224.5 c 128,-1,11
 296 262 296 262 358 262 c 0,12,13
 421 262 421 262 460.5 225 c 128,-1,14
 500 188 500 188 500 131 c 128,-1,15
 500 74 500 74 460 36.5 c 128,-1,16
 420 -1 420 -1 358 -1 c 0,17,18
 295 -1 295 -1 255 36.5 c 128,-1,19
 215 74 215 74 215 131 c 0,9,10
454 399 m 2,20,21
 462 402 462 402 468 402 c 0,22,23
 494 402 494 402 494 375 c 0,24,25
 494 356 494 356 475 348 c 2,26,-1
 147 218 l 2,27,28
 140 215 140 215 134 215 c 0,29,30
 122 215 122 215 114 223 c 128,-1,31
 106 231 106 231 106 242 c 0,32,33
 106 260 106 260 127 269 c 2,34,-1
 454 399 l 2,20,21
162 485 m 128,-1,36
 162 452 162 452 184.5 431.5 c 128,-1,37
 207 411 207 411 244 411 c 128,-1,38
 281 411 281 411 303.5 431.5 c 128,-1,39
 326 452 326 452 326 485 c 128,-1,40
 326 518 326 518 303.5 538.5 c 128,-1,41
 281 559 281 559 244 559 c 128,-1,42
 207 559 207 559 184.5 538.5 c 128,-1,35
 162 518 162 518 162 485 c 128,-1,36
275 131 m 128,-1,44
 275 98 275 98 298 77 c 128,-1,45
 321 56 321 56 358 56 c 128,-1,46
 395 56 395 56 417.5 77 c 128,-1,47
 440 98 440 98 440 131 c 128,-1,48
 440 164 440 164 417.5 184.5 c 128,-1,49
 395 205 395 205 358 205 c 128,-1,50
 321 205 321 205 298 184.5 c 128,-1,43
 275 164 275 164 275 131 c 128,-1,44
EndSplineSet
EndChar
StartChar: ampersand
Encoding: 38 38 9
Width: 602
Flags: W
LayerCount: 2
Back
Fore
SplineSet
338 51 m 1,0,1
 268 -9 268 -9 195 -9 c 0,2,3
 139 -9 139 -9 103 28.5 c 128,-1,4
 67 66 67 66 67 127 c 0,5,6
 67 237 67 237 206 315 c 1,7,8
 180 370 180 370 180 414 c 0,9,10
 180 474 180 474 219.5 512.5 c 128,-1,11
 259 551 259 551 322 551 c 0,12,13
 371 551 371 551 412 522 c 0,14,15
 415 522 415 522 417.5 522 c 128,-1,16
 420 522 420 522 422 522 c 2,17,-1
 423 523 l 1,18,19
 450 523 450 523 450 500 c 0,20,21
 450 491 450 491 444 483 c 2,22,-1
 425 459 l 2,23,24
 420 452 420 452 409 452 c 0,25,26
 399 452 399 452 370.5 470.5 c 128,-1,27
 342 489 342 489 321 489 c 0,28,29
 289 489 289 489 270.5 470 c 128,-1,30
 252 451 252 451 252 419 c 0,31,32
 252 388 252 388 273 347 c 2,33,-1
 361 172 l 1,34,35
 379 199 379 199 391.5 232 c 128,-1,36
 404 265 404 265 412 280 c 128,-1,37
 420 295 420 295 434 295 c 2,38,-1
 469 295 l 2,39,40
 491 295 491 295 491 271 c 0,41,42
 491 250 491 250 481 235.5 c 128,-1,43
 471 221 471 221 454 220 c 1,44,45
 432 162 432 162 393 110 c 1,46,-1
 411 73 l 1,47,-1
 416 73 l 2,48,49
 443 73 443 73 443 53 c 0,50,51
 443 0 443 0 395 0 c 0,52,53
 365 0 365 0 356 17 c 2,54,-1
 338 51 l 1,0,1
309 109 m 1,55,-1
 234 257 l 1,56,57
 149 206 149 206 149 138 c 0,58,59
 149 106 149 106 167.5 85.5 c 128,-1,60
 186 65 186 65 218 65 c 0,61,62
 261 65 261 65 309 109 c 1,55,-1
EndSplineSet
EndChar
StartChar: quotesingle
Encoding: 39 39 106
Width: 602
Flags: W
LayerCount: 2
Back
Fore
SplineSet
285 331 m 2,0,1
 271 331 271 331 266 337.5 c 128,-1,2
 261 344 261 344 259 362 c 2,3,-1
 244 548 l 1,4,-1
 244 554 l 2,5,6
 244 579 244 579 267 579 c 2,7,-1
 334 579 l 2,8,9
 357 579 357 579 357 554 c 2,10,11
 357 554 357 554 357 548 c 2,12,-1
 341 362 l 2,13,14
 339 344 339 344 334.5 337.5 c 128,-1,15
 330 331 330 331 316 331 c 2,16,-1
 285 331 l 2,0,1
EndSplineSet
EndChar
StartChar: parenleft
Encoding: 40 40 11
Width: 602
Flags: W
LayerCount: 2
Back
Fore
SplineSet
208 93 m 0,0,1
 208 165 208 165 230 246.5 c 128,-1,2
 252 328 252 328 291 394 c 0,3,4
 347 488 347 488 399.5 542.5 c 128,-1,5
 452 597 452 597 478 597 c 0,6,7
 498 597 498 597 498 577 c 0,8,9
 498 568 498 568 486.5 552 c 128,-1,10
 475 536 475 536 452 504 c 128,-1,11
 429 472 429 472 410 440 c 0,12,13
 300 254 300 254 300 72 c 0,14,15
 300 -2 300 -2 320 -82.5 c 128,-1,16
 340 -163 340 -163 340 -166 c 0,17,18
 340 -178 340 -178 332.5 -186 c 128,-1,19
 325 -194 325 -194 314 -194 c 0,20,21
 281 -194 281 -194 244.5 -108.5 c 128,-1,22
 208 -23 208 -23 208 93 c 0,0,1
EndSplineSet
EndChar
StartChar: parenright
Encoding: 41 41 12
Width: 602
Flags: W
LayerCount: 2
Back
Fore
SplineSet
397 310 m 0,0,1
 397 238 397 238 375 156.5 c 128,-1,2
 353 75 353 75 314 9 c 0,3,4
 258 -86 258 -86 206 -140 c 128,-1,5
 154 -194 154 -194 128 -194 c 0,6,7
 108 -194 108 -194 108 -174 c 0,8,9
 108 -165 108 -165 119 -149 c 128,-1,10
 130 -133 130 -133 153 -101 c 128,-1,11
 176 -69 176 -69 195 -37 c 0,12,13
 305 149 305 149 305 331 c 0,14,15
 305 405 305 405 285.5 485.5 c 128,-1,16
 266 566 266 566 266 569 c 0,17,18
 266 581 266 581 273 588.5 c 128,-1,19
 280 596 280 596 291 596 c 0,20,21
 324 596 324 596 360.5 511 c 128,-1,22
 397 426 397 426 397 310 c 0,0,1
EndSplineSet
EndChar
StartChar: asterisk
Encoding: 42 42 13
Width: 602
Flags: W
LayerCount: 2
Back
Fore
SplineSet
329 419 m 1,0,-1
 458 474 l 2,1,2
 466 477 466 477 470 477 c 0,3,4
 477 477 477 477 483 460 c 2,5,-1
 495 423 l 2,6,7
 498 411 498 411 498 409 c 0,8,9
 498 400 498 400 483 397 c 2,10,-1
 346 366 l 1,11,-1
 438 260 l 2,12,13
 445 251 445 251 445 246 c 0,14,15
 445 240 445 240 433 232 c 2,16,-1
 401 209 l 2,17,18
 388 201 388 201 386 201 c 0,19,20
 378 201 378 201 373 212 c 2,21,-1
 301 333 l 1,22,-1
 228 212 l 2,23,24
 222 201 222 201 215 201 c 0,25,26
 211 201 211 201 200 209 c 2,27,-1
 169 232 l 2,28,29
 156 241 156 241 156 246 c 0,30,31
 156 253 156 253 163 260 c 2,32,-1
 255 366 l 1,33,-1
 119 397 l 2,34,35
 103 400 103 400 103 408 c 0,36,37
 103 412 103 412 106 423 c 2,38,-1
 119 460 l 2,39,40
 125 477 125 477 132 477 c 128,-1,41
 139 477 139 477 144 475 c 2,42,-1
 273 419 l 1,43,-1
 260 559 l 1,44,-1
 260 565 l 2,45,46
 260 574 260 574 264.5 576.5 c 128,-1,47
 269 579 269 579 281 579 c 2,48,-1
 320 579 l 2,49,50
 332 579 332 579 336.5 576.5 c 128,-1,51
 341 574 341 574 341 565 c 2,52,53
 341 565 341 565 341 559 c 2,54,-1
 329 419 l 1,0,-1
EndSplineSet
EndChar
StartChar: plus
Encoding: 43 43 14
Width: 602
Flags: W
LayerCount: 2
Back
Fore
SplineSet
514 343 m 2,0,1
 531 343 531 343 542 333 c 128,-1,2
 553 323 553 323 553 307 c 128,-1,3
 553 291 553 291 542 281.5 c 128,-1,4
 531 272 531 272 514 272 c 2,5,-1
 337 272 l 1,6,-1
 337 89 l 2,7,8
 337 72 337 72 327 61 c 128,-1,9
 317 50 317 50 301 50 c 0,10,11
 286 50 286 50 275 61.5 c 128,-1,12
 264 73 264 73 264 89 c 2,13,-1
 264 272 l 1,14,-1
 88 272 l 2,15,16
 71 272 71 272 60 281.5 c 128,-1,17
 49 291 49 291 49 307 c 0,18,19
 49 322 49 322 60.5 332.5 c 128,-1,20
 72 343 72 343 88 343 c 2,21,-1
 264 343 l 1,22,-1
 264 527 l 2,23,24
 264 544 264 544 274.5 555 c 128,-1,25
 285 566 285 566 301 566 c 128,-1,26
 317 566 317 566 327 555 c 128,-1,27
 337 544 337 544 337 527 c 2,28,-1
 337 343 l 1,29,-1
 514 343 l 2,0,1
EndSplineSet
EndChar
StartChar: comma
Encoding: 44 44 15
Width: 602
Flags: W
LayerCount: 2
Back
Fore
SplineSet
149 -108 m 2,0,-1
 256 126 l 2,1,2
 266 147 266 147 289 147 c 2,3,-1
 387 147 l 2,4,5
 399 147 399 147 399 134 c 0,6,7
 399 129 399 129 397 127 c 2,8,-1
 214 -145 l 2,9,10
 204 -160 204 -160 191 -160 c 0,11,12
 185 -160 185 -160 179 -157 c 2,13,-1
 149 -142 l 2,14,15
 141 -138 141 -138 141 -128 c 0,16,17
 141 -126 141 -126 149 -108 c 2,0,-1
EndSplineSet
EndChar
StartChar: hyphen
Encoding: 45 45 16
Width: 602
Flags: W
LayerCount: 2
Back
Fore
SplineSet
118 178 m 2,0,1
 107 178 107 178 100.5 183.5 c 128,-1,2
 94 189 94 189 94 196 c 2,3,-1
 94 199 l 1,4,-1
 106 249 l 2,5,6
 112 273 112 273 130 273 c 2,7,-1
 516 273 l 2,8,9
 527 273 527 273 533.5 267.5 c 128,-1,10
 540 262 540 262 540 255 c 2,11,-1
 540 252 l 1,12,-1
 528 202 l 2,13,14
 522 178 522 178 504 178 c 2,15,-1
 118 178 l 2,0,1
EndSplineSet
EndChar
StartChar: period
Encoding: 46 46 17
Width: 602
Flags: W
LayerCount: 2
Back
Fore
SplineSet
205 72 m 128,-1,1
 205 110 205 110 231.5 134.5 c 128,-1,2
 258 159 258 159 301 159 c 128,-1,3
 344 159 344 159 370.5 135 c 128,-1,4
 397 111 397 111 397 72 c 128,-1,5
 397 33 397 33 370.5 9 c 128,-1,6
 344 -15 344 -15 301 -15 c 128,-1,7
 258 -15 258 -15 231.5 9.5 c 128,-1,0
 205 34 205 34 205 72 c 128,-1,1
EndSplineSet
EndChar
StartChar: slash
Encoding: 47 47 18
Width: 602
Flags: W
LayerCount: 2
Back
Fore
SplineSet
191 -13 m 2,0,1
 181 -35 181 -35 172 -45 c 128,-1,2
 163 -55 163 -55 148 -55 c 0,3,4
 134 -55 134 -55 124 -45 c 128,-1,5
 114 -35 114 -35 114 -21 c 0,6,7
 114 -13 114 -13 119 -1 c 2,8,-1
 424 656 l 2,9,10
 435 680 435 680 444.5 689.5 c 128,-1,11
 454 699 454 699 468 699 c 128,-1,12
 482 699 482 699 492.5 689.5 c 128,-1,13
 503 680 503 680 503 666 c 0,14,15
 503 658 503 658 498 648 c 2,16,-1
 191 -13 l 2,0,1
EndSplineSet
EndChar
StartChar: zero
Encoding: 48 48 19
Width: 602
Flags: W
LayerCount: 2
Back
Fore
SplineSet
250 308.5 m 128,-1,1
 250 330 250 330 265 345 c 128,-1,2
 280 360 280 360 301 360 c 128,-1,3
 322 360 322 360 337 344.5 c 128,-1,4
 352 329 352 329 352 308 c 128,-1,5
 352 287 352 287 337 272 c 128,-1,6
 322 257 322 257 301 257 c 128,-1,7
 280 257 280 257 265 272 c 128,-1,0
 250 287 250 287 250 308.5 c 128,-1,1
62 196 m 0,8,9
 62 271 62 271 85 352.5 c 128,-1,10
 108 434 108 434 149 500 c 0,11,12
 230 633 230 633 358 633 c 0,13,14
 446 633 446 633 491.5 579 c 128,-1,15
 537 525 537 525 537 422 c 0,16,17
 537 263 537 263 449 118 c 0,18,19
 368 -15 368 -15 241 -15 c 0,20,21
 153 -15 153 -15 107.5 39 c 128,-1,22
 62 93 62 93 62 196 c 0,8,9
348 568 m 0,23,24
 265 568 265 568 199 432 c 0,25,26
 142 315 142 315 142 199 c 0,27,28
 142 132 142 132 171.5 92 c 128,-1,29
 201 52 201 52 248 52 c 0,30,31
 332 52 332 52 400 188 c 0,32,33
 456 302 456 302 456 424 c 0,34,35
 456 491 456 491 426.5 529.5 c 128,-1,36
 397 568 397 568 348 568 c 0,23,24
EndSplineSet
EndChar
StartChar: one
Encoding: 49 49 20
Width: 602
Flags: W
LayerCount: 2
Back
Fore
SplineSet
332 546 m 1,0,-1
 240 524 l 2,1,2
 230 522 230 522 225 522 c 0,3,4
 209 522 209 522 199.5 530.5 c 128,-1,5
 190 539 190 539 190 553 c 0,6,7
 190 579 190 579 222 587 c 2,8,-1
 380 626 l 2,9,10
 392 629 392 629 402 629 c 0,11,12
 418 629 418 629 418 607 c 0,13,14
 418 600 418 600 417 597 c 2,15,-1
 304 67 l 1,16,-1
 409 67 l 2,17,18
 439 67 439 67 439 40 c 0,19,20
 439 0 439 0 394 0 c 2,21,-1
 107 0 l 2,22,23
 77 0 77 0 77 28 c 0,24,25
 77 67 77 67 122 67 c 2,26,-1
 230 67 l 1,27,-1
 332 546 l 1,0,-1
EndSplineSet
EndChar
StartChar: two
Encoding: 50 50 21
Width: 602
Flags: W
LayerCount: 2
Back
Fore
SplineSet
75 0 m 2,0,1
 25 0 25 0 25 37 c 0,2,3
 25 67 25 67 97 125 c 2,4,-1
 294 288 l 2,5,6
 361 343 361 343 392.5 385.5 c 128,-1,7
 424 428 424 428 424 476 c 0,8,9
 424 517 424 517 399 542 c 128,-1,10
 374 567 374 567 334 567 c 0,11,12
 305 567 305 567 274.5 552 c 128,-1,13
 244 537 244 537 226 513 c 0,14,15
 222 508 222 508 215 497.5 c 128,-1,16
 208 487 208 487 204.5 482.5 c 128,-1,17
 201 478 201 478 192.5 474 c 128,-1,18
 184 470 184 470 173 470 c 0,19,20
 151 470 151 470 151 497 c 0,21,22
 151 552 151 552 210 591.5 c 128,-1,23
 269 631 269 631 343 631 c 0,24,25
 415 631 415 631 459 589 c 128,-1,26
 503 547 503 547 503 478 c 0,27,28
 503 413 503 413 460.5 355.5 c 128,-1,29
 418 298 418 298 324 221 c 2,30,-1
 136 67 l 1,31,-1
 360 67 l 1,32,33
 374 120 374 120 407 120 c 0,34,35
 420 120 420 120 429 112.5 c 128,-1,36
 438 105 438 105 438 93 c 0,37,38
 438 84 438 84 433 70 c 2,39,-1
 421 32 l 2,40,41
 410 0 410 0 374 0 c 2,42,-1
 75 0 l 2,0,1
EndSplineSet
EndChar
StartChar: three
Encoding: 51 51 22
Width: 602
Flags: W
LayerCount: 2
Back
Fore
SplineSet
369 336 m 1,0,1
 412 328 412 328 435.5 296 c 128,-1,2
 459 264 459 264 459 214 c 0,3,4
 459 119 459 119 388.5 51.5 c 128,-1,5
 318 -16 318 -16 210 -16 c 0,6,7
 135 -16 135 -16 86 9.5 c 128,-1,8
 37 35 37 35 37 68 c 0,9,10
 37 83 37 83 46 92 c 128,-1,11
 55 101 55 101 69 101 c 0,12,13
 79 101 79 101 124.5 78 c 128,-1,14
 170 55 170 55 212 55 c 0,15,16
 283 55 283 55 330 99 c 128,-1,17
 377 143 377 143 377 202 c 0,18,19
 377 279 377 279 292 294 c 0,20,21
 283 296 283 296 272.5 297 c 128,-1,22
 262 298 262 298 257 299 c 128,-1,23
 252 300 252 300 247 302 c 128,-1,24
 242 304 242 304 240 308 c 128,-1,25
 238 312 238 312 238 319 c 0,26,27
 238 331 238 331 240 338.5 c 128,-1,28
 242 346 242 346 249.5 350.5 c 128,-1,29
 257 355 257 355 260.5 356.5 c 128,-1,30
 264 358 264 358 277.5 360 c 128,-1,31
 291 362 291 362 296 363 c 0,32,33
 355 376 355 376 387 410 c 128,-1,34
 419 444 419 444 419 493 c 0,35,36
 419 524 419 524 397.5 545.5 c 128,-1,37
 376 567 376 567 346 567 c 0,38,39
 310 567 310 567 277.5 553.5 c 128,-1,40
 245 540 245 540 223 527 c 128,-1,41
 201 514 201 514 191 514 c 0,42,43
 180 514 180 514 173 521.5 c 128,-1,44
 166 529 166 529 166 540 c 0,45,46
 166 569 166 569 227 600.5 c 128,-1,47
 288 632 288 632 356 632 c 0,48,49
 420 632 420 632 458.5 595 c 128,-1,50
 497 558 497 558 497 498 c 0,51,52
 497 378 497 378 369 336 c 1,0,1
EndSplineSet
EndChar
StartChar: four
Encoding: 52 52 23
Width: 602
Flags: W
LayerCount: 2
Back
Fore
SplineSet
320 165 m 1,0,-1
 101 165 l 2,1,2
 69 165 69 165 69 187 c 2,3,4
 69 187 69 187 69 193 c 2,5,-1
 72 215 l 2,6,7
 75 231 75 231 85 244 c 2,8,-1
 381 621 l 2,9,10
 391 634 391 634 401 634 c 0,11,12
 407 634 407 634 411 633 c 2,13,-1
 468 625 l 2,14,15
 478 623 478 623 478 611 c 0,16,17
 478 602 478 602 477 597 c 2,18,-1
 398 226 l 1,19,-1
 418 226 l 2,20,21
 426 226 426 226 437 234.5 c 128,-1,22
 448 243 448 243 455 243 c 0,23,24
 474 243 474 243 474 225 c 0,25,26
 474 212 474 212 470 206 c 2,27,-1
 455 177 l 2,28,29
 450 165 450 165 430 165 c 2,30,-1
 384 165 l 1,31,-1
 364 67 l 1,32,-1
 403 67 l 2,33,34
 433 67 433 67 433 40 c 0,35,36
 433 0 433 0 389 0 c 2,37,-1
 227 0 l 2,38,39
 198 0 198 0 198 28 c 0,40,41
 198 67 198 67 242 67 c 2,42,-1
 298 67 l 1,43,-1
 320 165 l 1,0,-1
142 226 m 1,44,-1
 332 226 l 1,45,-1
 406 562 l 1,46,-1
 142 226 l 1,44,-1
EndSplineSet
EndChar
StartChar: five
Encoding: 53 53 24
Width: 602
Flags: W
LayerCount: 2
Back
Fore
SplineSet
202 387 m 1,0,1
 255 411 255 411 301 411 c 0,2,3
 382 411 382 411 427.5 365 c 128,-1,4
 473 319 473 319 473 240 c 0,5,6
 473 133 473 133 395.5 58.5 c 128,-1,7
 318 -16 318 -16 204 -16 c 0,8,9
 129 -16 129 -16 80.5 9.5 c 128,-1,10
 32 35 32 35 32 68 c 0,11,12
 32 83 32 83 40.5 92 c 128,-1,13
 49 101 49 101 63 101 c 0,14,15
 72 101 72 101 118 78 c 128,-1,16
 164 55 164 55 207 55 c 0,17,18
 286 55 286 55 339 107.5 c 128,-1,19
 392 160 392 160 392 233 c 0,20,21
 392 287 392 287 365 315.5 c 128,-1,22
 338 344 338 344 289 344 c 0,23,24
 249 344 249 344 201 321 c 128,-1,25
 153 298 153 298 141 298 c 0,26,27
 119 298 119 298 119 324 c 0,28,29
 119 332 119 332 120 335 c 2,30,-1
 181 580 l 2,31,32
 187 604 187 604 195.5 610 c 128,-1,33
 204 616 204 616 232 616 c 2,34,-1
 485 616 l 2,35,36
 515 616 515 616 515 588 c 0,37,38
 515 549 515 549 470 549 c 2,39,-1
 244 549 l 1,40,-1
 202 387 l 1,0,1
EndSplineSet
EndChar
StartChar: six
Encoding: 54 54 25
Width: 602
Flags: W
LayerCount: 2
Back
Fore
SplineSet
192 320 m 1,0,1
 248 391 248 391 331 391 c 0,2,3
 396 391 396 391 435.5 346.5 c 128,-1,4
 475 302 475 302 475 230 c 0,5,6
 475 132 475 132 408 59 c 128,-1,7
 341 -14 341 -14 245 -14 c 0,8,9
 90 -14 90 -14 90 175 c 0,10,11
 90 279 90 279 129 374 c 128,-1,12
 168 469 168 469 238 535 c 0,13,14
 294 588 294 588 357.5 609.5 c 128,-1,15
 421 631 421 631 507 631 c 0,16,17
 553 631 553 631 553 604 c 0,18,19
 553 587 553 587 542.5 579 c 128,-1,20
 532 571 532 571 519.5 570 c 128,-1,21
 507 569 507 569 482 568 c 128,-1,22
 457 567 457 567 442 565 c 0,23,24
 254 535 254 535 192 320 c 1,0,1
170 154 m 0,25,26
 170 105 170 105 192 78.5 c 128,-1,27
 214 52 214 52 255 52 c 0,28,29
 311 52 311 52 352 104 c 128,-1,30
 393 156 393 156 393 225 c 0,31,32
 393 269 393 269 369.5 295.5 c 128,-1,33
 346 322 346 322 308 322 c 0,34,35
 255 322 255 322 212.5 273.5 c 128,-1,36
 170 225 170 225 170 154 c 0,25,26
EndSplineSet
EndChar
StartChar: seven
Encoding: 55 55 26
Width: 602
Flags: W
LayerCount: 2
Back
Fore
SplineSet
445 549 m 1,0,-1
 209 549 l 1,1,2
 200 505 200 505 164 505 c 0,3,4
 153 505 153 505 145 511.5 c 128,-1,5
 137 518 137 518 137 528 c 0,6,7
 137 530 137 530 139 540 c 2,8,-1
 154 589 l 2,9,10
 163 616 163 616 194 616 c 2,11,-1
 507 616 l 2,12,13
 532 616 532 616 532 598 c 0,14,15
 532 577 532 577 506 528 c 2,16,-1
 227 11 l 2,17,18
 218 -7 218 -7 208 -7 c 2,19,-1
 158 -7 l 2,20,21
 142 -7 142 -7 142 4 c 0,22,23
 142 12 142 12 149 25 c 2,24,-1
 445 549 l 1,0,-1
EndSplineSet
EndChar
StartChar: eight
Encoding: 56 56 27
Width: 602
Flags: W
LayerCount: 2
Back
Fore
SplineSet
403 317 m 1,0,1
 477 278 477 278 477 199 c 0,2,3
 477 114 477 114 409 48.5 c 128,-1,4
 341 -17 341 -17 246 -17 c 0,5,6
 173 -17 173 -17 126.5 26 c 128,-1,7
 80 69 80 69 80 139 c 0,8,9
 80 197 80 197 115 245 c 128,-1,10
 150 293 150 293 212 317 c 1,11,12
 145 363 145 363 145 434 c 0,13,14
 145 513 145 513 210.5 573.5 c 128,-1,15
 276 634 276 634 356 634 c 128,-1,16
 436 634 436 634 480.5 592.5 c 128,-1,17
 525 551 525 551 525 480 c 0,18,19
 525 375 525 375 403 317 c 1,0,1
220 440 m 0,20,21
 220 400 220 400 246 375 c 128,-1,22
 272 350 272 350 313 350 c 0,23,24
 371 350 371 350 412 389.5 c 128,-1,25
 453 429 453 429 453 483 c 0,26,27
 453 522 453 522 428.5 544.5 c 128,-1,28
 404 567 404 567 360 567 c 0,29,30
 303 567 303 567 261.5 528.5 c 128,-1,31
 220 490 220 490 220 440 c 0,20,21
158 149 m 0,32,33
 158 109 158 109 184 84 c 128,-1,34
 210 59 210 59 251 59 c 0,35,36
 309 59 309 59 350 98.5 c 128,-1,37
 391 138 391 138 391 192 c 0,38,39
 391 231 391 231 366.5 253.5 c 128,-1,40
 342 276 342 276 298 276 c 0,41,42
 241 276 241 276 199.5 237.5 c 128,-1,43
 158 199 158 199 158 149 c 0,32,33
EndSplineSet
EndChar
StartChar: nine
Encoding: 57 57 28
Width: 602
Flags: W
LayerCount: 2
Back
Fore
SplineSet
402 298 m 1,0,1
 346 227 346 227 262 227 c 0,2,3
 197 227 197 227 157.5 271.5 c 128,-1,4
 118 316 118 316 118 388 c 0,5,6
 118 486 118 486 185 559 c 128,-1,7
 252 632 252 632 348 632 c 0,8,9
 503 632 503 632 503 443 c 0,10,11
 503 339 503 339 464 243.5 c 128,-1,12
 425 148 425 148 355 82 c 0,13,14
 299 29 299 29 235.5 7.5 c 128,-1,15
 172 -14 172 -14 86 -14 c 0,16,17
 40 -14 40 -14 40 13 c 0,18,19
 40 30 40 30 50.5 38 c 128,-1,20
 61 46 61 46 73.5 47.5 c 128,-1,21
 86 49 86 49 111 50 c 128,-1,22
 136 51 136 51 151 53 c 0,23,24
 340 83 340 83 402 298 c 1,0,1
423 463 m 0,25,26
 423 512 423 512 400.5 539 c 128,-1,27
 378 566 378 566 337 566 c 0,28,29
 281 566 281 566 240.5 514 c 128,-1,30
 200 462 200 462 200 393 c 0,31,32
 200 348 200 348 223.5 321.5 c 128,-1,33
 247 295 247 295 285 295 c 0,34,35
 338 295 338 295 380.5 343.5 c 128,-1,36
 423 392 423 392 423 463 c 0,25,26
EndSplineSet
EndChar
StartChar: colon
Encoding: 58 58 29
Width: 602
Flags: W
LayerCount: 2
Back
Fore
SplineSet
235 350 m 128,-1,1
 235 388 235 388 261.5 412.5 c 128,-1,2
 288 437 288 437 331 437 c 0,3,4
 375 437 375 437 401.5 413 c 128,-1,5
 428 389 428 389 428 350 c 0,6,7
 428 312 428 312 401 287.5 c 128,-1,8
 374 263 374 263 331 263 c 128,-1,9
 288 263 288 263 261.5 287.5 c 128,-1,0
 235 312 235 312 235 350 c 128,-1,1
174 69 m 128,-1,11
 174 107 174 107 200.5 131.5 c 128,-1,12
 227 156 227 156 270 156 c 128,-1,13
 313 156 313 156 339.5 132 c 128,-1,14
 366 108 366 108 366 69 c 128,-1,15
 366 30 366 30 339.5 6 c 128,-1,16
 313 -18 313 -18 270 -18 c 128,-1,17
 227 -18 227 -18 200.5 6.5 c 128,-1,10
 174 31 174 31 174 69 c 128,-1,11
EndSplineSet
EndChar
StartChar: semicolon
Encoding: 59 59 30
Width: 602
Flags: W
LayerCount: 2
Back
Fore
SplineSet
241 350 m 128,-1,1
 241 388 241 388 267.5 412.5 c 128,-1,2
 294 437 294 437 337 437 c 128,-1,3
 380 437 380 437 407 412.5 c 128,-1,4
 434 388 434 388 434 350 c 128,-1,5
 434 312 434 312 407 287.5 c 128,-1,6
 380 263 380 263 337 263 c 128,-1,7
 294 263 294 263 267.5 287.5 c 128,-1,0
 241 312 241 312 241 350 c 128,-1,1
104 -108 m 2,8,-1
 212 126 l 2,9,10
 222 147 222 147 245 147 c 2,11,-1
 342 147 l 2,12,13
 355 147 355 147 355 134 c 0,14,15
 355 129 355 129 353 127 c 2,16,-1
 170 -145 l 2,17,18
 160 -160 160 -160 147 -160 c 0,19,20
 141 -160 141 -160 135 -157 c 2,21,-1
 105 -142 l 2,22,23
 97 -138 97 -138 97 -128 c 0,24,25
 97 -123 97 -123 104 -108 c 2,8,-1
EndSplineSet
EndChar
StartChar: less
Encoding: 60 60 31
Width: 602
Flags: W
LayerCount: 2
Back
Fore
SplineSet
84 356 m 2,0,-1
 472 534 l 2,1,2
 496 546 496 546 511 546 c 0,3,4
 543 546 543 546 543 515 c 0,5,6
 543 490 543 490 503 472 c 2,7,-1
 158 308 l 1,8,-1
 503 144 l 2,9,10
 543 126 543 126 543 100 c 0,11,12
 543 69 543 69 511 69 c 0,13,14
 499 69 499 69 472 81 c 2,15,-1
 84 262 l 2,16,17
 63 272 63 272 56 275.5 c 128,-1,18
 49 279 49 279 41.5 288 c 128,-1,19
 34 297 34 297 34 309 c 128,-1,20
 34 321 34 321 41 330 c 128,-1,21
 48 339 48 339 55 342.5 c 128,-1,22
 62 346 62 346 84 356 c 2,0,-1
EndSplineSet
EndChar
StartChar: question
Encoding: 63 63 34
Width: 602
Flags: W
LayerCount: 2
Back
Fore
SplineSet
134 64 m 128,-1,1
 134 99 134 99 158 121 c 128,-1,2
 182 143 182 143 221 143 c 128,-1,3
 260 143 260 143 284.5 121 c 128,-1,4
 309 99 309 99 309 64 c 128,-1,5
 309 29 309 29 284.5 7 c 128,-1,6
 260 -15 260 -15 221 -15 c 128,-1,7
 182 -15 182 -15 158 7 c 128,-1,0
 134 29 134 29 134 64 c 128,-1,1
280 230 m 2,8,9
 272 194 272 194 238 194 c 0,10,11
 205 194 205 194 205 219 c 0,12,13
 205 225 205 225 206 228 c 2,14,-1
 212 261 l 2,15,16
 220 301 220 301 258 318 c 2,17,-1
 328 348 l 2,18,19
 415 386 415 386 415 456 c 0,20,21
 415 490 415 490 393 509.5 c 128,-1,22
 371 529 371 529 331 529 c 128,-1,23
 291 529 291 529 264.5 519 c 128,-1,24
 238 509 238 509 233 495 c 2,25,-1
 227 479 l 2,26,27
 217 449 217 449 192 449 c 0,28,29
 162 449 162 449 162 478 c 0,30,31
 162 484 162 484 163 487 c 2,32,-1
 173 534 l 2,33,34
 178 560 178 560 226.5 578.5 c 128,-1,35
 275 597 275 597 347 597 c 0,36,37
 416 597 416 597 454.5 561 c 128,-1,38
 493 525 493 525 493 462 c 0,39,40
 493 394 493 394 443.5 348.5 c 128,-1,41
 394 303 394 303 288 267 c 1,42,-1
 280 230 l 2,8,9
EndSplineSet
EndChar
StartChar: at
Encoding: 64 64 35
Width: 602
Flags: W
LayerCount: 2
Back
Fore
SplineSet
411 235 m 1,0,-1
 445 397 l 1,1,-1
 419 397 l 2,2,3
 373 397 373 397 341 361 c 128,-1,4
 309 325 309 325 309 281 c 0,5,6
 309 255 309 255 322 239 c 128,-1,7
 335 223 335 223 357 223 c 0,8,9
 381 223 381 223 411 235 c 1,0,-1
477 232 m 1,10,-1
 483 215 l 2,11,12
 487 206 487 206 487 195 c 0,13,14
 487 181 487 181 470.5 168.5 c 128,-1,15
 454 156 454 156 437 156 c 0,16,17
 422 156 422 156 406 180 c 1,18,19
 367 162 367 162 341 162 c 0,20,21
 300 162 300 162 273.5 191 c 128,-1,22
 247 220 247 220 247 267 c 0,23,24
 247 343 247 343 300.5 398.5 c 128,-1,25
 354 454 354 454 434 454 c 0,26,27
 448 454 448 454 456 453 c 1,28,29
 470 511 470 511 470 534 c 0,30,31
 470 568 470 568 451.5 589 c 128,-1,32
 433 610 433 610 406 610 c 0,33,34
 324 610 324 610 262 469 c 0,35,36
 195 315 195 315 195 153 c 0,37,38
 195 81 195 81 223 43.5 c 128,-1,39
 251 6 251 6 302 6 c 0,40,41
 328 6 328 6 359 18 c 128,-1,42
 390 30 390 30 395 30 c 0,43,44
 403 30 403 30 409.5 23 c 128,-1,45
 416 16 416 16 416 7 c 0,46,47
 416 -18 416 -18 383.5 -34.5 c 128,-1,48
 351 -51 351 -51 294 -51 c 0,49,50
 218 -51 218 -51 175 7 c 128,-1,51
 132 65 132 65 132 173 c 0,52,53
 132 268 132 268 160 369.5 c 128,-1,54
 188 471 188 471 234 545 c 0,55,56
 309 668 309 668 412 668 c 0,57,58
 466 668 466 668 500 634 c 128,-1,59
 534 600 534 600 534 545 c 0,60,61
 534 518 534 518 519 441 c 2,62,-1
 477 232 l 1,10,-1
EndSplineSet
EndChar
StartChar: A
Encoding: 65 65 36
Width: 602
Flags: W
LayerCount: 2
Back
Fore
SplineSet
93 67 m 1,0,-1
 156 67 l 2,1,2
 186 67 186 67 186 40 c 0,3,4
 186 0 186 0 142 0 c 2,5,-1
 -22 0 l 2,6,7
 -51 0 -51 0 -51 28 c 0,8,9
 -51 67 -51 67 -7 67 c 2,10,-1
 16 67 l 1,11,-1
 268 512 l 1,12,-1
 186 512 l 2,13,14
 156 512 156 512 156 539 c 0,15,16
 156 579 156 579 201 579 c 2,17,-1
 373 579 l 2,18,19
 396 579 396 579 405 569.5 c 128,-1,20
 414 560 414 560 419 532 c 2,21,-1
 500 67 l 1,22,-1
 525 67 l 2,23,24
 555 67 555 67 555 40 c 0,25,26
 555 0 555 0 510 0 c 2,27,-1
 344 0 l 2,28,29
 315 0 315 0 315 28 c 0,30,31
 315 67 315 67 359 67 c 2,32,-1
 424 67 l 1,33,-1
 407 181 l 1,34,-1
 155 181 l 1,35,-1
 93 67 l 1,0,-1
191 246 m 1,36,-1
 395 246 l 1,37,-1
 346 531 l 1,38,-1
 191 246 l 1,36,-1
EndSplineSet
EndChar
StartChar: B
Encoding: 66 66 37
Width: 602
Flags: W
LayerCount: 2
Back
Fore
SplineSet
364 512 m 2,0,-1
 248 512 l 1,1,-1
 209 327 l 1,2,-1
 331 327 l 2,3,4
 461 327 461 327 461 435 c 0,5,6
 461 476 461 476 437.5 494 c 128,-1,7
 414 512 414 512 364 512 c 2,0,-1
19 0 m 2,8,9
 -11 0 -11 0 -11 28 c 0,10,11
 -11 67 -11 67 34 67 c 2,12,-1
 78 67 l 1,13,-1
 172 512 l 1,14,-1
 124 512 l 2,15,16
 94 512 94 512 94 539 c 0,17,18
 94 579 94 579 139 579 c 2,19,-1
 341 579 l 2,20,21
 446 579 446 579 494.5 552.5 c 128,-1,22
 543 526 543 526 543 446 c 0,23,24
 543 339 543 339 444 301 c 1,25,26
 527 276 527 276 527 188 c 0,27,28
 527 106 527 106 474 55 c 0,29,30
 440 22 440 22 391 11 c 128,-1,31
 342 0 342 0 260 0 c 2,32,-1
 19 0 l 2,8,9
154 67 m 1,33,-1
 253 67 l 2,34,35
 355 67 355 67 399.5 92.5 c 128,-1,36
 444 118 444 118 444 191 c 0,37,38
 444 267 444 267 325 267 c 2,39,-1
 196 267 l 1,40,-1
 154 67 l 1,33,-1
EndSplineSet
EndChar
StartChar: C
Encoding: 67 67 38
Width: 602
Flags: W
LayerCount: 2
Back
Fore
SplineSet
513 562 m 1,0,1
 522 577 522 577 529.5 582 c 128,-1,2
 537 587 537 587 552 587 c 0,3,4
 581 587 581 587 581 565 c 0,5,6
 581 529 581 529 557 415 c 0,7,8
 552 393 552 393 544 384 c 128,-1,9
 536 375 536 375 519 375 c 0,10,11
 510 375 510 375 504 376 c 128,-1,12
 498 377 498 377 494 380.5 c 128,-1,13
 490 384 490 384 487.5 386.5 c 128,-1,14
 485 389 485 389 483.5 397.5 c 128,-1,15
 482 406 482 406 481.5 410 c 128,-1,16
 481 414 481 414 480 427.5 c 128,-1,17
 479 441 479 441 478 448 c 0,18,19
 473 490 473 490 448 510 c 128,-1,20
 423 530 423 530 372 530 c 0,21,22
 263 530 263 530 194 433 c 0,23,24
 124 336 124 336 124 215 c 0,25,26
 124 140 124 140 163.5 96 c 128,-1,27
 203 52 203 52 268 52 c 0,28,29
 328 52 328 52 393 85 c 0,30,31
 409 93 409 93 427 105 c 128,-1,32
 445 117 445 117 456 123.5 c 128,-1,33
 467 130 467 130 475 130 c 0,34,35
 486 130 486 130 493.5 122.5 c 128,-1,36
 501 115 501 115 501 103 c 0,37,38
 501 77 501 77 453 44 c 0,39,40
 368 -15 368 -15 259 -15 c 0,41,42
 159 -15 159 -15 98.5 47 c 128,-1,43
 38 109 38 109 38 214 c 0,44,45
 38 284 38 284 63 353.5 c 128,-1,46
 88 423 88 423 132 477 c 0,47,48
 230 596 230 596 377 596 c 0,49,50
 442 596 442 596 513 562 c 1,0,1
EndSplineSet
EndChar
StartChar: D
Encoding: 68 68 39
Width: 602
Flags: W
LayerCount: 2
Back
Fore
SplineSet
309 512 m 2,0,-1
 233 512 l 1,1,-1
 138 67 l 1,2,-1
 221 67 l 2,3,4
 346 67 346 67 418.5 147.5 c 128,-1,5
 491 228 491 228 491 359 c 0,6,7
 491 444 491 444 448.5 478 c 128,-1,8
 406 512 406 512 309 512 c 2,0,-1
62 67 m 1,9,-1
 157 512 l 1,10,-1
 126 512 l 2,11,12
 96 512 96 512 96 539 c 0,13,14
 96 579 96 579 140 579 c 2,15,-1
 310 579 l 2,16,17
 446 579 446 579 511.5 527 c 128,-1,18
 577 475 577 475 577 363 c 0,19,20
 577 292 577 292 553 223.5 c 128,-1,21
 529 155 529 155 490 108 c 0,22,23
 440 49 440 49 370 24.5 c 128,-1,24
 300 0 300 0 190 0 c 2,25,-1
 19 0 l 2,26,27
 -10 0 -10 0 -10 26 c 0,28,29
 -10 67 -10 67 34 67 c 2,30,-1
 62 67 l 1,9,-1
EndSplineSet
EndChar
StartChar: E
Encoding: 69 69 40
Width: 602
Flags: W
LayerCount: 2
Back
Fore
SplineSet
19 0 m 2,0,1
 -11 0 -11 0 -11 28 c 0,2,3
 -11 67 -11 67 34 67 c 2,4,-1
 86 67 l 1,5,-1
 177 512 l 1,6,-1
 124 512 l 2,7,8
 94 512 94 512 94 539 c 0,9,10
 94 579 94 579 139 579 c 2,11,-1
 543 579 l 2,12,13
 586 579 586 579 586 546 c 0,14,15
 586 537 586 537 584 529 c 2,16,-1
 559 425 l 2,17,18
 552 397 552 397 544 388 c 128,-1,19
 536 379 536 379 518 379 c 0,20,21
 488 379 488 379 488 406 c 0,22,23
 488 410 488 410 492 432 c 2,24,-1
 510 512 l 1,25,-1
 253 512 l 1,26,-1
 218 343 l 1,27,-1
 343 343 l 1,28,-1
 352 377 l 2,29,30
 356 392 356 392 358.5 398.5 c 128,-1,31
 361 405 361 405 368 411 c 128,-1,32
 375 417 375 417 386 417 c 0,33,34
 412 417 412 417 412 394 c 0,35,36
 412 388 412 388 407 361 c 2,37,-1
 386 254 l 2,38,39
 382 236 382 236 380 229 c 128,-1,40
 378 222 378 222 371.5 217 c 128,-1,41
 365 212 365 212 352 212 c 0,42,43
 325 212 325 212 325 231 c 0,44,45
 325 240 325 240 327 248 c 2,46,-1
 333 285 l 1,47,-1
 206 285 l 1,48,-1
 161 67 l 1,49,-1
 412 67 l 1,50,-1
 434 158 l 2,51,52
 440 183 440 183 448.5 193.5 c 128,-1,53
 457 204 457 204 472 204 c 0,54,55
 503 204 503 204 503 175 c 0,56,57
 503 165 503 165 500 150 c 2,58,-1
 476 42 l 2,59,60
 471 18 471 18 460.5 9 c 128,-1,61
 450 0 450 0 420 0 c 2,62,-1
 19 0 l 2,0,1
EndSplineSet
EndChar
StartChar: F
Encoding: 70 70 41
Width: 602
Flags: W
LayerCount: 2
Back
Fore
SplineSet
286 67 m 2,0,1
 316 67 316 67 316 40 c 0,2,3
 316 0 316 0 272 0 c 2,4,-1
 42 0 l 2,5,6
 12 0 12 0 12 28 c 0,7,8
 12 67 12 67 57 67 c 2,9,-1
 109 67 l 1,10,-1
 200 512 l 1,11,-1
 147 512 l 2,12,13
 117 512 117 512 117 539 c 0,14,15
 117 579 117 579 162 579 c 2,16,-1
 566 579 l 2,17,18
 609 579 609 579 609 546 c 0,19,20
 609 537 609 537 607 529 c 2,21,-1
 582 425 l 2,22,23
 575 397 575 397 567 388 c 128,-1,24
 559 379 559 379 541 379 c 0,25,26
 511 379 511 379 511 406 c 0,27,28
 511 410 511 410 515 432 c 2,29,-1
 533 512 l 1,30,-1
 276 512 l 1,31,-1
 241 343 l 1,32,-1
 366 343 l 1,33,-1
 375 377 l 2,34,35
 379 392 379 392 381.5 398.5 c 128,-1,36
 384 405 384 405 391 411 c 128,-1,37
 398 417 398 417 409 417 c 0,38,39
 436 417 436 417 436 394 c 0,40,41
 436 388 436 388 431 361 c 2,42,-1
 409 254 l 2,43,44
 405 236 405 236 403 229 c 128,-1,45
 401 222 401 222 394.5 217 c 128,-1,46
 388 212 388 212 375 212 c 0,47,48
 348 212 348 212 348 231 c 0,49,50
 348 240 348 240 350 248 c 2,51,-1
 356 285 l 1,52,-1
 229 285 l 1,53,-1
 184 67 l 1,54,-1
 286 67 l 2,0,1
EndSplineSet
EndChar
StartChar: G
Encoding: 71 71 42
Width: 602
Flags: W
LayerCount: 2
Back
Fore
SplineSet
513 562 m 1,0,1
 529 588 529 588 552 588 c 0,2,3
 581 588 581 588 581 561 c 0,4,5
 581 555 581 555 580 551 c 2,6,-1
 560 449 l 2,7,8
 555 422 555 422 548.5 411.5 c 128,-1,9
 542 401 542 401 523 401 c 0,10,11
 507 401 507 401 498 407 c 128,-1,12
 489 413 489 413 487 419.5 c 128,-1,13
 485 426 485 426 482 444 c 128,-1,14
 479 462 479 462 477 471 c 0,15,16
 463 530 463 530 372 530 c 0,17,18
 266 530 266 530 196 434 c 0,19,20
 124 335 124 335 124 221 c 0,21,22
 124 138 124 138 165 94.5 c 128,-1,23
 206 51 206 51 283 51 c 0,24,25
 347 51 347 51 413 80 c 1,26,-1
 437 200 l 1,27,-1
 336 200 l 2,28,29
 315 200 315 200 307.5 204 c 128,-1,30
 300 208 300 208 300 221 c 0,31,32
 300 248 300 248 312 256 c 128,-1,33
 324 264 324 264 351 264 c 2,34,-1
 518 264 l 2,35,36
 545 264 545 264 554.5 259.5 c 128,-1,37
 564 255 564 255 564 241 c 0,38,39
 564 216 564 216 555.5 208 c 128,-1,40
 547 200 547 200 523 200 c 2,41,-1
 512 200 l 1,42,-1
 483 53 l 2,43,44
 479 36 479 36 472.5 30.5 c 128,-1,45
 466 25 466 25 439 15 c 0,46,47
 357 -15 357 -15 266 -15 c 0,48,49
 161 -15 161 -15 99.5 46 c 128,-1,50
 38 107 38 107 38 211 c 0,51,52
 38 281 38 281 63 351 c 128,-1,53
 88 421 88 421 132 476 c 0,54,55
 229 596 229 596 377 596 c 0,56,57
 442 596 442 596 513 562 c 1,0,1
EndSplineSet
EndChar
StartChar: H
Encoding: 72 72 43
Width: 602
Flags: W
LayerCount: 2
Back
Fore
SplineSet
426 337 m 1,0,-1
 463 512 l 1,1,-1
 425 512 l 2,2,3
 395 512 395 512 395 539 c 0,4,5
 395 579 395 579 440 579 c 2,6,-1
 582 579 l 2,7,8
 612 579 612 579 612 551 c 0,9,10
 612 512 612 512 567 512 c 2,11,-1
 539 512 l 1,12,-1
 444 67 l 1,13,-1
 477 67 l 2,14,15
 507 67 507 67 507 40 c 0,16,17
 507 0 507 0 462 0 c 2,18,-1
 319 0 l 2,19,20
 289 0 289 0 289 28 c 0,21,22
 289 67 289 67 334 67 c 2,23,-1
 368 67 l 1,24,-1
 412 273 l 1,25,-1
 181 273 l 1,26,-1
 138 67 l 1,27,-1
 176 67 l 2,28,29
 206 67 206 67 206 40 c 0,30,31
 206 0 206 0 161 0 c 2,32,-1
 19 0 l 2,33,34
 -11 0 -11 0 -11 28 c 0,35,36
 -11 67 -11 67 34 67 c 2,37,-1
 62 67 l 1,38,-1
 157 512 l 1,39,-1
 124 512 l 2,40,41
 94 512 94 512 94 539 c 0,42,43
 94 579 94 579 139 579 c 2,44,-1
 282 579 l 2,45,46
 311 579 311 579 311 551 c 0,47,48
 311 512 311 512 267 512 c 2,49,-1
 233 512 l 1,50,-1
 195 337 l 1,51,-1
 426 337 l 1,0,-1
EndSplineSet
EndChar
StartChar: I
Encoding: 73 73 44
Width: 602
Flags: W
LayerCount: 2
Back
Fore
SplineSet
289 67 m 1,0,-1
 420 67 l 2,1,2
 450 67 450 67 450 40 c 0,3,4
 450 0 450 0 406 0 c 2,5,-1
 75 0 l 2,6,7
 45 0 45 0 45 28 c 0,8,9
 45 67 45 67 89 67 c 2,10,-1
 213 67 l 1,11,-1
 309 512 l 1,12,-1
 180 512 l 2,13,14
 150 512 150 512 150 539 c 0,15,16
 150 579 150 579 195 579 c 2,17,-1
 526 579 l 2,18,19
 556 579 556 579 556 551 c 0,20,21
 556 512 556 512 511 512 c 2,22,-1
 384 512 l 1,23,-1
 289 67 l 1,0,-1
EndSplineSet
EndChar
StartChar: J
Encoding: 74 74 45
Width: 602
Flags: W
LayerCount: 2
Back
Fore
SplineSet
445 193 m 2,0,1
 433 136 433 136 417.5 99.5 c 128,-1,2
 402 63 402 63 375.5 36 c 128,-1,3
 349 9 349 9 310.5 -3 c 128,-1,4
 272 -15 272 -15 215 -15 c 0,5,6
 164 -15 164 -15 119 -2.5 c 128,-1,7
 74 10 74 10 50.5 26 c 128,-1,8
 27 42 27 42 27 54 c 0,9,10
 27 63 27 63 32 87 c 2,11,-1
 60 215 l 2,12,13
 63 231 63 231 69.5 237 c 128,-1,14
 76 243 76 243 92 243 c 0,15,16
 122 243 122 243 122 215 c 0,17,18
 122 210 122 210 119 185 c 128,-1,19
 116 160 116 160 116 139 c 0,20,21
 116 90 116 90 140 68 c 128,-1,22
 164 46 164 46 220 46 c 0,23,24
 291 46 291 46 322.5 83 c 128,-1,25
 354 120 354 120 373 210 c 2,26,-1
 437 512 l 1,27,-1
 289 512 l 2,28,29
 259 512 259 512 259 539 c 0,30,31
 259 579 259 579 303 579 c 2,32,-1
 607 579 l 2,33,34
 637 579 637 579 637 551 c 0,35,36
 637 512 637 512 593 512 c 2,37,-1
 513 512 l 1,38,-1
 445 193 l 2,0,1
EndSplineSet
EndChar
StartChar: K
Encoding: 75 75 46
Width: 602
Flags: W
LayerCount: 2
Back
Fore
SplineSet
27 0 m 2,0,1
 -2 0 -2 0 -2 28 c 0,2,3
 -2 67 -2 67 42 67 c 2,4,-1
 92 67 l 1,5,-1
 185 512 l 1,6,-1
 132 512 l 2,7,8
 103 512 103 512 103 539 c 0,9,10
 103 579 103 579 147 579 c 2,11,-1
 322 579 l 2,12,13
 351 579 351 579 351 551 c 0,14,15
 351 512 351 512 307 512 c 2,16,-1
 261 512 l 1,17,-1
 219 310 l 1,18,-1
 454 512 l 1,19,-1
 434 512 l 2,20,21
 405 512 405 512 405 539 c 0,22,23
 405 579 405 579 449 579 c 2,24,-1
 581 579 l 2,25,26
 617 579 617 579 617 551 c 0,27,28
 617 512 617 512 572 512 c 2,29,-1
 549 512 l 1,30,-1
 332 327 l 1,31,32
 378 310 378 310 406.5 251.5 c 128,-1,33
 435 193 435 193 473 67 c 1,34,-1
 502 67 l 2,35,36
 522 67 522 67 528.5 61.5 c 128,-1,37
 535 56 535 56 535 40 c 0,38,39
 535 0 535 0 488 0 c 2,40,-1
 439 0 l 2,41,42
 416 0 416 0 406.5 19.5 c 128,-1,43
 397 39 397 39 384 93.5 c 128,-1,44
 371 148 371 148 351 194 c 0,45,46
 321 263 321 263 266 275 c 1,47,-1
 198 218 l 1,48,-1
 168 67 l 1,49,-1
 213 67 l 2,50,51
 243 67 243 67 243 40 c 0,52,53
 243 0 243 0 198 0 c 2,54,-1
 27 0 l 2,0,1
EndSplineSet
EndChar
StartChar: L
Encoding: 76 76 47
Width: 602
Flags: W
LayerCount: 2
Back
Fore
SplineSet
191 67 m 1,0,-1
 445 67 l 1,1,-1
 475 197 l 2,2,3
 480 221 480 221 483.5 230.5 c 128,-1,4
 487 240 487 240 495 247 c 128,-1,5
 503 254 503 254 517 254 c 0,6,7
 550 254 550 254 550 228 c 0,8,9
 550 224 550 224 548 212 c 2,10,-1
 513 51 l 2,11,12
 506 16 506 16 495.5 8 c 128,-1,13
 485 0 485 0 450 0 c 2,14,-1
 22 0 l 2,15,16
 -8 0 -8 0 -8 28 c 0,17,18
 -8 67 -8 67 36 67 c 2,19,-1
 116 67 l 1,20,-1
 211 512 l 1,21,-1
 127 512 l 2,22,23
 97 512 97 512 97 539 c 0,24,25
 97 579 97 579 142 579 c 2,26,-1
 402 579 l 2,27,28
 431 579 431 579 431 551 c 0,29,30
 431 512 431 512 387 512 c 2,31,-1
 287 512 l 1,32,-1
 191 67 l 1,0,-1
EndSplineSet
EndChar
StartChar: M
Encoding: 77 77 48
Width: 602
Flags: W
LayerCount: 2
Back
Fore
SplineSet
107 67 m 1,0,-1
 155 67 l 2,1,2
 185 67 185 67 185 40 c 0,3,4
 185 0 185 0 140 0 c 2,5,-1
 -6 0 l 2,6,7
 -36 0 -36 0 -36 28 c 0,8,9
 -36 67 -36 67 8 67 c 2,10,-1
 36 67 l 1,11,-1
 143 512 l 1,12,-1
 127 512 l 2,13,14
 109 512 109 512 102 517 c 128,-1,15
 95 522 95 522 95 537 c 0,16,17
 95 556 95 556 106 567.5 c 128,-1,18
 117 579 117 579 136 579 c 2,19,-1
 216 579 l 2,20,21
 254 579 254 579 259 534 c 2,22,-1
 291 219 l 1,23,-1
 452 523 l 2,24,25
 470 557 470 557 483.5 568 c 128,-1,26
 497 579 497 579 522 579 c 2,27,-1
 602 579 l 2,28,29
 617 579 617 579 623 572.5 c 128,-1,30
 629 566 629 566 629 550 c 0,31,32
 629 512 629 512 597 512 c 2,33,-1
 569 512 l 1,34,-1
 487 67 l 1,35,-1
 515 67 l 2,36,37
 545 67 545 67 545 40 c 0,38,39
 545 0 545 0 500 0 c 2,40,-1
 356 0 l 2,41,42
 327 0 327 0 327 28 c 0,43,44
 327 67 327 67 371 67 c 2,45,-1
 413 67 l 1,46,-1
 497 505 l 1,47,-1
 339 208 l 2,48,49
 326 184 326 184 316.5 177 c 128,-1,50
 307 170 307 170 284 170 c 128,-1,51
 261 170 261 170 251.5 178.5 c 128,-1,52
 242 187 242 187 239 212 c 2,53,-1
 209 505 l 1,54,-1
 107 67 l 1,0,-1
EndSplineSet
EndChar
StartChar: N
Encoding: 78 78 49
Width: 602
Flags: W
LayerCount: 2
Back
Fore
SplineSet
137 67 m 1,0,-1
 200 67 l 2,1,2
 230 67 230 67 230 40 c 0,3,4
 230 0 230 0 185 0 c 2,5,-1
 29 0 l 2,6,7
 -1 0 -1 0 -1 28 c 0,8,9
 -1 67 -1 67 44 67 c 2,10,-1
 67 67 l 1,11,-1
 159 512 l 1,12,-1
 118 512 l 2,13,14
 89 512 89 512 89 539 c 0,15,16
 89 579 89 579 133 579 c 2,17,-1
 212 579 l 2,18,19
 239 579 239 579 248 574 c 128,-1,20
 257 569 257 569 264 547 c 2,21,-1
 413 101 l 1,22,-1
 494 512 l 1,23,-1
 436 512 l 2,24,25
 406 512 406 512 406 539 c 0,26,27
 406 579 406 579 451 579 c 2,28,-1
 603 579 l 2,29,30
 633 579 633 579 633 551 c 0,31,32
 633 512 633 512 588 512 c 2,33,-1
 564 512 l 1,34,-1
 465 40 l 2,35,36
 459 8 459 8 451.5 0 c 128,-1,37
 444 -8 444 -8 418 -8 c 0,38,39
 396 -8 396 -8 387.5 -0.5 c 128,-1,40
 379 7 379 7 367 43 c 2,41,-1
 219 480 l 1,42,-1
 137 67 l 1,0,-1
EndSplineSet
EndChar
StartChar: O
Encoding: 79 79 50
Width: 602
Flags: W
LayerCount: 2
Back
Fore
SplineSet
351 596 m 0,0,1
 457 596 457 596 518.5 533.5 c 128,-1,2
 580 471 580 471 580 362 c 0,3,4
 580 229 580 229 495 113 c 0,5,6
 402 -14 402 -14 252 -14 c 0,7,8
 145 -14 145 -14 83.5 47.5 c 128,-1,9
 22 109 22 109 22 218 c 0,10,11
 22 354 22 354 106 467 c 0,12,13
 200 596 200 596 351 596 c 0,0,1
345 532 m 0,14,15
 247 532 247 532 175 431 c 0,16,17
 107 336 107 336 107 219 c 0,18,19
 107 140 107 140 147 95 c 128,-1,20
 187 50 187 50 258 50 c 0,21,22
 355 50 355 50 427 152 c 0,23,24
 496 247 496 247 496 364 c 0,25,26
 496 443 496 443 455.5 487.5 c 128,-1,27
 415 532 415 532 345 532 c 0,14,15
EndSplineSet
EndChar
StartChar: P
Encoding: 80 80 51
Width: 602
Flags: W
LayerCount: 2
Back
Fore
SplineSet
216 215 m 1,0,-1
 185 67 l 1,1,-1
 291 67 l 2,2,3
 321 67 321 67 321 40 c 0,4,5
 321 0 321 0 276 0 c 2,6,-1
 35 0 l 2,7,8
 5 0 5 0 5 28 c 0,9,10
 5 67 5 67 50 67 c 2,11,-1
 109 67 l 1,12,-1
 204 512 l 1,13,-1
 140 512 l 2,14,15
 111 512 111 512 111 539 c 0,16,17
 111 579 111 579 155 579 c 2,18,-1
 373 579 l 2,19,20
 433 579 433 579 466.5 574 c 128,-1,21
 500 569 500 569 526 551 c 0,22,23
 577 514 577 514 577 440 c 0,24,25
 577 332 577 332 512.5 273.5 c 128,-1,26
 448 215 448 215 324 215 c 2,27,-1
 216 215 l 1,0,-1
279 512 m 1,28,-1
 229 277 l 1,29,-1
 316 277 l 2,30,31
 405 277 405 277 449 313 c 128,-1,32
 493 349 493 349 493 427 c 0,33,34
 493 472 493 472 468.5 492 c 128,-1,35
 444 512 444 512 392 512 c 2,36,-1
 279 512 l 1,28,-1
EndSplineSet
EndChar
StartChar: Q
Encoding: 81 81 52
Width: 602
Flags: W
LayerCount: 2
Back
Fore
SplineSet
345 532 m 0,0,1
 247 532 247 532 175 431 c 0,2,3
 107 336 107 336 107 219 c 0,4,5
 107 140 107 140 147 95 c 128,-1,6
 187 50 187 50 258 50 c 0,7,8
 355 50 355 50 427 152 c 0,9,10
 496 247 496 247 496 364 c 0,11,12
 496 443 496 443 455.5 487.5 c 128,-1,13
 415 532 415 532 345 532 c 0,0,1
142 -59 m 1,14,15
 212 -40 212 -40 248 -40 c 0,16,17
 274 -40 274 -40 316 -51 c 128,-1,18
 358 -62 358 -62 373 -62 c 128,-1,19
 388 -62 388 -62 410 -53 c 128,-1,20
 432 -44 432 -44 438 -44 c 0,21,22
 446 -44 446 -44 453 -51.5 c 128,-1,23
 460 -59 460 -59 460 -69 c 0,24,25
 460 -91 460 -91 431.5 -108 c 128,-1,26
 403 -125 403 -125 364 -125 c 0,27,28
 337 -125 337 -125 287.5 -109.5 c 128,-1,29
 238 -94 238 -94 209 -94 c 0,30,31
 171 -94 171 -94 132 -110.5 c 128,-1,32
 93 -127 93 -127 87 -127 c 0,33,34
 78 -127 78 -127 70 -118.5 c 128,-1,35
 62 -110 62 -110 62 -98 c 0,36,37
 62 -81 62 -81 84 -63 c 2,38,-1
 158 -1 l 1,39,40
 22 54 22 54 22 218 c 0,41,42
 22 354 22 354 106 467 c 0,43,44
 201 596 201 596 350 596 c 0,45,46
 456 596 456 596 518 533.5 c 128,-1,47
 580 471 580 471 580 362 c 0,48,49
 580 230 580 230 495 113 c 0,50,51
 450 52 450 52 387.5 18.5 c 128,-1,52
 325 -15 325 -15 254 -15 c 0,53,54
 230 -15 230 -15 198 -10 c 1,55,-1
 142 -59 l 1,14,15
EndSplineSet
EndChar
StartChar: R
Encoding: 82 82 53
Width: 602
Flags: W
LayerCount: 2
Back
Fore
SplineSet
81 67 m 1,0,-1
 175 512 l 1,1,-1
 127 512 l 2,2,3
 97 512 97 512 97 539 c 0,4,5
 97 579 97 579 141 579 c 2,6,-1
 344 579 l 2,7,8
 449 579 449 579 497 552 c 128,-1,9
 545 525 545 525 545 450 c 0,10,11
 545 376 545 376 501.5 323.5 c 128,-1,12
 458 271 458 271 384 259 c 1,13,14
 390 254 390 254 395.5 247 c 128,-1,15
 401 240 401 240 404 236 c 128,-1,16
 407 232 407 232 412 222 c 128,-1,17
 417 212 417 212 418 209.5 c 128,-1,18
 419 207 419 207 425 194.5 c 128,-1,19
 431 182 431 182 431 181 c 2,20,-1
 481 67 l 1,21,-1
 513 67 l 2,22,23
 542 67 542 67 542 40 c 0,24,25
 542 0 542 0 498 0 c 2,26,-1
 446 0 l 2,27,28
 426 0 426 0 409 36 c 2,29,-1
 339 193 l 2,30,31
 324 227 324 227 310 238 c 128,-1,32
 296 249 296 249 262 249 c 2,33,-1
 195 249 l 1,34,-1
 156 67 l 1,35,-1
 206 67 l 2,36,37
 236 67 236 67 236 40 c 0,38,39
 236 0 236 0 191 0 c 2,40,-1
 21 0 l 2,41,42
 -8 0 -8 0 -8 28 c 0,43,44
 -8 67 -8 67 36 67 c 2,45,-1
 81 67 l 1,0,-1
251 512 m 1,46,-1
 208 310 l 1,47,-1
 303 310 l 2,48,49
 464 310 464 310 464 431 c 0,50,51
 464 473 464 473 439.5 492.5 c 128,-1,52
 415 512 415 512 363 512 c 2,53,-1
 251 512 l 1,46,-1
EndSplineSet
EndChar
StartChar: S
Encoding: 83 83 54
Width: 602
Flags: W
LayerCount: 2
Back
Fore
SplineSet
122 20 m 1,0,1
 112 -3 112 -3 103.5 -11.5 c 128,-1,2
 95 -20 95 -20 77 -20 c 0,3,4
 64 -20 64 -20 55 -11.5 c 128,-1,5
 46 -3 46 -3 46 9 c 128,-1,6
 46 21 46 21 48 31 c 2,7,-1
 69 151 l 2,8,9
 76 196 76 196 103 196 c 0,10,11
 122 196 122 196 131 190 c 128,-1,12
 140 184 140 184 141.5 177 c 128,-1,13
 143 170 143 170 144.5 153 c 128,-1,14
 146 136 146 136 148 125 c 0,15,16
 164 49 164 49 278 49 c 0,17,18
 350 49 350 49 393.5 84 c 128,-1,19
 437 119 437 119 437 170 c 0,20,21
 437 210 437 210 413.5 227 c 128,-1,22
 390 244 390 244 338 251 c 0,23,24
 334 252 334 252 318 254 c 128,-1,25
 302 256 302 256 297 256.5 c 128,-1,26
 292 257 292 257 278.5 259.5 c 128,-1,27
 265 262 265 262 260 263.5 c 128,-1,28
 255 265 255 265 244 267.5 c 128,-1,29
 233 270 233 270 227 273 c 128,-1,30
 221 276 221 276 212.5 280 c 128,-1,31
 204 284 204 284 197 289 c 128,-1,32
 190 294 190 294 184 300 c 0,33,34
 139 341 139 341 139 405 c 0,35,36
 139 487 139 487 205.5 541.5 c 128,-1,37
 272 596 272 596 379 596 c 0,38,39
 440 596 440 596 498 569 c 1,40,41
 502 585 502 585 510.5 591 c 128,-1,42
 519 597 519 597 535 597 c 0,43,44
 566 597 566 597 566 571 c 0,45,46
 566 568 566 568 564 554 c 2,47,-1
 550 460 l 2,48,49
 546 431 546 431 539 421.5 c 128,-1,50
 532 412 532 412 511 412 c 0,51,52
 505 412 505 412 500.5 413 c 128,-1,53
 496 414 496 414 493 414.5 c 128,-1,54
 490 415 490 415 487.5 418 c 128,-1,55
 485 421 485 421 484 422 c 128,-1,56
 483 423 483 423 481.5 428.5 c 128,-1,57
 480 434 480 434 479.5 436.5 c 128,-1,58
 479 439 479 439 478 446.5 c 128,-1,59
 477 454 477 454 476 458 c 0,60,61
 464 531 464 531 357 531 c 0,62,63
 295 531 295 531 255.5 497.5 c 128,-1,64
 216 464 216 464 216 415 c 0,65,66
 216 395 216 395 222 381 c 128,-1,67
 228 367 228 367 235.5 359 c 128,-1,68
 243 351 243 351 262 345 c 128,-1,69
 281 339 281 339 294 336.5 c 128,-1,70
 307 334 307 334 337 330 c 0,71,72
 433 316 433 316 475 284 c 128,-1,73
 517 252 517 252 517 180 c 0,74,75
 517 95 517 95 455 40.5 c 128,-1,76
 393 -14 393 -14 289 -14 c 0,77,78
 184 -14 184 -14 122 20 c 1,0,1
EndSplineSet
EndChar
StartChar: T
Encoding: 84 84 55
Width: 602
Flags: W
LayerCount: 2
Back
Fore
SplineSet
392 510 m 1,0,-1
 297 67 l 1,1,-1
 387 67 l 2,2,3
 417 67 417 67 417 40 c 0,4,5
 417 0 417 0 373 0 c 2,6,-1
 114 0 l 2,7,8
 84 0 84 0 84 28 c 0,9,10
 84 67 84 67 129 67 c 2,11,-1
 222 67 l 1,12,-1
 316 510 l 1,13,-1
 178 510 l 1,14,-1
 140 359 l 2,15,16
 131 325 131 325 103 325 c 0,17,18
 71 325 71 325 71 349 c 0,19,20
 71 353 71 353 73 361 c 2,21,-1
 115 543 l 2,22,23
 120 564 120 564 130.5 571.5 c 128,-1,24
 141 579 141 579 167 579 c 2,25,-1
 566 579 l 2,26,27
 587 579 587 579 595.5 573.5 c 128,-1,28
 604 568 604 568 604 553 c 0,29,30
 604 551 604 551 602 539 c 2,31,-1
 569 358 l 2,32,33
 563 324 563 324 532 324 c 128,-1,34
 501 324 501 324 501 350 c 0,35,36
 501 357 501 357 502 361 c 2,37,-1
 527 510 l 1,38,-1
 392 510 l 1,0,-1
EndSplineSet
EndChar
StartChar: U
Encoding: 85 85 56
Width: 602
Flags: W
LayerCount: 2
Back
Fore
SplineSet
148 512 m 1,0,-1
 124 512 l 2,1,2
 94 512 94 512 94 540 c 0,3,4
 94 579 94 579 139 579 c 2,5,-1
 283 579 l 2,6,7
 312 579 312 579 312 552 c 0,8,9
 312 512 312 512 268 512 c 2,10,-1
 224 512 l 1,11,-1
 165 220 l 2,12,13
 157 181 157 181 157 155 c 0,14,15
 157 51 157 51 266 51 c 0,16,17
 338 51 338 51 375.5 92.5 c 128,-1,18
 413 134 413 134 432 226 c 2,19,-1
 489 512 l 1,20,-1
 440 512 l 2,21,22
 410 512 410 512 410 540 c 0,23,24
 410 579 410 579 454 579 c 2,25,-1
 598 579 l 2,26,27
 627 579 627 579 627 552 c 0,28,29
 627 535 627 535 616.5 523.5 c 128,-1,30
 606 512 606 512 591 512 c 2,31,-1
 561 512 l 1,32,-1
 495 194 l 2,33,34
 452 -15 452 -15 256 -15 c 0,35,36
 173 -15 173 -15 128 28 c 128,-1,37
 83 71 83 71 83 151 c 0,38,39
 83 184 83 184 92 232 c 2,40,-1
 148 512 l 1,0,-1
EndSplineSet
EndChar
StartChar: V
Encoding: 86 86 57
Width: 607
Flags: W
LayerCount: 2
Back
Fore
SplineSet
308 33 m 2,0,1
 293 7 293 7 282 -0.5 c 128,-1,2
 271 -8 271 -8 241 -8 c 0,3,4
 217 -8 217 -8 208.5 0.5 c 128,-1,5
 200 9 200 9 195 33 c 2,6,-1
 112 512 l 1,7,-1
 93 512 l 2,8,9
 67 512 67 512 67 539 c 0,10,11
 67 579 67 579 111 579 c 2,12,-1
 267 579 l 2,13,14
 297 579 297 579 297 551 c 0,15,16
 297 512 297 512 253 512 c 2,17,-1
 187 512 l 1,18,-1
 261 81 l 1,19,-1
 509 512 l 1,20,-1
 441 512 l 2,21,22
 411 512 411 512 411 539 c 0,23,24
 411 579 411 579 456 579 c 2,25,-1
 617 579 l 2,26,27
 647 579 647 579 647 551 c 0,28,29
 647 533 647 533 636 522.5 c 128,-1,30
 625 512 625 512 608 512 c 2,31,-1
 586 512 l 1,32,-1
 308 33 l 2,0,1
EndSplineSet
EndChar
StartChar: W
Encoding: 87 87 58
Width: 602
Flags: W
LayerCount: 2
Back
Fore
SplineSet
162 36 m 2,0,1
 149 9 149 9 140 1.5 c 128,-1,2
 131 -6 131 -6 106 -6 c 0,3,4
 86 -6 86 -6 78.5 0.5 c 128,-1,5
 71 7 71 7 71 23 c 2,6,-1
 71 32 l 1,7,-1
 98 512 l 1,8,-1
 83 512 l 2,9,10
 75 512 75 512 68 519.5 c 128,-1,11
 61 527 61 527 61 539 c 0,12,13
 61 579 61 579 106 579 c 2,14,-1
 262 579 l 2,15,16
 291 579 291 579 291 551 c 0,17,18
 291 512 291 512 247 512 c 2,19,-1
 171 512 l 1,20,-1
 138 104 l 1,21,-1
 273 387 l 2,22,23
 287 416 287 416 297 428 c 128,-1,24
 307 440 307 440 320 440 c 2,25,-1
 342 440 l 2,26,27
 357 440 357 440 361.5 433 c 128,-1,28
 366 426 366 426 368 407 c 2,29,-1
 396 103 l 1,30,-1
 525 512 l 1,31,-1
 447 512 l 2,32,33
 417 512 417 512 417 539 c 0,34,35
 417 579 417 579 462 579 c 2,36,-1
 621 579 l 2,37,38
 650 579 650 579 650 551 c 0,39,40
 650 534 650 534 640 523 c 128,-1,41
 630 512 630 512 620 512 c 2,42,-1
 595 512 l 1,43,-1
 429 36 l 2,44,45
 428 33 428 33 426.5 28.5 c 128,-1,46
 425 24 425 24 424 21.5 c 128,-1,47
 423 19 423 19 421.5 15.5 c 128,-1,48
 420 12 420 12 419 10 c 128,-1,49
 418 8 418 8 416 5.5 c 128,-1,50
 414 3 414 3 412 1.5 c 128,-1,51
 410 0 410 0 407.5 -1.5 c 128,-1,52
 405 -3 405 -3 401.5 -4 c 128,-1,53
 398 -5 398 -5 393.5 -5.5 c 128,-1,54
 389 -6 389 -6 384 -6 c 0,55,56
 364 -6 364 -6 356 2.5 c 128,-1,57
 348 11 348 11 346 32 c 2,58,-1
 315 359 l 1,59,-1
 162 36 l 2,0,1
EndSplineSet
EndChar
StartChar: X
Encoding: 88 88 59
Width: 602
Flags: W
LayerCount: 2
Back
Fore
SplineSet
183 67 m 2,0,1
 212 67 212 67 212 40 c 0,2,3
 212 0 212 0 168 0 c 2,4,-1
 32 0 l 2,5,6
 3 0 3 0 3 29 c 0,7,8
 3 67 3 67 39 67 c 2,9,-1
 55 67 l 1,10,-1
 265 300 l 1,11,-1
 164 512 l 1,12,-1
 144 512 l 2,13,14
 121 512 121 512 121 537 c 0,15,16
 121 560 121 560 132 569.5 c 128,-1,17
 143 579 143 579 167 579 c 2,18,-1
 287 579 l 2,19,20
 317 579 317 579 317 551 c 0,21,22
 317 512 317 512 273 512 c 2,23,-1
 245 512 l 1,24,-1
 323 346 l 1,25,-1
 468 512 l 1,26,-1
 443 512 l 2,27,28
 413 512 413 512 413 539 c 0,29,30
 413 579 413 579 457 579 c 2,31,-1
 579 579 l 2,32,33
 609 579 609 579 609 551 c 0,34,35
 609 534 609 534 598.5 523 c 128,-1,36
 588 512 588 512 573 512 c 2,37,-1
 556 512 l 1,38,-1
 353 290 l 1,39,-1
 469 67 l 1,40,-1
 490 67 l 2,41,42
 514 67 514 67 514 40 c 0,43,44
 514 0 514 0 470 0 c 2,45,-1
 333 0 l 2,46,47
 304 0 304 0 304 28 c 0,48,49
 304 67 304 67 348 67 c 2,50,-1
 387 67 l 1,51,-1
 299 241 l 1,52,-1
 145 67 l 1,53,-1
 183 67 l 2,0,1
EndSplineSet
EndChar
StartChar: Y
Encoding: 89 89 60
Width: 602
Flags: W
LayerCount: 2
Back
Fore
SplineSet
164 512 m 1,0,-1
 131 512 l 2,1,2
 108 512 108 512 108 537 c 0,3,4
 108 560 108 560 119 569.5 c 128,-1,5
 130 579 130 579 154 579 c 2,6,-1
 298 579 l 2,7,8
 328 579 328 579 328 551 c 0,9,10
 328 512 328 512 283 512 c 2,11,-1
 242 512 l 1,12,-1
 314 298 l 1,13,-1
 479 512 l 1,14,-1
 452 512 l 2,15,16
 423 512 423 512 423 539 c 0,17,18
 423 579 423 579 467 579 c 2,19,-1
 591 579 l 2,20,21
 621 579 621 579 621 551 c 0,22,23
 621 534 621 534 610.5 523 c 128,-1,24
 600 512 600 512 585 512 c 2,25,-1
 560 512 l 1,26,-1
 334 226 l 1,27,-1
 300 67 l 1,28,-1
 391 67 l 2,29,30
 421 67 421 67 421 40 c 0,31,32
 421 0 421 0 377 0 c 2,33,-1
 116 0 l 2,34,35
 86 0 86 0 86 28 c 0,36,37
 86 67 86 67 131 67 c 2,38,-1
 225 67 l 1,39,-1
 259 227 l 1,40,-1
 164 512 l 1,0,-1
EndSplineSet
EndChar
StartChar: Z
Encoding: 90 90 61
Width: 602
Flags: W
LayerCount: 2
Back
Fore
SplineSet
378 67 m 1,0,-1
 411 195 l 2,1,2
 417 220 417 220 426.5 230 c 128,-1,3
 436 240 436 240 454 240 c 0,4,5
 483 240 483 240 483 216 c 0,6,7
 483 211 483 211 479 195 c 2,8,-1
 441 37 l 2,9,10
 435 11 435 11 425 5.5 c 128,-1,11
 415 0 415 0 384 0 c 2,12,-1
 106 0 l 2,13,14
 57 0 57 0 57 34 c 0,15,16
 57 40 57 40 58.5 46.5 c 128,-1,17
 60 53 60 53 62 57.5 c 128,-1,18
 64 62 64 62 69.5 69 c 128,-1,19
 75 76 75 76 77.5 79 c 128,-1,20
 80 82 80 82 88.5 91.5 c 128,-1,21
 97 101 97 101 100 105 c 2,22,-1
 455 512 l 1,23,-1
 251 512 l 1,24,-1
 222 397 l 2,25,26
 216 372 216 372 206.5 362 c 128,-1,27
 197 352 197 352 178 352 c 0,28,29
 149 352 149 352 149 375 c 0,30,31
 149 376 149 376 154 396 c 2,32,-1
 189 542 l 2,33,34
 195 568 195 568 205 573.5 c 128,-1,35
 215 579 215 579 245 579 c 2,36,-1
 509 579 l 2,37,38
 558 579 558 579 558 544 c 0,39,40
 558 524 558 524 523 484 c 2,41,-1
 158 67 l 1,42,-1
 378 67 l 1,0,-1
EndSplineSet
EndChar
StartChar: bracketleft
Encoding: 91 91 62
Width: 602
Flags: W
LayerCount: 2
Back
Fore
SplineSet
334 -122 m 2,0,1
 360 -122 360 -122 360 -148 c 0,2,3
 360 -182 360 -182 308 -182 c 2,4,-1
 227 -182 l 2,5,6
 193 -182 193 -182 179 -176.5 c 128,-1,7
 165 -171 165 -171 165 -153 c 0,8,9
 165 -149 165 -149 167 -139 c 2,10,-1
 316 542 l 2,11,12
 324 579 324 579 361 579 c 2,13,-1
 486 579 l 2,14,15
 511 579 511 579 511 553 c 0,16,17
 511 519 511 519 460 519 c 2,18,-1
 387 519 l 1,19,-1
 247 -122 l 1,20,-1
 334 -122 l 2,0,1
EndSplineSet
EndChar
StartChar: bracketright
Encoding: 93 93 64
Width: 602
Flags: W
LayerCount: 2
Back
Fore
SplineSet
260 519 m 2,0,1
 235 519 235 519 235 544 c 0,2,3
 235 579 235 579 286 579 c 2,4,-1
 368 579 l 2,5,6
 401 579 401 579 415 573 c 128,-1,7
 429 567 429 567 429 549 c 0,8,9
 429 545 429 545 427 535 c 2,10,-1
 279 -146 l 2,11,12
 272 -182 272 -182 233 -182 c 2,13,-1
 108 -182 l 2,14,15
 83 -182 83 -182 83 -157 c 0,16,17
 83 -122 83 -122 134 -122 c 2,18,-1
 207 -122 l 1,19,-1
 348 519 l 1,20,-1
 260 519 l 2,0,1
EndSplineSet
EndChar
StartChar: asciicircum
Encoding: 94 94 65
Width: 602
Flags: W
LayerCount: 2
Back
Fore
SplineSet
334 664 m 2,0,-1
 469 492 l 2,1,2
 475 483 475 483 475 474 c 0,3,4
 475 463 475 463 467.5 456 c 128,-1,5
 460 449 460 449 450 449 c 0,6,7
 442 449 442 449 437 454 c 2,8,-1
 301 590 l 1,9,-1
 165 454 l 2,10,11
 160 449 160 449 152 449 c 0,12,13
 142 449 142 449 134.5 456 c 128,-1,14
 127 463 127 463 127 474 c 0,15,16
 127 483 127 483 133 492 c 2,17,-1
 269 664 l 2,18,19
 278 676 278 676 301 676 c 128,-1,20
 324 676 324 676 334 664 c 2,0,-1
EndSplineSet
EndChar
StartChar: grave
Encoding: 96 96 126
Width: 602
Flags: W
LayerCount: 2
Back
Fore
SplineSet
455 515 m 1,0,-1
 207 583 l 2,1,2
 193 586 193 586 193 602 c 0,3,4
 193 605 193 605 195 611 c 2,5,-1
 207 642 l 2,6,7
 215 660 215 660 228 660 c 0,8,9
 231 660 231 660 235 658 c 2,10,-1
 465 542 l 1,11,-1
 455 515 l 1,0,-1
EndSplineSet
EndChar
StartChar: a
Encoding: 97 97 68
Width: 602
Flags: W
LayerCount: 2
Back
Fore
SplineSet
420 0 m 2,0,1
 393 0 393 0 384 6 c 128,-1,2
 375 12 375 12 375 33 c 0,3,4
 375 46 375 46 383 81 c 1,5,6
 302 -9 302 -9 199 -9 c 0,7,8
 133 -9 133 -9 93.5 27 c 128,-1,9
 54 63 54 63 54 121 c 0,10,11
 54 193 54 193 124.5 242.5 c 128,-1,12
 195 292 195 292 308 292 c 0,13,14
 359 292 359 292 418 275 c 1,15,16
 426 307 426 307 426 326 c 0,17,18
 426 397 426 397 345 397 c 0,19,20
 303 397 303 397 251 376.5 c 128,-1,21
 199 356 199 356 189 356 c 0,22,23
 175 356 175 356 166 364 c 128,-1,24
 157 372 157 372 157 384 c 0,25,26
 157 414 157 414 215.5 438.5 c 128,-1,27
 274 463 274 463 354 463 c 0,28,29
 427 463 427 463 465 432 c 128,-1,30
 503 401 503 401 503 346 c 0,31,32
 503 325 503 325 499 308 c 2,33,-1
 447 67 l 1,34,-1
 494 67 l 2,35,36
 523 67 523 67 523 39 c 0,37,38
 523 0 523 0 481 0 c 2,39,-1
 420 0 l 2,0,1
405 217 m 1,40,41
 354 233 354 233 311 233 c 0,42,43
 228 233 228 233 180.5 203 c 128,-1,44
 133 173 133 173 133 128 c 0,45,46
 133 98 133 98 154.5 80 c 128,-1,47
 176 62 176 62 215 62 c 0,48,49
 279 62 279 62 334.5 100.5 c 128,-1,50
 390 139 390 139 400 190 c 2,51,-1
 405 217 l 1,40,41
EndSplineSet
EndChar
StartChar: b
Encoding: 98 98 69
Width: 602
Flags: W
LayerCount: 2
Back
Fore
SplineSet
200 381 m 1,0,1
 279 451 279 451 373 451 c 0,2,3
 458 451 458 451 509.5 399 c 128,-1,4
 561 347 561 347 561 260 c 0,5,6
 561 146 561 146 482 66.5 c 128,-1,7
 403 -13 403 -13 292 -13 c 0,8,9
 182 -13 182 -13 133 62 c 1,10,-1
 127 33 l 2,11,12
 120 0 120 0 83 0 c 2,13,-1
 20 0 l 2,14,15
 -9 0 -9 0 -9 27 c 0,16,17
 -9 67 -9 67 34 67 c 2,18,-1
 62 67 l 1,19,-1
 168 572 l 1,20,-1
 137 572 l 2,21,22
 108 572 108 572 108 600 c 0,23,24
 108 639 108 639 152 639 c 2,25,-1
 229 639 l 2,26,27
 252 639 252 639 252 624 c 0,28,29
 252 618 252 618 251 615 c 2,30,-1
 200 381 l 1,0,1
359 385 m 0,31,32
 273 385 273 385 217.5 326.5 c 128,-1,33
 162 268 162 268 162 176 c 0,34,35
 162 121 162 121 198.5 87 c 128,-1,36
 235 53 235 53 294 53 c 0,37,38
 373 53 373 53 426.5 112 c 128,-1,39
 480 171 480 171 480 262 c 0,40,41
 480 318 480 318 446.5 351.5 c 128,-1,42
 413 385 413 385 359 385 c 0,31,32
EndSplineSet
EndChar
StartChar: c
Encoding: 99 99 70
Width: 602
Flags: W
LayerCount: 2
Back
Fore
SplineSet
500 404 m 1,0,-1
 506 430 l 2,1,2
 512 455 512 455 539 455 c 0,3,4
 573 455 573 455 573 431 c 0,5,6
 573 426 573 426 572 423 c 2,7,-1
 547 305 l 2,8,9
 538 266 538 266 505 266 c 0,10,11
 488 266 488 266 481 275 c 128,-1,12
 474 284 474 284 469 305.5 c 128,-1,13
 464 327 464 327 458 338 c 0,14,15
 427 395 427 395 347 395 c 0,16,17
 265 395 265 395 205.5 334 c 128,-1,18
 146 273 146 273 146 193 c 0,19,20
 146 132 146 132 183 94.5 c 128,-1,21
 220 57 220 57 283 57 c 0,22,23
 349 57 349 57 412 102 c 0,24,25
 417 106 417 106 427.5 114 c 128,-1,26
 438 122 438 122 443 125 c 128,-1,27
 448 128 448 128 455.5 133 c 128,-1,28
 463 138 463 138 469.5 139.5 c 128,-1,29
 476 141 476 141 482 141 c 0,30,31
 509 141 509 141 509 113 c 0,32,33
 509 89 509 89 461 54 c 0,34,35
 372 -12 372 -12 276 -12 c 0,36,37
 177 -12 177 -12 120.5 43.5 c 128,-1,38
 64 99 64 99 64 195 c 0,39,40
 64 300 64 300 149 381.5 c 128,-1,41
 234 463 234 463 355 463 c 0,42,43
 448 463 448 463 500 404 c 1,0,-1
EndSplineSet
EndChar
StartChar: d
Encoding: 100 100 71
Width: 602
Flags: W
LayerCount: 2
Back
Fore
SplineSet
423 0 m 2,0,1
 400 0 400 0 400 15 c 0,2,3
 400 21 400 21 401 24 c 2,4,-1
 415 73 l 1,5,6
 339 -11 339 -11 228 -11 c 0,7,8
 143 -11 143 -11 91 41.5 c 128,-1,9
 39 94 39 94 39 183 c 0,10,11
 39 301 39 301 118.5 382.5 c 128,-1,12
 198 464 198 464 311 464 c 0,13,14
 418 464 418 464 470 389 c 1,15,-1
 510 572 l 1,16,-1
 446 572 l 2,17,18
 416 572 416 572 416 600 c 0,19,20
 416 639 416 639 460 639 c 2,21,-1
 561 639 l 2,22,23
 591 639 591 639 591 613 c 0,24,25
 591 608 591 608 590 605 c 2,26,-1
 474 67 l 1,27,-1
 509 67 l 2,28,29
 539 67 539 67 539 39 c 0,30,31
 539 0 539 0 495 0 c 2,32,-1
 423 0 l 2,0,1
121 187 m 0,33,34
 121 124 121 124 154.5 89.5 c 128,-1,35
 188 55 188 55 248 55 c 0,36,37
 330 55 330 55 385.5 116 c 128,-1,38
 441 177 441 177 441 276 c 0,39,40
 441 331 441 331 405 364.5 c 128,-1,41
 369 398 369 398 310 398 c 0,42,43
 231 398 231 398 176 337 c 128,-1,44
 121 276 121 276 121 187 c 0,33,34
EndSplineSet
EndChar
StartChar: e
Encoding: 101 101 72
Width: 602
Flags: W
LayerCount: 2
Back
Fore
SplineSet
143 205 m 1,0,1
 143 205 143 205 143 187 c 0,2,3
 143 124 143 124 180 88 c 128,-1,4
 217 52 217 52 284 52 c 0,5,6
 330 52 330 52 372.5 69 c 128,-1,7
 415 86 415 86 445 102.5 c 128,-1,8
 475 119 475 119 492 119 c 0,9,10
 520 119 520 119 520 94 c 0,11,12
 520 70 520 70 460 37 c 0,13,14
 370 -12 370 -12 279 -12 c 0,15,16
 180 -12 180 -12 122 43.5 c 128,-1,17
 64 99 64 99 64 191 c 0,18,19
 64 302 64 302 147 382.5 c 128,-1,20
 230 463 230 463 348 463 c 0,21,22
 441 463 441 463 496 408.5 c 128,-1,23
 551 354 551 354 551 262 c 0,24,25
 551 224 551 224 537.5 214.5 c 128,-1,26
 524 205 524 205 488 205 c 2,27,-1
 143 205 l 1,0,1
151 269 m 1,28,-1
 476 269 l 1,29,-1
 476 274 l 2,30,31
 476 335 476 335 442 367 c 128,-1,32
 408 399 408 399 343 399 c 0,33,34
 277 399 277 399 226.5 365 c 128,-1,35
 176 331 176 331 151 269 c 1,28,-1
EndSplineSet
EndChar
StartChar: f
Encoding: 102 102 73
Width: 602
Flags: W
LayerCount: 2
Back
Fore
SplineSet
264 369 m 1,0,-1
 181 369 l 2,1,2
 152 369 152 369 152 397 c 0,3,4
 152 436 152 436 196 436 c 2,5,-1
 277 436 l 1,6,-1
 284 467 l 2,7,8
 295 514 295 514 305.5 540.5 c 128,-1,9
 316 567 316 567 337.5 592.5 c 128,-1,10
 359 618 359 618 395 628.5 c 128,-1,11
 431 639 431 639 487 639 c 0,12,13
 558 639 558 639 588.5 630 c 128,-1,14
 619 621 619 621 619 596 c 0,15,16
 619 578 619 578 607 566.5 c 128,-1,17
 595 555 595 555 575 555 c 0,18,19
 562 555 562 555 528.5 562.5 c 128,-1,20
 495 570 495 570 473 570 c 0,21,22
 418 570 418 570 395 547 c 128,-1,23
 372 524 372 524 360 472 c 2,24,-1
 351 436 l 1,25,-1
 518 436 l 2,26,27
 548 436 548 436 548 408 c 0,28,29
 548 369 548 369 504 369 c 2,30,-1
 337 369 l 1,31,-1
 273 67 l 1,32,-1
 434 67 l 2,33,34
 464 67 464 67 464 39 c 0,35,36
 464 0 464 0 419 0 c 2,37,-1
 102 0 l 2,38,39
 73 0 73 0 73 27 c 0,40,41
 73 67 73 67 116 67 c 2,42,-1
 200 67 l 1,43,-1
 264 369 l 1,0,-1
EndSplineSet
EndChar
StartChar: g
Encoding: 103 103 74
Width: 602
Flags: W
LayerCount: 2
Back
Fore
SplineSet
313 397 m 0,0,1
 242 397 242 397 192.5 341.5 c 128,-1,2
 143 286 143 286 143 202 c 0,3,4
 143 147 143 147 174 116 c 128,-1,5
 205 85 205 85 259 85 c 0,6,7
 327 85 327 85 378 143 c 128,-1,8
 429 201 429 201 429 287 c 0,9,10
 429 335 429 335 397 366 c 128,-1,11
 365 397 365 397 313 397 c 0,0,1
392 86 m 1,12,13
 330 20 330 20 239 20 c 0,14,15
 164 20 164 20 113 69 c 128,-1,16
 62 118 62 118 62 200 c 0,17,18
 62 311 62 311 136.5 387 c 128,-1,19
 211 463 211 463 314 463 c 0,20,21
 415 463 415 463 457 391 c 1,22,-1
 462 424 l 2,23,24
 466 451 466 451 486 451 c 2,25,-1
 569 451 l 2,26,27
 598 451 598 451 598 423 c 0,28,29
 598 384 598 384 554 384 c 2,30,-1
 524 384 l 1,31,-1
 439 -15 l 2,32,33
 419 -108 419 -108 362 -151.5 c 128,-1,34
 305 -195 305 -195 201 -195 c 0,35,36
 142 -195 142 -195 116.5 -186 c 128,-1,37
 91 -177 91 -177 91 -152 c 0,38,39
 91 -136 91 -136 104.5 -124 c 128,-1,40
 118 -112 118 -112 137 -112 c 0,41,42
 147 -112 147 -112 175.5 -116.5 c 128,-1,43
 204 -121 204 -121 223 -121 c 0,44,45
 302 -121 302 -121 337 -75 c 128,-1,46
 372 -29 372 -29 392 86 c 1,12,13
EndSplineSet
EndChar
StartChar: h
Encoding: 104 104 75
Width: 602
Flags: W
LayerCount: 2
Back
Fore
SplineSet
461 67 m 1,0,-1
 491 67 l 2,1,2
 521 67 521 67 521 39 c 0,3,4
 521 0 521 0 477 0 c 2,5,-1
 347 0 l 2,6,7
 318 0 318 0 318 27 c 0,8,9
 318 67 318 67 362 67 c 2,10,-1
 389 67 l 1,11,-1
 435 284 l 2,12,13
 442 314 442 314 442 326 c 0,14,15
 442 392 442 392 365 392 c 0,16,17
 310 392 310 392 261.5 355 c 128,-1,18
 213 318 213 318 201 262 c 2,19,-1
 160 67 l 1,20,-1
 191 67 l 2,21,22
 220 67 220 67 220 39 c 0,23,24
 220 0 220 0 176 0 c 2,25,-1
 46 0 l 2,26,27
 17 0 17 0 17 27 c 0,28,29
 17 67 17 67 61 67 c 2,30,-1
 88 67 l 1,31,-1
 195 572 l 1,32,-1
 165 572 l 2,33,34
 135 572 135 572 135 600 c 0,35,36
 135 639 135 639 179 639 c 2,37,-1
 256 639 l 2,38,39
 279 639 279 639 279 624 c 0,40,41
 279 618 279 618 278 615 c 2,42,-1
 229 392 l 1,43,44
 308 463 308 463 391 463 c 0,45,46
 449 463 449 463 483 430 c 128,-1,47
 517 397 517 397 517 344 c 0,48,49
 517 325 517 325 513 309 c 2,50,-1
 461 67 l 1,0,-1
EndSplineSet
EndChar
StartChar: i
Encoding: 105 105 76
Width: 602
Flags: W
LayerCount: 2
Back
Fore
SplineSet
319 67 m 1,0,-1
 474 67 l 2,1,2
 504 67 504 67 504 39 c 0,3,4
 504 0 504 0 459 0 c 2,5,-1
 86 0 l 2,6,7
 57 0 57 0 57 27 c 0,8,9
 57 67 57 67 100 67 c 2,10,-1
 247 67 l 1,11,-1
 314 384 l 1,12,-1
 216 384 l 2,13,14
 186 384 186 384 186 412 c 0,15,16
 186 451 186 451 230 451 c 2,17,-1
 375 451 l 2,18,19
 397 451 397 451 397 437 c 0,20,21
 397 432 397 432 396 428 c 2,22,-1
 319 67 l 1,0,-1
411 670 m 0,23,24
 431 670 431 670 438.5 663 c 128,-1,25
 446 656 446 656 446 639 c 0,26,27
 446 585 446 585 429 564.5 c 128,-1,28
 412 544 412 544 378 544 c 0,29,30
 358 544 358 544 350 551 c 128,-1,31
 342 558 342 558 342 575 c 0,32,33
 342 629 342 629 359 649.5 c 128,-1,34
 376 670 376 670 411 670 c 0,23,24
EndSplineSet
EndChar
StartChar: j
Encoding: 106 106 77
Width: 602
Flags: W
LayerCount: 2
Back
Fore
SplineSet
369 384 m 1,0,-1
 150 384 l 2,1,2
 120 384 120 384 120 412 c 0,3,4
 120 451 120 451 165 451 c 2,5,-1
 430 451 l 2,6,7
 452 451 452 451 452 438 c 0,8,9
 452 432 452 432 451 428 c 2,10,-1
 355 -15 l 2,11,12
 316 -195 316 -195 114 -195 c 0,13,14
 55 -195 55 -195 29 -186 c 128,-1,15
 3 -177 3 -177 3 -152 c 0,16,17
 3 -136 3 -136 17 -124 c 128,-1,18
 31 -112 31 -112 50 -112 c 0,19,20
 60 -112 60 -112 88.5 -116.5 c 128,-1,21
 117 -121 117 -121 136 -121 c 0,22,23
 172 -121 172 -121 197.5 -112 c 128,-1,24
 223 -103 223 -103 239 -89 c 128,-1,25
 255 -75 255 -75 268 -45.5 c 128,-1,26
 281 -16 281 -16 288 10.5 c 128,-1,27
 295 37 295 37 306 86 c 2,28,-1
 369 384 l 1,0,-1
427 670 m 0,29,30
 447 670 447 670 454.5 663 c 128,-1,31
 462 656 462 656 462 639 c 0,32,33
 462 586 462 586 445 565 c 128,-1,34
 428 544 428 544 393 544 c 0,35,36
 373 544 373 544 365.5 551 c 128,-1,37
 358 558 358 558 358 575 c 0,38,39
 358 629 358 629 375 649.5 c 128,-1,40
 392 670 392 670 427 670 c 0,29,30
EndSplineSet
EndChar
StartChar: k
Encoding: 107 107 78
Width: 602
Flags: W
LayerCount: 2
Back
Fore
SplineSet
212 265 m 1,0,-1
 384 390 l 1,1,2
 355 394 355 394 355 416 c 0,3,4
 355 432 355 432 366 441.5 c 128,-1,5
 377 451 377 451 396 451 c 2,6,-1
 544 451 l 2,7,8
 561 451 561 451 567.5 445.5 c 128,-1,9
 574 440 574 440 574 424 c 0,10,11
 574 414 574 414 571.5 407.5 c 128,-1,12
 569 401 569 401 561.5 397.5 c 128,-1,13
 554 394 554 394 549 393 c 128,-1,14
 544 392 544 392 531.5 390 c 128,-1,15
 519 388 519 388 514 387 c 0,16,17
 495 383 495 383 473.5 372.5 c 128,-1,18
 452 362 452 362 441 355 c 128,-1,19
 430 348 430 348 403 328 c 2,20,-1
 312 264 l 1,21,-1
 450 67 l 1,22,-1
 495 67 l 2,23,24
 525 67 525 67 525 39 c 0,25,26
 525 0 525 0 481 0 c 2,27,-1
 366 0 l 2,28,29
 347 0 347 0 336.5 9 c 128,-1,30
 326 18 326 18 326 32 c 0,31,32
 326 47 326 47 338 56.5 c 128,-1,33
 350 66 350 66 371 67 c 1,34,-1
 259 226 l 1,35,-1
 196 183 l 1,36,-1
 166 40 l 2,37,38
 162 22 162 22 150.5 11 c 128,-1,39
 139 0 139 0 124 0 c 2,40,-1
 57 0 l 2,41,42
 28 0 28 0 28 27 c 0,43,44
 28 67 28 67 72 67 c 2,45,-1
 100 67 l 1,46,-1
 206 572 l 1,47,-1
 176 572 l 2,48,49
 146 572 146 572 146 600 c 0,50,51
 146 639 146 639 191 639 c 2,52,-1
 267 639 l 2,53,54
 291 639 291 639 291 623 c 0,55,56
 291 618 291 618 290 615 c 2,57,-1
 212 265 l 1,0,-1
EndSplineSet
EndChar
StartChar: l
Encoding: 108 108 79
Width: 602
Flags: W
LayerCount: 2
Back
Fore
SplineSet
212 0 m 1,0,-1
 444 0 l 2,1,2
 489 0 489 0 489 39 c 0,3,4
 489 67 489 67 459 67 c 2,5,-1
 310 67 l 1,6,-1
 428 615 l 2,7,8
 429 618 429 618 429 624 c 0,9,10
 429 639 429 639 406 639 c 2,11,-1
 245 639 l 2,12,13
 201 639 201 639 201 600 c 0,14,15
 201 572 201 572 231 572 c 2,16,-1
 345 572 l 1,17,-1
 228 72 l 1,18,-1
 212 0 l 1,0,-1
EndSplineSet
EndChar
StartChar: m
Encoding: 109 109 80
Width: 602
Flags: W
LayerCount: 2
Back
Fore
SplineSet
109 67 m 1,0,-1
 140 67 l 2,1,2
 169 67 169 67 169 39 c 0,3,4
 169 0 169 0 125 0 c 2,5,-1
 -5 0 l 2,6,7
 -34 0 -34 0 -34 27 c 0,8,9
 -34 67 -34 67 10 67 c 2,10,-1
 37 67 l 1,11,-1
 105 384 l 1,12,-1
 74 384 l 2,13,14
 44 384 44 384 44 412 c 0,15,16
 44 451 44 451 89 451 c 2,17,-1
 151 451 l 2,18,19
 178 451 178 451 178 433 c 0,20,21
 178 432 178 432 177.5 430.5 c 128,-1,22
 177 429 177 429 177 428 c 2,23,-1
 172 400 l 1,24,25
 222 463 222 463 282 463 c 0,26,27
 315 463 315 463 335.5 445 c 128,-1,28
 356 427 356 427 360 394 c 1,29,30
 405 463 405 463 475 463 c 0,31,32
 519 463 519 463 546.5 436 c 128,-1,33
 574 409 574 409 574 366 c 0,34,35
 574 345 574 345 570 328 c 2,36,-1
 514 67 l 1,37,-1
 536 67 l 2,38,39
 566 67 566 67 566 39 c 0,40,41
 566 0 566 0 522 0 c 2,42,-1
 458 0 l 2,43,44
 448 0 448 0 441 7 c 128,-1,45
 434 14 434 14 434 24 c 0,46,47
 434 29 434 29 435 31 c 2,48,-1
 495 314 l 2,49,50
 498 326 498 326 498 342 c 0,51,52
 498 391 498 391 453 391 c 0,53,54
 421 391 421 391 396 365.5 c 128,-1,55
 371 340 371 340 361 293 c 2,56,-1
 313 67 l 1,57,-1
 335 67 l 2,58,59
 365 67 365 67 365 39 c 0,60,61
 365 0 365 0 321 0 c 2,62,-1
 258 0 l 2,63,64
 248 0 248 0 241 7 c 128,-1,65
 234 14 234 14 234 24 c 0,66,67
 234 29 234 29 235 31 c 2,68,-1
 293 303 l 2,69,70
 298 326 298 326 298 345 c 0,71,72
 298 367 298 367 285 379.5 c 128,-1,73
 272 392 272 392 250 392 c 0,74,75
 218 392 218 392 193 367.5 c 128,-1,76
 168 343 168 343 158 297 c 2,77,-1
 109 67 l 1,0,-1
EndSplineSet
EndChar
StartChar: o
Encoding: 111 111 82
Width: 602
Flags: W
LayerCount: 2
Back
Fore
SplineSet
48 189 m 0,0,1
 48 303 48 303 130 383.5 c 128,-1,2
 212 464 212 464 333 464 c 0,3,4
 434 464 434 464 494 409 c 128,-1,5
 554 354 554 354 554 263 c 0,6,7
 554 148 554 148 472.5 68 c 128,-1,8
 391 -12 391 -12 269 -12 c 0,9,10
 168 -12 168 -12 108 43 c 128,-1,11
 48 98 48 98 48 189 c 0,0,1
328 398 m 0,12,13
 243 398 243 398 186 337.5 c 128,-1,14
 129 277 129 277 129 191 c 0,15,16
 129 126 129 126 167.5 89 c 128,-1,17
 206 52 206 52 274 52 c 0,18,19
 359 52 359 52 415.5 112.5 c 128,-1,20
 472 173 472 173 472 261 c 0,21,22
 472 324 472 324 433.5 361 c 128,-1,23
 395 398 395 398 328 398 c 0,12,13
EndSplineSet
EndChar
StartChar: p
Encoding: 112 112 83
Width: 602
Flags: W
LayerCount: 2
Back
Fore
SplineSet
483 271 m 0,0,1
 483 330 483 330 449 363.5 c 128,-1,2
 415 397 415 397 356 397 c 0,3,4
 277 397 277 397 221.5 338 c 128,-1,5
 166 279 166 279 166 187 c 0,6,7
 166 132 166 132 202 98.5 c 128,-1,8
 238 65 238 65 297 65 c 0,9,10
 376 65 376 65 429.5 124 c 128,-1,11
 483 183 483 183 483 271 c 0,0,1
93 -127 m 1,12,-1
 201 -127 l 2,13,14
 231 -127 231 -127 231 -156 c 0,15,16
 231 -194 231 -194 186 -194 c 2,17,-1
 -26 -194 l 2,18,19
 -55 -194 -55 -194 -55 -167 c 0,20,21
 -55 -127 -55 -127 -11 -127 c 2,22,-1
 21 -127 l 1,23,-1
 130 384 l 1,24,-1
 95 384 l 2,25,26
 65 384 65 384 65 412 c 0,27,28
 65 451 65 451 109 451 c 2,29,-1
 191 451 l 2,30,31
 215 451 215 451 215 437 c 0,32,33
 215 436 215 436 213 428 c 2,34,-1
 203 392 l 1,35,36
 282 462 282 462 375 462 c 0,37,38
 460 462 460 462 512 410 c 128,-1,39
 564 358 564 358 564 271 c 0,40,41
 564 157 564 157 485.5 78 c 128,-1,42
 407 -1 407 -1 295 -1 c 0,43,44
 186 -1 186 -1 136 74 c 1,45,-1
 93 -127 l 1,12,-1
EndSplineSet
EndChar
StartChar: q
Encoding: 113 113 84
Width: 602
Flags: W
LayerCount: 2
Back
Fore
SplineSet
306 398 m 0,0,1
 226 398 226 398 171.5 338.5 c 128,-1,2
 117 279 117 279 117 191 c 0,3,4
 117 131 117 131 151 97 c 128,-1,5
 185 63 185 63 244 63 c 0,6,7
 325 63 325 63 381.5 124 c 128,-1,8
 438 185 438 185 438 274 c 0,9,10
 438 330 438 330 402 364 c 128,-1,11
 366 398 366 398 306 398 c 0,0,1
356 -127 m 1,12,-1
 397 67 l 1,13,14
 328 -2 328 -2 223 -2 c 0,15,16
 138 -2 138 -2 86.5 50 c 128,-1,17
 35 102 35 102 35 188 c 0,18,19
 35 301 35 301 113.5 382.5 c 128,-1,20
 192 464 192 464 306 464 c 0,21,22
 415 464 415 464 465 389 c 1,23,-1
 474 424 l 2,24,25
 480 451 480 451 498 451 c 2,26,-1
 581 451 l 2,27,28
 611 451 611 451 611 423 c 0,29,30
 611 384 611 384 566 384 c 2,31,-1
 536 384 l 1,32,-1
 428 -127 l 1,33,-1
 458 -127 l 2,34,35
 488 -127 488 -127 488 -156 c 0,36,37
 488 -194 488 -194 444 -194 c 2,38,-1
 262 -194 l 2,39,40
 233 -194 233 -194 233 -167 c 0,41,42
 233 -127 233 -127 277 -127 c 2,43,-1
 356 -127 l 1,12,-1
EndSplineSet
EndChar
StartChar: r
Encoding: 114 114 85
Width: 602
Flags: W
LayerCount: 2
Back
Fore
SplineSet
288 347 m 1,0,1
 404 463 404 463 511 463 c 0,2,3
 552 463 552 463 575 446.5 c 128,-1,4
 598 430 598 430 598 403 c 0,5,6
 598 382 598 382 582.5 367 c 128,-1,7
 567 352 567 352 547 352 c 0,8,9
 537 352 537 352 514 367.5 c 128,-1,10
 491 383 491 383 470 383 c 0,11,12
 397 383 397 383 272 269 c 1,13,-1
 228 67 l 1,14,-1
 397 67 l 2,15,16
 426 67 426 67 426 39 c 0,17,18
 426 0 426 0 382 0 c 2,19,-1
 71 0 l 2,20,21
 42 0 42 0 42 27 c 0,22,23
 42 67 42 67 85 67 c 2,24,-1
 157 67 l 1,25,-1
 224 384 l 1,26,-1
 150 384 l 2,27,28
 121 384 121 384 121 412 c 0,29,30
 121 451 121 451 165 451 c 2,31,-1
 285 451 l 2,32,33
 308 451 308 451 308 437 c 0,34,35
 308 431 308 431 307 428 c 2,36,-1
 288 347 l 1,0,1
EndSplineSet
EndChar
StartChar: s
Encoding: 115 115 86
Width: 602
Flags: W
LayerCount: 2
Back
Fore
SplineSet
145 14 m 1,0,1
 103 -11 103 -11 88 -11 c 0,2,3
 60 -11 60 -11 60 17 c 0,4,5
 60 23 60 23 63 35 c 2,6,-1
 87 129 l 2,7,8
 96 162 96 162 118 162 c 0,9,10
 133 162 133 162 139.5 152.5 c 128,-1,11
 146 143 146 143 150 126 c 128,-1,12
 154 109 154 109 159 101 c 0,13,14
 174 77 174 77 210 62.5 c 128,-1,15
 246 48 246 48 296 48 c 0,16,17
 357 48 357 48 391.5 73 c 128,-1,18
 426 98 426 98 426 138 c 0,19,20
 426 151 426 151 423 159.5 c 128,-1,21
 420 168 420 168 412.5 174 c 128,-1,22
 405 180 405 180 397 183 c 128,-1,23
 389 186 389 186 373 188 c 128,-1,24
 357 190 357 190 343.5 190.5 c 128,-1,25
 330 191 330 191 305.5 192 c 128,-1,26
 281 193 281 193 262 195 c 0,27,28
 124 207 124 207 124 311 c 0,29,30
 124 381 124 381 177 422.5 c 128,-1,31
 230 464 230 464 327 464 c 0,32,33
 367 464 367 464 410.5 452.5 c 128,-1,34
 454 441 454 441 460 441 c 0,35,36
 470 441 470 441 484 450.5 c 128,-1,37
 498 460 498 460 508 460 c 0,38,39
 535 460 535 460 535 433 c 0,40,41
 535 427 535 427 534 423 c 2,42,-1
 517 340 l 2,43,44
 510 303 510 303 484 303 c 0,45,46
 470 303 470 303 461 312.5 c 128,-1,47
 452 322 452 322 441 339.5 c 128,-1,48
 430 357 430 357 419 367 c 0,49,50
 380 402 380 402 317 402 c 0,51,52
 263 402 263 402 231.5 381.5 c 128,-1,53
 200 361 200 361 200 331 c 0,54,55
 200 317 200 317 203.5 307 c 128,-1,56
 207 297 207 297 216 290.5 c 128,-1,57
 225 284 225 284 233.5 280 c 128,-1,58
 242 276 242 276 259.5 274 c 128,-1,59
 277 272 277 272 289.5 271 c 128,-1,60
 302 270 302 270 327 268.5 c 128,-1,61
 352 267 352 267 368 266 c 0,62,63
 503 256 503 256 503 148 c 0,64,65
 503 76 503 76 448.5 32.5 c 128,-1,66
 394 -11 394 -11 296 -11 c 0,67,68
 217 -11 217 -11 145 14 c 1,0,1
EndSplineSet
EndChar
StartChar: t
Encoding: 116 116 87
Width: 602
Flags: W
LayerCount: 2
Back
Fore
SplineSet
184 355 m 1,0,-1
 115 355 l 2,1,2
 94 355 94 355 85.5 360.5 c 128,-1,3
 77 366 77 366 77 383 c 0,4,5
 77 424 77 424 130 424 c 2,6,-1
 198 424 l 1,7,-1
 224 541 l 2,8,9
 235 591 235 591 268 591 c 0,10,11
 282 591 282 591 292.5 581.5 c 128,-1,12
 303 572 303 572 303 560 c 0,13,14
 303 554 303 554 299 535 c 2,15,-1
 275 424 l 1,16,-1
 461 424 l 2,17,18
 481 424 481 424 490 418 c 128,-1,19
 499 412 499 412 499 395 c 0,20,21
 499 355 499 355 446 355 c 2,22,-1
 260 355 l 1,23,-1
 219 155 l 2,24,25
 214 132 214 132 214 121 c 0,26,27
 214 92 214 92 231.5 75.5 c 128,-1,28
 249 59 249 59 281 59 c 0,29,30
 334 59 334 59 396.5 83.5 c 128,-1,31
 459 108 459 108 468 108 c 0,32,33
 484 108 484 108 494 100 c 128,-1,34
 504 92 504 92 504 80 c 0,35,36
 504 61 504 61 490 49.5 c 128,-1,37
 476 38 476 38 441 25 c 0,38,39
 354 -9 354 -9 273 -9 c 0,40,41
 137 -9 137 -9 137 105 c 0,42,43
 137 128 137 128 143 156 c 2,44,-1
 184 355 l 1,0,-1
EndSplineSet
EndChar
StartChar: u
Encoding: 117 117 88
Width: 602
Flags: W
LayerCount: 2
Back
Fore
SplineSet
394 384 m 2,0,1
 364 384 364 384 364 412 c 0,2,3
 364 451 364 451 409 451 c 2,4,-1
 511 451 l 2,5,6
 534 451 534 451 534 437 c 0,7,8
 534 431 534 431 533 428 c 2,9,-1
 456 67 l 1,10,-1
 487 67 l 2,11,12
 516 67 516 67 516 39 c 0,13,14
 516 0 516 0 472 0 c 2,15,-1
 395 0 l 2,16,17
 371 0 371 0 371 15 c 0,18,19
 371 16 371 16 373 24 c 2,20,-1
 383 59 l 1,21,22
 305 -12 305 -12 214 -12 c 0,23,24
 159 -12 159 -12 123 19.5 c 128,-1,25
 87 51 87 51 87 98 c 0,26,27
 87 118 87 118 92 143 c 2,28,-1
 144 384 l 1,29,-1
 114 384 l 2,30,31
 84 384 84 384 84 412 c 0,32,33
 84 451 84 451 128 451 c 2,34,-1
 204 451 l 2,35,36
 227 451 227 451 227 437 c 0,37,38
 227 431 227 431 226 428 c 2,39,-1
 170 168 l 2,40,41
 163 133 163 133 163 124 c 0,42,43
 163 58 163 58 241 58 c 0,44,45
 300 58 300 58 349 96 c 128,-1,46
 398 134 398 134 410 190 c 2,47,-1
 452 384 l 1,48,-1
 394 384 l 2,0,1
EndSplineSet
EndChar
StartChar: v
Encoding: 118 118 89
Width: 602
Flags: W
LayerCount: 2
Back
Fore
SplineSet
250 68 m 1,0,-1
 447 384 l 1,1,-1
 401 384 l 2,2,3
 371 384 371 384 371 412 c 0,4,5
 371 451 371 451 415 451 c 2,6,-1
 572 451 l 2,7,8
 601 451 601 451 601 424 c 0,9,10
 601 384 601 384 557 384 c 2,11,-1
 530 384 l 1,12,-1
 312 49 l 2,13,14
 288 12 288 12 275.5 0 c 128,-1,15
 263 -12 263 -12 241 -12 c 0,16,17
 211 -12 211 -12 199 4.5 c 128,-1,18
 187 21 187 21 178 64 c 2,19,-1
 112 384 l 1,20,-1
 84 384 l 2,21,22
 54 384 54 384 54 412 c 0,23,24
 54 451 54 451 99 451 c 2,25,-1
 228 451 l 2,26,27
 257 451 257 451 257 424 c 0,28,29
 257 384 257 384 214 384 c 2,30,-1
 186 384 l 1,31,-1
 250 68 l 1,0,-1
EndSplineSet
EndChar
StartChar: w
Encoding: 119 119 90
Width: 602
Flags: W
LayerCount: 2
Back
Fore
SplineSet
71 384 m 1,0,-1
 53 384 l 2,1,2
 23 384 23 384 23 412 c 0,3,4
 23 451 23 451 67 451 c 2,5,-1
 210 451 l 2,6,7
 239 451 239 451 239 424 c 0,8,9
 239 384 239 384 195 384 c 2,10,-1
 145 384 l 1,11,-1
 158 73 l 1,12,-1
 271 308 l 2,13,14
 284 335 284 335 314 335 c 0,15,16
 349 335 349 335 351 307 c 2,17,-1
 366 77 l 1,18,-1
 514 384 l 1,19,-1
 459 384 l 2,20,21
 429 384 429 384 429 412 c 0,22,23
 429 451 429 451 474 451 c 2,24,-1
 607 451 l 2,25,26
 636 451 636 451 636 424 c 0,27,28
 636 406 636 406 626 395 c 128,-1,29
 616 384 616 384 602 384 c 2,30,-1
 589 384 l 1,31,-1
 405 31 l 2,32,33
 391 4 391 4 382 -4 c 128,-1,34
 373 -12 373 -12 352 -12 c 0,35,36
 330 -12 330 -12 322 -2 c 128,-1,37
 314 8 314 8 313 35 c 2,38,-1
 305 268 l 1,39,-1
 189 26 l 2,40,41
 178 4 178 4 168.5 -4.5 c 128,-1,42
 159 -13 159 -13 141 -13 c 0,43,44
 116 -13 116 -13 109 -2.5 c 128,-1,45
 102 8 102 8 99 44 c 2,46,-1
 71 384 l 1,0,-1
EndSplineSet
EndChar
StartChar: x
Encoding: 120 120 91
Width: 602
Flags: W
LayerCount: 2
Back
Fore
SplineSet
163 67 m 1,0,-1
 196 67 l 2,1,2
 226 67 226 67 226 39 c 0,3,4
 226 0 226 0 181 0 c 2,5,-1
 39 0 l 2,6,7
 10 0 10 0 10 27 c 0,8,9
 10 67 10 67 53 67 c 2,10,-1
 78 67 l 1,11,-1
 279 237 l 1,12,-1
 163 384 l 1,13,-1
 134 384 l 2,14,15
 104 384 104 384 104 412 c 0,16,17
 104 451 104 451 149 451 c 2,18,-1
 282 451 l 2,19,20
 311 451 311 451 311 424 c 0,21,22
 311 384 311 384 268 384 c 2,23,-1
 240 384 l 1,24,-1
 324 274 l 1,25,-1
 452 384 l 1,26,-1
 420 384 l 2,27,28
 390 384 390 384 390 412 c 0,29,30
 390 451 390 451 435 451 c 2,31,-1
 572 451 l 2,32,33
 601 451 601 451 601 424 c 0,34,35
 601 384 601 384 557 384 c 2,36,-1
 534 384 l 1,37,-1
 356 232 l 1,38,-1
 482 67 l 1,39,-1
 500 67 l 2,40,41
 530 67 530 67 530 39 c 0,42,43
 530 0 530 0 485 0 c 2,44,-1
 348 0 l 2,45,46
 319 0 319 0 319 27 c 0,47,48
 319 67 319 67 362 67 c 2,49,-1
 409 67 l 1,50,-1
 310 194 l 1,51,-1
 163 67 l 1,0,-1
EndSplineSet
EndChar
StartChar: y
Encoding: 121 121 92
Width: 602
Flags: W
LayerCount: 2
Back
Fore
SplineSet
279 107 m 1,0,-1
 464 384 l 1,1,-1
 429 384 l 2,2,3
 400 384 400 384 400 412 c 0,4,5
 400 451 400 451 444 451 c 2,6,-1
 575 451 l 2,7,8
 604 451 604 451 604 424 c 0,9,10
 604 384 604 384 560 384 c 2,11,-1
 549 384 l 1,12,-1
 191 -127 l 1,13,-1
 231 -127 l 2,14,15
 260 -127 260 -127 260 -156 c 0,16,17
 260 -194 260 -194 216 -194 c 2,18,-1
 -10 -194 l 2,19,20
 -39 -194 -39 -194 -39 -167 c 0,21,22
 -39 -127 -39 -127 4 -127 c 2,23,-1
 105 -127 l 1,24,-1
 225 37 l 1,25,-1
 131 384 l 1,26,-1
 103 384 l 2,27,28
 73 384 73 384 73 412 c 0,29,30
 73 451 73 451 117 451 c 2,31,-1
 247 451 l 2,32,33
 276 451 276 451 276 424 c 0,34,35
 276 384 276 384 232 384 c 2,36,-1
 205 384 l 1,37,-1
 279 107 l 1,0,-1
EndSplineSet
EndChar
StartChar: z
Encoding: 122 122 93
Width: 602
Flags: W
LayerCount: 2
Back
Fore
SplineSet
399 68 m 1,0,-1
 413 123 l 2,1,2
 418 143 418 143 427 152.5 c 128,-1,3
 436 162 436 162 453 162 c 0,4,5
 482 162 482 162 482 136 c 0,6,7
 482 133 482 133 480 121 c 2,8,-1
 465 50 l 2,9,10
 460 24 460 24 448 12 c 128,-1,11
 436 0 436 0 412 0 c 2,12,-1
 127 0 l 2,13,14
 63 0 63 0 63 37 c 0,15,16
 63 63 63 63 94 89 c 2,17,-1
 446 384 l 1,18,-1
 216 384 l 1,19,-1
 202 328 l 2,20,21
 192 290 192 290 162 290 c 0,22,23
 133 290 133 290 133 315 c 0,24,25
 133 318 133 318 135 330 c 2,26,-1
 150 401 l 2,27,28
 155 427 155 427 167 439 c 128,-1,29
 179 451 179 451 203 451 c 2,30,-1
 491 451 l 2,31,32
 513 451 513 451 528 439 c 128,-1,33
 543 427 543 427 543 410 c 0,34,35
 543 381 543 381 506 350 c 2,36,-1
 165 68 l 1,37,-1
 399 68 l 1,0,-1
EndSplineSet
EndChar
StartChar: braceleft
Encoding: 123 123 94
Width: 602
Flags: W
LayerCount: 2
Back
Fore
SplineSet
357 409 m 2,0,-1
 357 363 l 2,1,2
 357 288 357 288 339 251.5 c 128,-1,3
 321 215 321 215 268 199 c 1,4,5
 321 183 321 183 339 145.5 c 128,-1,6
 357 108 357 108 357 34 c 2,7,-1
 357 -12 l 2,8,9
 357 -59 357 -59 365.5 -77.5 c 128,-1,10
 374 -96 374 -96 406 -104 c 0,11,12
 412 -106 412 -106 426.5 -108 c 128,-1,13
 441 -110 441 -110 447.5 -112 c 128,-1,14
 454 -114 454 -114 460.5 -122 c 128,-1,15
 467 -130 467 -130 467 -144 c 0,16,17
 467 -183 467 -183 425 -183 c 0,18,19
 336 -183 336 -183 305.5 -137 c 128,-1,20
 275 -91 275 -91 275 13 c 2,21,-1
 275 44 l 2,22,23
 275 80 275 80 270 101 c 128,-1,24
 265 122 265 122 250 134 c 128,-1,25
 235 146 235 146 221.5 150 c 128,-1,26
 208 154 208 154 179 159 c 0,27,28
 159 163 159 163 151 172 c 128,-1,29
 143 181 143 181 143 199 c 0,30,31
 143 228 143 228 173 236 c 0,32,33
 180 238 180 238 200.5 242.5 c 128,-1,34
 221 247 221 247 226.5 249 c 128,-1,35
 232 251 232 251 245.5 259 c 128,-1,36
 259 267 259 267 262.5 277.5 c 128,-1,37
 266 288 266 288 270.5 307 c 128,-1,38
 275 326 275 326 275 353 c 2,39,-1
 275 384 l 2,40,41
 275 490 275 490 305.5 535.5 c 128,-1,42
 336 581 336 581 430 581 c 0,43,44
 447 581 447 581 457 570.5 c 128,-1,45
 467 560 467 560 467 542 c 0,46,47
 467 531 467 531 464.5 524.5 c 128,-1,48
 462 518 462 518 455 514 c 128,-1,49
 448 510 448 510 443.5 509 c 128,-1,50
 439 508 439 508 427.5 506.5 c 128,-1,51
 416 505 416 505 412 504 c 0,52,53
 377 498 377 498 367 477 c 128,-1,54
 357 456 357 456 357 409 c 2,0,-1
EndSplineSet
EndChar
StartChar: braceright
Encoding: 125 125 96
Width: 602
Flags: W
LayerCount: 2
Back
Fore
SplineSet
253 -11 m 2,0,-1
 253 34 l 2,1,2
 253 109 253 109 271 146 c 128,-1,3
 289 183 289 183 342 199 c 1,4,5
 289 215 289 215 271 252 c 128,-1,6
 253 289 253 289 253 363 c 2,7,-1
 253 410 l 2,8,9
 253 457 253 457 244.5 475.5 c 128,-1,10
 236 494 236 494 204 502 c 0,11,12
 198 504 198 504 183.5 506 c 128,-1,13
 169 508 169 508 162.5 510 c 128,-1,14
 156 512 156 512 149.5 520 c 128,-1,15
 143 528 143 528 143 542 c 0,16,17
 143 580 143 580 186 580 c 0,18,19
 275 580 275 580 305 535 c 128,-1,20
 335 490 335 490 335 385 c 2,21,-1
 335 353 l 2,22,23
 335 289 335 289 354 268 c 128,-1,24
 373 247 373 247 425 239 c 0,25,26
 449 235 449 235 458 227 c 128,-1,27
 467 219 467 219 467 199 c 0,28,29
 467 168 467 168 437 161 c 0,30,31
 430 159 430 159 410 155 c 128,-1,32
 390 151 390 151 383.5 148.5 c 128,-1,33
 377 146 377 146 364.5 138.5 c 128,-1,34
 352 131 352 131 347.5 120.5 c 128,-1,35
 343 110 343 110 339 91 c 128,-1,36
 335 72 335 72 335 45 c 2,37,-1
 335 13 l 2,38,39
 335 -93 335 -93 304.5 -138 c 128,-1,40
 274 -183 274 -183 180 -183 c 0,41,42
 164 -183 164 -183 153.5 -173 c 128,-1,43
 143 -163 143 -163 143 -145 c 0,44,45
 143 -134 143 -134 145.5 -127 c 128,-1,46
 148 -120 148 -120 155.5 -116.5 c 128,-1,47
 163 -113 163 -113 167 -111.5 c 128,-1,48
 171 -110 171 -110 183.5 -108.5 c 128,-1,49
 196 -107 196 -107 199 -106 c 0,50,51
 234 -100 234 -100 243.5 -79 c 128,-1,52
 253 -58 253 -58 253 -11 c 2,0,-1
EndSplineSet
EndChar
StartChar: asciitilde
Encoding: 126 126 97
Width: 602
Flags: W
LayerCount: 2
Back
Fore
SplineSet
65 286 m 0,0,1
 65 312 65 312 107 338.5 c 128,-1,2
 149 365 149 365 201 365 c 0,3,4
 235 365 235 365 302.5 344 c 128,-1,5
 370 323 370 323 403 323 c 0,6,7
 435 323 435 323 470.5 341 c 128,-1,8
 506 359 506 359 513 359 c 0,9,10
 537 359 537 359 537 329 c 0,11,12
 537 303 537 303 494.5 276.5 c 128,-1,13
 452 250 452 250 401 250 c 0,14,15
 368 250 368 250 300 271 c 128,-1,16
 232 292 232 292 199 292 c 0,17,18
 167 292 167 292 131.5 274 c 128,-1,19
 96 256 96 256 89 256 c 0,20,21
 65 256 65 256 65 286 c 0,0,1
EndSplineSet
EndChar
StartChar: exclamdown
Encoding: 161 161 98
Width: 602
Flags: W
LayerCount: 2
Back
Fore
SplineSet
348 356 m 2,0,-1
 299 50 l 2,1,2
 294 16 294 16 282 0.5 c 128,-1,3
 270 -15 270 -15 237 -15 c 0,4,5
 220 -15 220 -15 206 -4.5 c 128,-1,6
 192 6 192 6 192 17 c 0,7,8
 192 22 192 22 199 50 c 2,9,-1
 278 354 l 2,10,11
 284 375 284 375 292.5 384 c 128,-1,12
 301 393 301 393 320 393 c 0,13,14
 349 393 349 393 349 367 c 0,15,16
 349 360 349 360 348 356 c 2,0,-1
427 521 m 128,-1,18
 427 486 427 486 403 464 c 128,-1,19
 379 442 379 442 340 442 c 128,-1,20
 301 442 301 442 276.5 464 c 128,-1,21
 252 486 252 486 252 521 c 128,-1,22
 252 556 252 556 276.5 578 c 128,-1,23
 301 600 301 600 340 600 c 128,-1,24
 379 600 379 600 403 578 c 128,-1,17
 427 556 427 556 427 521 c 128,-1,18
EndSplineSet
EndChar
StartChar: cent
Encoding: 162 162 99
Width: 602
Flags: W
LayerCount: 2
Back
Fore
SplineSet
276 88 m 1,0,-1
 259 21 l 2,1,2
 249 -16 249 -16 217 -16 c 0,3,4
 203 -16 203 -16 194 -9.5 c 128,-1,5
 185 -3 185 -3 185 8 c 0,6,7
 185 11 185 11 187 21 c 2,8,-1
 208 91 l 1,9,10
 144 116 144 116 114 154.5 c 128,-1,11
 84 193 84 193 84 255 c 0,12,13
 84 340 84 340 143.5 407.5 c 128,-1,14
 203 475 203 475 306 500 c 1,15,-1
 326 592 l 2,16,17
 329 607 329 607 341.5 618 c 128,-1,18
 354 629 354 629 369 629 c 0,19,20
 382 629 382 629 391 622.5 c 128,-1,21
 400 616 400 616 400 606 c 0,22,23
 400 602 400 602 398 592 c 2,24,-1
 375 498 l 1,25,26
 412 491 412 491 452 471 c 1,27,28
 472 481 472 481 484 481 c 0,29,30
 511 481 511 481 511 455 c 0,31,32
 511 450 511 450 510 447 c 2,33,-1
 491 364 l 2,34,35
 483 330 483 330 456 330 c 0,36,37
 440 330 440 330 432.5 338 c 128,-1,38
 425 346 425 346 419.5 367.5 c 128,-1,39
 414 389 414 389 413 391 c 0,40,41
 396 435 396 435 334 435 c 0,42,43
 267 435 267 435 213.5 384.5 c 128,-1,44
 160 334 160 334 160 270 c 0,45,46
 160 217 160 217 191 186 c 128,-1,47
 222 155 222 155 277 155 c 0,48,49
 324 155 324 155 375 175 c 128,-1,50
 426 195 426 195 429 195 c 0,51,52
 441 195 441 195 449.5 188.5 c 128,-1,53
 458 182 458 182 458 172 c 0,54,55
 458 143 458 143 414 123 c 128,-1,56
 370 103 370 103 276 88 c 1,0,-1
EndSplineSet
EndChar
StartChar: sterling
Encoding: 163 163 100
Width: 602
Flags: W
LayerCount: 2
Back
Fore
SplineSet
123 293 m 2,0,-1
 130 325 l 2,1,2
 135 344 135 344 150 344 c 2,3,-1
 187 344 l 1,4,5
 185 372 185 372 185 384 c 0,6,7
 185 504 185 504 239.5 569.5 c 128,-1,8
 294 635 294 635 388 635 c 0,9,10
 439 635 439 635 478.5 620 c 128,-1,11
 518 605 518 605 518 585 c 2,12,-1
 518 581 l 1,13,-1
 509 535 l 2,14,15
 501 498 501 498 471 498 c 0,16,17
 449 498 449 498 449 519 c 2,18,-1
 449 540 l 2,19,20
 449 580 449 580 389 580 c 0,21,22
 264 580 264 580 264 398 c 0,23,24
 264 382 264 382 266 344 c 1,25,-1
 433 344 l 2,26,27
 447 344 447 344 447 328 c 2,28,-1
 447 324 l 1,29,-1
 441 292 l 2,30,31
 439 282 439 282 435 279 c 128,-1,32
 431 276 431 276 421 276 c 2,33,-1
 266 276 l 1,34,35
 260 171 260 171 203 82 c 1,36,-1
 217 82 l 2,37,38
 234 82 234 82 274.5 72.5 c 128,-1,39
 315 63 315 63 337 63 c 128,-1,40
 359 63 359 63 378 70.5 c 128,-1,41
 397 78 397 78 408 85 c 128,-1,42
 419 92 419 92 422 92 c 0,43,44
 433 92 433 92 437 81 c 2,45,-1
 444 57 l 1,46,-1
 444 55 l 2,47,48
 444 46 444 46 430.5 31.5 c 128,-1,49
 417 17 417 17 387 4 c 128,-1,50
 357 -9 357 -9 319 -9 c 0,51,52
 289 -9 289 -9 238.5 2.5 c 128,-1,53
 188 14 188 14 169 14 c 0,54,55
 137 14 137 14 102.5 -1.5 c 128,-1,56
 68 -17 68 -17 62 -17 c 0,57,58
 55 -17 55 -17 49 -8 c 128,-1,59
 43 1 43 1 43 13 c 0,60,61
 43 27 43 27 56.5 34.5 c 128,-1,62
 70 42 70 42 92 50 c 128,-1,63
 114 58 114 58 126 69 c 0,64,65
 175 117 175 117 187 276 c 1,66,-1
 137 276 l 2,67,68
 122 276 122 276 122 287 c 0,69,70
 122 291 122 291 123 293 c 2,0,-1
EndSplineSet
EndChar
StartChar: currency
Encoding: 164 164 105
Width: 602
Flags: W
LayerCount: 2
Back
Fore
SplineSet
164 432 m 128,-1,1
 164 374 164 374 205 333 c 128,-1,2
 246 292 246 292 304 292 c 128,-1,3
 362 292 362 292 403.5 333 c 128,-1,4
 445 374 445 374 445 432 c 128,-1,5
 445 490 445 490 403.5 531.5 c 128,-1,6
 362 573 362 573 304 573 c 128,-1,7
 246 573 246 573 205 531.5 c 128,-1,0
 164 490 164 490 164 432 c 128,-1,1
60 224 m 1,8,-1
 153 316 l 1,9,10
 114 368 114 368 114 432 c 0,11,12
 114 494 114 494 153 547 c 1,13,-1
 60 640 l 1,14,-1
 95 675 l 1,15,-1
 188 582 l 1,16,17
 238 622 238 622 304 622 c 0,18,19
 368 622 368 622 420 582 c 1,20,-1
 512 675 l 1,21,-1
 547 640 l 1,22,-1
 454 547 l 1,23,24
 493 495 493 495 493 432 c 0,25,26
 493 368 493 368 454 316 c 1,27,-1
 547 224 l 1,28,-1
 512 189 l 1,29,-1
 420 282 l 1,30,31
 368 242 368 242 304 242 c 0,32,33
 238 242 238 242 188 282 c 1,34,-1
 95 189 l 1,35,-1
 60 224 l 1,8,-1
EndSplineSet
EndChar
StartChar: yen
Encoding: 165 165 102
Width: 602
Flags: W
LayerCount: 2
Back
Fore
SplineSet
107 0 m 2,0,1
 78 0 78 0 78 28 c 0,2,3
 78 67 78 67 122 67 c 2,4,-1
 221 67 l 1,5,-1
 256 243 l 1,6,-1
 73 243 l 2,7,8
 43 243 43 243 43 266 c 0,9,10
 43 277 43 277 55 284.5 c 128,-1,11
 67 292 67 292 87 292 c 2,12,-1
 239 292 l 1,13,-1
 210 387 l 1,14,-1
 92 387 l 2,15,16
 62 387 62 387 62 409 c 0,17,18
 62 421 62 421 74 428.5 c 128,-1,19
 86 436 86 436 106 436 c 2,20,-1
 194 436 l 1,21,-1
 160 549 l 1,22,-1
 128 549 l 2,23,24
 105 549 105 549 105 575 c 0,25,26
 105 597 105 597 115.5 606.5 c 128,-1,27
 126 616 126 616 150 616 c 2,28,-1
 290 616 l 2,29,30
 320 616 320 616 320 588 c 0,31,32
 320 570 320 570 308 559.5 c 128,-1,33
 296 549 296 549 275 549 c 2,34,-1
 228 549 l 1,35,-1
 302 296 l 1,36,-1
 477 549 l 1,37,-1
 444 549 l 2,38,39
 414 549 414 549 414 577 c 0,40,41
 414 595 414 595 426 605.5 c 128,-1,42
 438 616 438 616 459 616 c 2,43,-1
 578 616 l 2,44,45
 608 616 608 616 608 588 c 0,46,47
 608 572 608 572 597 560.5 c 128,-1,48
 586 549 586 549 572 549 c 2,49,-1
 548 549 l 1,50,-1
 466 436 l 1,51,-1
 562 436 l 2,52,53
 592 436 592 436 592 413 c 0,54,55
 592 387 592 387 549 387 c 2,56,-1
 429 387 l 1,57,-1
 359 292 l 1,58,-1
 544 292 l 2,59,60
 573 292 573 292 573 270 c 0,61,62
 573 243 573 243 530 243 c 2,63,-1
 322 243 l 1,64,-1
 287 67 l 1,65,-1
 383 67 l 2,66,67
 413 67 413 67 413 39 c 0,68,69
 413 21 413 21 401 10.5 c 128,-1,70
 389 0 389 0 368 0 c 2,71,-1
 107 0 l 2,0,1
EndSplineSet
EndChar
StartChar: brokenbar
Encoding: 166 166 216
Width: 602
Flags: W
LayerCount: 2
Back
Fore
SplineSet
271 -172 m 1,0,-1
 271 199 l 1,1,-1
 330 199 l 1,2,-1
 330 -172 l 1,3,-1
 271 -172 l 1,0,-1
271 329 m 1,4,-1
 271 699 l 1,5,-1
 330 699 l 1,6,-1
 330 329 l 1,7,-1
 271 329 l 1,4,-1
EndSplineSet
EndChar
StartChar: section
Encoding: 167 167 104
Width: 602
Flags: W
LayerCount: 2
Back
Fore
SplineSet
389 96 m 1,0,1
 428 117 428 117 428 146 c 0,2,3
 428 173 428 173 387 208 c 2,4,-1
 263 310 l 2,5,6
 245 324 245 324 206 377 c 1,7,8
 162 365 162 365 162 328 c 0,9,10
 162 301 162 301 203 266 c 2,11,-1
 327 164 l 2,12,13
 342 151 342 151 389 96 c 1,0,1
52 -81 m 2,14,-1
 72 22 l 2,15,16
 75 38 75 38 86 48.5 c 128,-1,17
 97 59 97 59 111 59 c 0,18,19
 140 59 140 59 140 31 c 0,20,21
 140 26 140 26 139 23 c 2,22,-1
 127 -39 l 1,23,-1
 240 -39 l 2,24,25
 325 -39 325 -39 325 17 c 0,26,27
 325 60 325 60 272 104 c 2,28,-1
 143 208 l 2,29,30
 92 248 92 248 92 309 c 0,31,32
 92 353 92 353 115 382 c 128,-1,33
 138 411 138 411 188 433 c 1,34,-1
 188 437 l 2,35,36
 188 500 188 500 231.5 540 c 128,-1,37
 275 580 275 580 337 580 c 2,38,-1
 517 580 l 2,39,40
 539 580 539 580 539 564 c 0,41,42
 539 563 539 563 538.5 561 c 128,-1,43
 538 559 538 559 538 557 c 2,44,-1
 518 452 l 2,45,46
 515 436 515 436 503.5 425.5 c 128,-1,47
 492 415 492 415 478 415 c 0,48,49
 449 415 449 415 449 443 c 0,50,51
 449 448 449 448 450 451 c 2,52,-1
 462 513 l 1,53,-1
 350 513 l 2,54,55
 264 513 264 513 264 457 c 0,56,57
 264 415 264 415 318 370 c 2,58,-1
 444 268 l 2,59,60
 496 225 496 225 496 165 c 0,61,62
 496 91 496 91 404 39 c 1,63,64
 400 -27 400 -27 359 -65.5 c 128,-1,65
 318 -104 318 -104 256 -104 c 2,66,-1
 76 -104 l 2,67,68
 61 -104 61 -104 56 -102 c 128,-1,69
 51 -100 51 -100 51 -92 c 0,70,71
 51 -85 51 -85 52 -81 c 2,14,-1
EndSplineSet
EndChar
StartChar: dieresis
Encoding: 168 168 133
Width: 602
Flags: W
LayerCount: 2
Back
Fore
SplineSet
176 582 m 0,0,1
 176 605 176 605 193.5 622.5 c 128,-1,2
 211 640 211 640 235 640 c 128,-1,3
 259 640 259 640 276.5 623 c 128,-1,4
 294 606 294 606 294 582 c 0,5,6
 294 556 294 556 277.5 539 c 128,-1,7
 261 522 261 522 235 522 c 0,8,9
 210 522 210 522 193 539.5 c 128,-1,10
 176 557 176 557 176 582 c 0,0,1
425 582 m 0,11,12
 425 605 425 605 442.5 622.5 c 128,-1,13
 460 640 460 640 484 640 c 128,-1,14
 508 640 508 640 525 623 c 128,-1,15
 542 606 542 606 542 582 c 0,16,17
 542 556 542 556 525.5 539 c 128,-1,18
 509 522 509 522 484 522 c 128,-1,19
 459 522 459 522 442 539.5 c 128,-1,20
 425 557 425 557 425 582 c 0,11,12
EndSplineSet
EndChar
StartChar: ordfeminine
Encoding: 170 170 141
Width: 602
Flags: W
LayerCount: 2
Back
Fore
SplineSet
389 400 m 1,0,1
 350 412 350 412 314 412 c 0,2,3
 248 412 248 412 210 388.5 c 128,-1,4
 172 365 172 365 172 329 c 0,5,6
 172 305 172 305 189 291 c 128,-1,7
 206 277 206 277 237 277 c 0,8,9
 289 277 289 277 332.5 307.5 c 128,-1,10
 376 338 376 338 384 379 c 2,11,-1
 389 400 l 1,0,1
400 227 m 2,12,13
 379 227 379 227 372 231.5 c 128,-1,14
 365 236 365 236 365 253 c 0,15,16
 365 266 365 266 371 292 c 1,17,18
 306 219 306 219 224 219 c 0,19,20
 171 219 171 219 140 247.5 c 128,-1,21
 109 276 109 276 109 323 c 0,22,23
 109 381 109 381 165 420.5 c 128,-1,24
 221 460 221 460 311 460 c 0,25,26
 352 460 352 460 399 446 c 1,27,28
 406 471 406 471 406 487 c 0,29,30
 406 544 406 544 341 544 c 0,31,32
 308 544 308 544 266 527.5 c 128,-1,33
 224 511 224 511 216 511 c 0,34,35
 205 511 205 511 197.5 517.5 c 128,-1,36
 190 524 190 524 190 533 c 0,37,38
 190 557 190 557 237 577 c 128,-1,39
 284 597 284 597 346 597 c 0,40,41
 405 597 405 597 436 572 c 128,-1,42
 467 547 467 547 467 502 c 0,43,44
 467 488 467 488 464 472 c 2,45,-1
 422 280 l 1,46,-1
 460 280 l 2,47,48
 483 280 483 280 483 258 c 0,49,50
 483 227 483 227 449 227 c 2,51,-1
 400 227 l 2,12,13
EndSplineSet
EndChar
StartChar: guillemotleft
Encoding: 171 171 108
Width: 602
Flags: W
LayerCount: 2
Back
Fore
SplineSet
375 230 m 1,0,-1
 415 90 l 2,1,2
 417 80 417 80 417 76 c 0,3,4
 417 63 417 63 408.5 55 c 128,-1,5
 400 47 400 47 388 47 c 0,6,7
 368 47 368 47 361 68 c 2,8,-1
 305 215 l 2,9,10
 303 223 303 223 303 224 c 0,11,12
 303 244 303 244 314 259 c 2,13,-1
 405 393 l 2,14,15
 415 408 415 408 431 408 c 0,16,17
 443 408 443 408 451.5 400.5 c 128,-1,18
 460 393 460 393 460 382 c 0,19,20
 460 372 460 372 455 362 c 2,21,-1
 375 230 l 1,0,-1
214 230 m 1,22,-1
 254 90 l 2,23,24
 256 80 256 80 256 76 c 0,25,26
 256 63 256 63 247.5 55 c 128,-1,27
 239 47 239 47 227 47 c 0,28,29
 207 47 207 47 200 68 c 2,30,-1
 144 215 l 2,31,32
 142 223 142 223 142 224 c 0,33,34
 142 244 142 244 153 259 c 2,35,-1
 244 393 l 2,36,37
 254 408 254 408 270 408 c 0,38,39
 282 408 282 408 290 400.5 c 128,-1,40
 298 393 298 393 298 382 c 0,41,42
 298 372 298 372 293 362 c 2,43,-1
 214 230 l 1,22,-1
EndSplineSet
EndChar
StartChar: macron
Encoding: 175 175 130
Width: 602
Flags: W
LayerCount: 2
Back
Fore
SplineSet
514 610 m 2,0,1
 520 610 520 610 525 605 c 128,-1,2
 530 600 530 600 530 595 c 2,3,-1
 530 594 l 1,4,-1
 524 567 l 2,5,6
 521 552 521 552 508 552 c 2,7,-1
 205 552 l 2,8,9
 199 552 199 552 194 556.5 c 128,-1,10
 189 561 189 561 189 566 c 2,11,-1
 189 567 l 1,12,-1
 195 594 l 2,13,14
 198 610 198 610 211 610 c 2,15,-1
 514 610 l 2,0,1
EndSplineSet
EndChar
StartChar: degree
Encoding: 176 176 217
Width: 602
Flags: W
LayerCount: 2
Back
Fore
SplineSet
144 507 m 0,0,1
 144 572 144 572 189.5 618 c 128,-1,2
 235 664 235 664 301 664 c 128,-1,3
 367 664 367 664 412.5 618 c 128,-1,4
 458 572 458 572 458 507 c 0,5,6
 458 441 458 441 412.5 395.5 c 128,-1,7
 367 350 367 350 301 350 c 128,-1,8
 235 350 235 350 189.5 395.5 c 128,-1,9
 144 441 144 441 144 507 c 0,0,1
218 507 m 128,-1,11
 218 471 218 471 242 446.5 c 128,-1,12
 266 422 266 422 301 422 c 128,-1,13
 336 422 336 422 360 447 c 128,-1,14
 384 472 384 472 384 507 c 128,-1,15
 384 542 384 542 360 567 c 128,-1,16
 336 592 336 592 301 592 c 128,-1,17
 266 592 266 592 242 567.5 c 128,-1,10
 218 543 218 543 218 507 c 128,-1,11
EndSplineSet
EndChar
StartChar: plusminus
Encoding: 177 177 225
Width: 602
Flags: W
LayerCount: 2
Back
Fore
SplineSet
144 45 m 2,0,1
 127 45 127 45 116 55 c 128,-1,2
 105 65 105 65 105 81 c 0,3,4
 105 96 105 96 116.5 106 c 128,-1,5
 128 116 128 116 144 116 c 2,6,-1
 457 116 l 2,7,8
 475 116 475 116 485.5 106.5 c 128,-1,9
 496 97 496 97 496 81 c 128,-1,10
 496 65 496 65 485 55 c 128,-1,11
 474 45 474 45 457 45 c 2,12,-1
 144 45 l 2,0,1
457 434 m 2,13,14
 474 434 474 434 485 424 c 128,-1,15
 496 414 496 414 496 398 c 128,-1,16
 496 382 496 382 485 372 c 128,-1,17
 474 362 474 362 457 362 c 2,18,-1
 337 362 l 1,19,-1
 337 216 l 2,20,21
 337 199 337 199 327 188.5 c 128,-1,22
 317 178 317 178 301 178 c 0,23,24
 286 178 286 178 275 189 c 128,-1,25
 264 200 264 200 264 216 c 2,26,-1
 264 362 l 1,27,-1
 144 362 l 2,28,29
 127 362 127 362 116 372 c 128,-1,30
 105 382 105 382 105 398 c 0,31,32
 105 413 105 413 116.5 423.5 c 128,-1,33
 128 434 128 434 144 434 c 2,34,-1
 264 434 l 1,35,-1
 264 580 l 2,36,37
 264 597 264 597 274.5 608 c 128,-1,38
 285 619 285 619 301 619 c 128,-1,39
 317 619 317 619 327 608 c 128,-1,40
 337 597 337 597 337 580 c 2,41,-1
 337 434 l 1,42,-1
 457 434 l 2,13,14
EndSplineSet
EndChar
StartChar: acute
Encoding: 180 180 127
Width: 602
Flags: W
LayerCount: 2
Back
Fore
SplineSet
252 516 m 1,0,-1
 242 542 l 1,1,-1
 472 658 l 2,2,3
 476 660 476 660 479 660 c 0,4,5
 494 660 494 660 500 643 c 2,6,-1
 512 612 l 2,7,8
 514 606 514 606 514 603 c 0,9,10
 514 588 514 588 500 584 c 2,11,-1
 252 516 l 1,0,-1
EndSplineSet
EndChar
StartChar: paragraph
Encoding: 182 182 117
Width: 602
Flags: W
LayerCount: 2
Back
Fore
SplineSet
256 -77 m 2,0,-1
 134 -77 l 2,1,2
 114 -77 114 -77 106.5 -72 c 128,-1,3
 99 -67 99 -67 99 -50 c 0,4,5
 99 -11 99 -11 153 -11 c 2,6,-1
 242 -11 l 1,7,-1
 298 255 l 2,8,9
 294 255 294 255 287 254.5 c 128,-1,10
 280 254 280 254 277 254 c 0,11,12
 198 254 198 254 153.5 294 c 128,-1,13
 109 334 109 334 109 403 c 0,14,15
 109 616 109 616 419 616 c 2,16,-1
 584 616 l 2,17,18
 601 616 601 616 607.5 611 c 128,-1,19
 614 606 614 606 614 592 c 0,20,21
 614 550 614 550 569 550 c 2,22,-1
 533 550 l 1,23,-1
 417 -11 l 1,24,-1
 470 -11 l 2,25,26
 500 -11 500 -11 500 -36 c 0,27,28
 500 -77 500 -77 451 -77 c 2,29,-1
 372 -77 l 2,30,31
 349 -77 349 -77 340.5 -72.5 c 128,-1,32
 332 -68 332 -68 332 -50 c 0,33,34
 332 -26 332 -26 359 -11 c 1,35,-1
 475 550 l 1,36,-1
 418 550 l 1,37,-1
 300 -11 l 1,38,39
 314 -20 314 -20 314 -30 c 0,40,41
 314 -60 314 -60 300.5 -68.5 c 128,-1,42
 287 -77 287 -77 256 -77 c 2,0,-1
EndSplineSet
EndChar
StartChar: periodcentered
Encoding: 183 183 116
Width: 602
Flags: W
LayerCount: 2
Back
Fore
SplineSet
205 316 m 128,-1,1
 205 354 205 354 231.5 378.5 c 128,-1,2
 258 403 258 403 301 403 c 128,-1,3
 344 403 344 403 370.5 379 c 128,-1,4
 397 355 397 355 397 316 c 128,-1,5
 397 277 397 277 370.5 253 c 128,-1,6
 344 229 344 229 301 229 c 128,-1,7
 258 229 258 229 231.5 253.5 c 128,-1,0
 205 278 205 278 205 316 c 128,-1,1
EndSplineSet
EndChar
StartChar: cedilla
Encoding: 184 184 135
Width: 602
Flags: W
LayerCount: 2
Back
Fore
SplineSet
261 0 m 1,0,-1
 295 0 l 1,1,-1
 278 -55 l 1,2,3
 302 -52 302 -52 313 -52 c 0,4,5
 352 -52 352 -52 376 -75 c 128,-1,6
 400 -98 400 -98 400 -135 c 0,7,8
 400 -176 400 -176 370.5 -199.5 c 128,-1,9
 341 -223 341 -223 288 -223 c 128,-1,10
 235 -223 235 -223 190.5 -206.5 c 128,-1,11
 146 -190 146 -190 146 -170 c 0,12,13
 146 -149 146 -149 168 -149 c 0,14,15
 173 -149 173 -149 208 -162.5 c 128,-1,16
 243 -176 243 -176 276 -176 c 0,17,18
 323 -176 323 -176 323 -133 c 0,19,20
 323 -93 323 -93 272 -93 c 0,21,22
 261 -93 261 -93 228 -100 c 1,23,-1
 261 0 l 1,0,-1
EndSplineSet
EndChar
StartChar: onesuperior
Encoding: 185 185 224
Width: 602
Flags: W
LayerCount: 2
Back
Fore
SplineSet
277 572 m 1,0,-1
 210 559 l 2,1,2
 206 558 206 558 198 558 c 0,3,4
 171 558 171 558 171 582 c 0,5,6
 171 600 171 600 196 606 c 2,7,-1
 316 631 l 2,8,9
 321 632 321 632 329 632 c 0,10,11
 348 632 348 632 348 613 c 2,12,-1
 348 293 l 1,13,-1
 430 293 l 2,14,15
 461 293 461 293 461 267 c 128,-1,16
 461 241 461 241 430 241 c 2,17,-1
 196 241 l 2,18,19
 165 241 165 241 165 267 c 128,-1,20
 165 293 165 293 197 293 c 2,21,-1
 277 293 l 1,22,-1
 277 572 l 1,0,-1
EndSplineSet
EndChar
StartChar: ordmasculine
Encoding: 186 186 145
Width: 602
Flags: W
LayerCount: 2
Back
Fore
SplineSet
99 376 m 0,0,1
 99 468 99 468 165 532 c 128,-1,2
 231 596 231 596 327 596 c 0,3,4
 408 596 408 596 455.5 552 c 128,-1,5
 503 508 503 508 503 435 c 0,6,7
 503 343 503 343 437 279 c 128,-1,8
 371 215 371 215 274 215 c 0,9,10
 195 215 195 215 147 259 c 128,-1,11
 99 303 99 303 99 376 c 0,0,1
322 543 m 0,12,13
 255 543 255 543 209.5 495 c 128,-1,14
 164 447 164 447 164 378 c 0,15,16
 164 326 164 326 194.5 296 c 128,-1,17
 225 266 225 266 279 266 c 0,18,19
 347 266 347 266 392.5 314.5 c 128,-1,20
 438 363 438 363 438 433 c 0,21,22
 438 484 438 484 406.5 513.5 c 128,-1,23
 375 543 375 543 322 543 c 0,12,13
EndSplineSet
EndChar
StartChar: guillemotright
Encoding: 187 187 122
Width: 602
Flags: W
LayerCount: 2
Back
Fore
SplineSet
215 227 m 1,0,-1
 175 368 l 2,1,2
 173 378 173 378 173 381 c 0,3,4
 173 394 173 394 181 402 c 128,-1,5
 189 410 189 410 201 410 c 0,6,7
 222 410 222 410 229 390 c 2,8,-1
 284 243 l 2,9,10
 284 241 284 241 285.5 237.5 c 128,-1,11
 287 234 287 234 287 233 c 0,12,13
 287 216 287 216 275 199 c 2,14,-1
 185 64 l 2,15,16
 175 49 175 49 158 49 c 0,17,18
 146 49 146 49 138 57 c 128,-1,19
 130 65 130 65 130 76 c 0,20,21
 130 86 130 86 135 96 c 2,22,-1
 215 227 l 1,0,-1
376 227 m 1,23,-1
 336 368 l 2,24,25
 334 378 334 378 334 381 c 0,26,27
 334 394 334 394 342.5 402 c 128,-1,28
 351 410 351 410 363 410 c 0,29,30
 383 410 383 410 390 390 c 2,31,-1
 446 243 l 2,32,33
 448 235 448 235 448 233 c 0,34,35
 448 214 448 214 437 199 c 2,36,-1
 346 64 l 2,37,38
 336 49 336 49 320 49 c 0,39,40
 308 49 308 49 299.5 57 c 128,-1,41
 291 65 291 65 291 76 c 0,42,43
 291 84 291 84 297 96 c 2,44,-1
 376 227 l 1,23,-1
EndSplineSet
EndChar
StartChar: onequarter
Encoding: 188 188 223
Width: 602
Flags: W
LayerCount: 2
Back
Fore
SplineSet
496 419 m 2,0,1
 504 423 504 423 513 423 c 0,2,3
 524 423 524 423 531.5 415.5 c 128,-1,4
 539 408 539 408 539 397 c 0,5,6
 539 380 539 380 521 370 c 2,7,-1
 102 158 l 2,8,9
 95 154 95 154 86 154 c 0,10,11
 75 154 75 154 67.5 162 c 128,-1,12
 60 170 60 170 60 181 c 0,13,14
 60 197 60 197 78 207 c 2,15,-1
 496 419 l 2,0,1
466 -68 m 2,16,17
 466 -83 466 -83 458 -88 c 128,-1,18
 450 -93 450 -93 432 -93 c 0,19,20
 405 -93 405 -93 405 -68 c 2,21,-1
 405 -17 l 1,22,-1
 257 -17 l 2,23,24
 226 -17 226 -17 226 19 c 0,25,26
 226 53 226 53 244 75 c 2,27,-1
 382 246 l 2,28,29
 396 263 396 263 406 263 c 0,30,31
 412 263 412 263 422 261 c 2,32,-1
 450 253 l 2,33,34
 466 249 466 249 466 222 c 2,35,-1
 466 39 l 1,36,-1
 503 39 l 2,37,38
 518 39 518 39 522.5 33.5 c 128,-1,39
 527 28 527 28 527 12 c 0,40,41
 527 -5 527 -5 523 -11 c 128,-1,42
 519 -17 519 -17 503 -17 c 2,43,-1
 466 -17 l 1,44,-1
 466 -68 l 2,16,17
410 39 m 1,45,-1
 410 203 l 1,46,-1
 284 39 l 1,47,-1
 410 39 l 1,45,-1
100 328 m 2,48,49
 65 328 65 328 65 356 c 0,50,51
 65 373 65 373 78.5 378.5 c 128,-1,52
 92 384 92 384 124 384 c 2,53,-1
 157 384 l 1,54,-1
 157 618 l 1,55,-1
 120 616 l 1,56,-1
 117 616 l 2,57,58
 99 616 99 616 88 624 c 128,-1,59
 77 632 77 632 77 644 c 0,60,61
 77 672 77 672 116 675 c 2,62,-1
 186 680 l 1,63,-1
 192 680 l 2,64,65
 223 680 223 680 223 644 c 2,66,-1
 223 384 l 1,67,-1
 251 384 l 2,68,69
 284 384 284 384 297 379 c 128,-1,70
 310 374 310 374 310 356 c 0,71,72
 310 328 310 328 275 328 c 2,73,-1
 100 328 l 2,48,49
EndSplineSet
EndChar
StartChar: questiondown
Encoding: 191 191 125
Width: 602
Flags: W
LayerCount: 2
Back
Fore
SplineSet
326 350 m 2,0,1
 334 386 334 386 368 386 c 0,2,3
 401 386 401 386 401 361 c 0,4,5
 401 355 401 355 400 352 c 2,6,-1
 394 319 l 2,7,8
 386 279 386 279 348 262 c 2,9,-1
 278 232 l 2,10,11
 191 194 191 194 191 125 c 0,12,13
 191 91 191 91 213 71 c 128,-1,14
 235 51 235 51 275 51 c 0,15,16
 316 51 316 51 342.5 61 c 128,-1,17
 369 71 369 71 374 85 c 2,18,-1
 379 101 l 2,19,20
 390 131 390 131 415 131 c 0,21,22
 444 131 444 131 444 103 c 0,23,24
 444 97 444 97 443 93 c 2,25,-1
 433 46 l 2,26,27
 428 20 428 20 379.5 1.5 c 128,-1,28
 331 -17 331 -17 259 -17 c 0,29,30
 190 -17 190 -17 151.5 19 c 128,-1,31
 113 55 113 55 113 118 c 0,32,33
 113 186 113 186 162.5 231.5 c 128,-1,34
 212 277 212 277 318 313 c 1,35,-1
 326 350 l 2,0,1
472 516 m 128,-1,37
 472 481 472 481 448 459 c 128,-1,38
 424 437 424 437 385 437 c 128,-1,39
 346 437 346 437 321.5 459 c 128,-1,40
 297 481 297 481 297 516 c 128,-1,41
 297 551 297 551 321.5 573 c 128,-1,42
 346 595 346 595 385 595 c 128,-1,43
 424 595 424 595 448 573 c 128,-1,36
 472 551 472 551 472 516 c 128,-1,37
EndSplineSet
EndChar
StartChar: Aring
Encoding: 197 197 156
Width: 602
Flags: W
LayerCount: 2
Back
Fore
SplineSet
259 734 m 0,0,1
 259 706 259 706 278 687.5 c 128,-1,2
 297 669 297 669 325 669 c 0,3,4
 352 669 352 669 371.5 688 c 128,-1,5
 391 707 391 707 391 734 c 128,-1,6
 391 761 391 761 371.5 780.5 c 128,-1,7
 352 800 352 800 325 800 c 0,8,9
 297 800 297 800 278 780.5 c 128,-1,10
 259 761 259 761 259 734 c 0,0,1
202 735 m 0,11,12
 202 786 202 786 237.5 822 c 128,-1,13
 273 858 273 858 325 858 c 128,-1,14
 377 858 377 858 413 822.5 c 128,-1,15
 449 787 449 787 449 735 c 128,-1,16
 449 683 449 683 413 647 c 128,-1,17
 377 611 377 611 325 611 c 128,-1,18
 273 611 273 611 237.5 647 c 128,-1,19
 202 683 202 683 202 735 c 0,11,12
191 246 m 1,20,-1
 395 246 l 1,21,-1
 346 531 l 1,22,-1
 191 246 l 1,20,-1
93 67 m 1,23,-1
 156 67 l 2,24,25
 186 67 186 67 186 40 c 0,26,27
 186 0 186 0 142 0 c 2,28,-1
 -22 0 l 2,29,30
 -51 0 -51 0 -51 28 c 0,31,32
 -51 67 -51 67 -7 67 c 2,33,-1
 16 67 l 1,34,-1
 268 512 l 1,35,-1
 186 512 l 2,36,37
 156 512 156 512 156 539 c 0,38,39
 156 579 156 579 201 579 c 2,40,-1
 373 579 l 2,41,42
 396 579 396 579 405 569.5 c 128,-1,43
 414 560 414 560 419 532 c 2,44,-1
 500 67 l 1,45,-1
 525 67 l 2,46,47
 555 67 555 67 555 40 c 0,48,49
 555 0 555 0 510 0 c 2,50,-1
 344 0 l 2,51,52
 315 0 315 0 315 28 c 0,53,54
 315 67 315 67 359 67 c 2,55,-1
 424 67 l 1,56,-1
 407 181 l 1,57,-1
 155 181 l 1,58,-1
 93 67 l 1,23,-1
EndSplineSet
EndChar
StartChar: AE
Encoding: 198 198 140
Width: 602
Flags: W
LayerCount: 2
Back
Fore
SplineSet
142 241 m 1,0,-1
 249 241 l 1,1,-1
 306 517 l 1,2,-1
 280 517 l 1,3,-1
 142 241 l 1,0,-1
-62 0 m 2,4,5
 -91 0 -91 0 -91 28 c 0,6,7
 -91 67 -91 67 -47 67 c 2,8,-1
 -22 67 l 1,9,-1
 220 517 l 1,10,-1
 179 517 l 2,11,12
 149 517 149 517 149 544 c 0,13,14
 149 579 149 579 191 579 c 2,15,-1
 565 579 l 2,16,17
 608 579 608 579 608 546 c 0,18,19
 608 537 608 537 606 529 c 2,20,-1
 581 425 l 2,21,22
 574 397 574 397 566.5 388 c 128,-1,23
 559 379 559 379 541 379 c 0,24,25
 511 379 511 379 511 406 c 0,26,27
 511 419 511 419 514 432 c 2,28,-1
 532 517 l 1,29,-1
 374 517 l 1,30,-1
 340 344 l 1,31,-1
 407 344 l 1,32,-1
 416 377 l 2,33,34
 420 392 420 392 422.5 399 c 128,-1,35
 425 406 425 406 432 411.5 c 128,-1,36
 439 417 439 417 450 417 c 0,37,38
 476 417 476 417 476 394 c 0,39,40
 476 388 476 388 471 361 c 2,41,-1
 450 254 l 2,42,43
 446 236 446 236 444 229 c 128,-1,44
 442 222 442 222 435.5 217 c 128,-1,45
 429 212 429 212 416 212 c 0,46,47
 389 212 389 212 389 231 c 0,48,49
 389 240 389 240 391 248 c 2,50,-1
 397 285 l 1,51,-1
 326 285 l 1,52,-1
 282 67 l 1,53,-1
 438 67 l 1,54,-1
 459 158 l 2,55,56
 470 204 470 204 498 204 c 0,57,58
 528 204 528 204 528 175 c 0,59,60
 528 165 528 165 525 150 c 2,61,-1
 502 42 l 2,62,63
 497 18 497 18 486.5 9 c 128,-1,64
 476 0 476 0 446 0 c 2,65,-1
 176 0 l 2,66,67
 147 0 147 0 147 28 c 0,68,69
 147 67 147 67 191 67 c 2,70,-1
 214 67 l 1,71,-1
 239 190 l 1,72,-1
 116 190 l 1,73,-1
 54 67 l 1,74,-1
 84 67 l 2,75,76
 114 67 114 67 114 41 c 0,77,78
 114 22 114 22 102 11 c 128,-1,79
 90 0 90 0 69 0 c 2,80,-1
 -62 0 l 2,4,5
EndSplineSet
EndChar
StartChar: Eth
Encoding: 208 208 213
Width: 602
Flags: W
LayerCount: 2
Back
Fore
SplineSet
309 512 m 2,0,-1
 233 512 l 1,1,-1
 195 337 l 1,2,-1
 334 337 l 2,3,4
 364 337 364 337 364 310 c 0,5,6
 364 294 364 294 352 284.5 c 128,-1,7
 340 275 340 275 319 275 c 2,8,-1
 181 275 l 1,9,-1
 138 67 l 1,10,-1
 221 67 l 2,11,12
 346 67 346 67 418.5 147.5 c 128,-1,13
 491 228 491 228 491 359 c 0,14,15
 491 444 491 444 448.5 478 c 128,-1,16
 406 512 406 512 309 512 c 2,0,-1
106 275 m 1,17,-1
 59 275 l 2,18,19
 30 275 30 275 30 301 c 0,20,21
 30 337 30 337 74 337 c 2,22,-1
 120 337 l 1,23,-1
 157 512 l 1,24,-1
 126 512 l 2,25,26
 96 512 96 512 96 539 c 0,27,28
 96 579 96 579 140 579 c 2,29,-1
 310 579 l 2,30,31
 446 579 446 579 511.5 527 c 128,-1,32
 577 475 577 475 577 363 c 0,33,34
 577 292 577 292 553 223.5 c 128,-1,35
 529 155 529 155 490 108 c 0,36,37
 440 49 440 49 370 24.5 c 128,-1,38
 300 0 300 0 190 0 c 2,39,-1
 19 0 l 2,40,41
 -10 0 -10 0 -10 26 c 0,42,43
 -10 67 -10 67 34 67 c 2,44,-1
 62 67 l 1,45,-1
 106 275 l 1,17,-1
EndSplineSet
EndChar
StartChar: Oslash
Encoding: 216 216 143
Width: 602
Flags: W
LayerCount: 2
Back
Fore
SplineSet
482 439 m 1,0,-1
 144 103 l 1,1,2
 187 54 187 54 259 54 c 0,3,4
 357 54 357 54 427 151 c 0,5,6
 494 244 494 244 494 356 c 0,7,8
 494 402 494 402 482 439 c 1,0,-1
507 543 m 1,9,-1
 558 593 l 2,10,11
 576 611 576 611 587 611 c 128,-1,12
 598 611 598 611 605.5 603.5 c 128,-1,13
 613 596 613 596 613 585 c 0,14,15
 613 569 613 569 598 554 c 2,16,-1
 544 501 l 1,17,18
 580 446 580 446 580 364 c 0,19,20
 580 230 580 230 495 113 c 0,21,22
 401 -15 401 -15 253 -15 c 0,23,24
 148 -15 148 -15 86 44 c 1,25,-1
 30 -10 l 2,26,27
 12 -28 12 -28 2 -28 c 0,28,29
 -9 -28 -9 -28 -17 -20 c 128,-1,30
 -25 -12 -25 -12 -25 -2 c 0,31,32
 -25 14 -25 14 -10 29 c 2,33,-1
 51 90 l 1,34,35
 22 141 22 141 22 216 c 0,36,37
 22 352 22 352 106 467 c 0,38,39
 200 595 200 595 347 595 c 0,40,41
 447 595 447 595 507 543 c 1,9,-1
116 155 m 1,42,-1
 451 487 l 1,43,44
 410 529 410 529 345 529 c 0,45,46
 249 529 249 529 179 438 c 128,-1,47
 109 347 109 347 109 213 c 0,48,49
 109 180 109 180 116 155 c 1,42,-1
EndSplineSet
EndChar
StartChar: Thorn
Encoding: 222 222 214
Width: 602
Flags: W
LayerCount: 2
Back
Fore
SplineSet
342 579 m 2,0,1
 372 579 372 579 372 551 c 0,2,3
 372 512 372 512 327 512 c 2,4,-1
 280 512 l 1,5,-1
 267 453 l 1,6,-1
 312 453 l 2,7,8
 420 453 420 453 468.5 426 c 128,-1,9
 517 399 517 399 517 319 c 0,10,11
 517 226 517 226 453.5 176.5 c 128,-1,12
 390 127 390 127 264 127 c 2,13,-1
 198 127 l 1,14,-1
 185 67 l 1,15,-1
 291 67 l 2,16,17
 321 67 321 67 321 39 c 0,18,19
 321 0 321 0 276 0 c 2,20,-1
 35 0 l 2,21,22
 5 0 5 0 5 27 c 0,23,24
 5 67 5 67 50 67 c 2,25,-1
 109 67 l 1,26,-1
 204 512 l 1,27,-1
 140 512 l 2,28,29
 111 512 111 512 111 539 c 0,30,31
 111 579 111 579 155 579 c 2,32,-1
 342 579 l 2,0,1
254 392 m 1,33,-1
 210 183 l 1,34,-1
 256 183 l 2,35,36
 432 183 432 183 432 316 c 0,37,38
 432 356 432 356 407 374 c 128,-1,39
 382 392 382 392 331 392 c 2,40,-1
 254 392 l 1,33,-1
EndSplineSet
EndChar
StartChar: germandbls
Encoding: 223 223 151
Width: 602
Flags: W
LayerCount: 2
Back
Fore
SplineSet
170 467 m 2,0,1
 189 556 189 556 232 597 c 128,-1,2
 275 638 275 638 366 638 c 0,3,4
 446 638 446 638 495 602 c 128,-1,5
 544 566 544 566 544 508 c 0,6,7
 544 458 544 458 509 420.5 c 128,-1,8
 474 383 474 383 416 375 c 1,9,10
 539 357 539 357 539 220 c 0,11,12
 539 117 539 117 474.5 52.5 c 128,-1,13
 410 -12 410 -12 307 -12 c 0,14,15
 262 -12 262 -12 242.5 -4.5 c 128,-1,16
 223 3 223 3 223 22 c 0,17,18
 223 55 223 55 262 55 c 0,19,20
 266 55 266 55 283 54 c 128,-1,21
 300 53 300 53 314 53 c 0,22,23
 379 53 379 53 418.5 100 c 128,-1,24
 458 147 458 147 458 220 c 0,25,26
 458 265 458 265 437 294 c 128,-1,27
 416 323 416 323 380 331 c 0,28,29
 369 333 369 333 344.5 334 c 128,-1,30
 320 335 320 335 311 340.5 c 128,-1,31
 302 346 302 346 302 363 c 0,32,33
 302 377 302 377 310 384.5 c 128,-1,34
 318 392 318 392 327.5 393 c 128,-1,35
 337 394 337 394 355 395 c 128,-1,36
 373 396 373 396 384 399 c 0,37,38
 421 408 421 408 442.5 434.5 c 128,-1,39
 464 461 464 461 464 496 c 0,40,41
 464 533 464 533 438.5 554 c 128,-1,42
 413 575 413 575 365 575 c 0,43,44
 313 575 313 575 284.5 550 c 128,-1,45
 256 525 256 525 245 472 c 2,46,-1
 152 33 l 2,47,48
 145 0 145 0 108 0 c 2,49,-1
 10 0 l 2,50,51
 -19 0 -19 0 -19 27 c 0,52,53
 -19 67 -19 67 24 67 c 2,54,-1
 85 67 l 1,55,-1
 170 467 l 2,0,1
EndSplineSet
EndChar
StartChar: aring
Encoding: 229 229 184
Width: 602
Flags: W
LayerCount: 2
Back
Fore
SplineSet
405 217 m 1,0,1
 354 233 354 233 311 233 c 0,2,3
 228 233 228 233 180.5 203 c 128,-1,4
 133 173 133 173 133 128 c 0,5,6
 133 98 133 98 154.5 80 c 128,-1,7
 176 62 176 62 215 62 c 0,8,9
 279 62 279 62 334.5 100.5 c 128,-1,10
 390 139 390 139 400 190 c 2,11,-1
 405 217 l 1,0,1
420 0 m 2,12,13
 393 0 393 0 384 6 c 128,-1,14
 375 12 375 12 375 33 c 0,15,16
 375 46 375 46 383 81 c 1,17,18
 302 -9 302 -9 199 -9 c 0,19,20
 133 -9 133 -9 93.5 27 c 128,-1,21
 54 63 54 63 54 121 c 0,22,23
 54 193 54 193 124.5 242.5 c 128,-1,24
 195 292 195 292 308 292 c 0,25,26
 359 292 359 292 418 275 c 1,27,28
 426 307 426 307 426 326 c 0,29,30
 426 397 426 397 345 397 c 0,31,32
 303 397 303 397 251 376.5 c 128,-1,33
 199 356 199 356 189 356 c 0,34,35
 175 356 175 356 166 364 c 128,-1,36
 157 372 157 372 157 384 c 0,37,38
 157 414 157 414 215.5 438.5 c 128,-1,39
 274 463 274 463 354 463 c 0,40,41
 427 463 427 463 465 432 c 128,-1,42
 503 401 503 401 503 346 c 0,43,44
 503 325 503 325 499 308 c 2,45,-1
 447 67 l 1,46,-1
 494 67 l 2,47,48
 523 67 523 67 523 39 c 0,49,50
 523 0 523 0 481 0 c 2,51,-1
 420 0 l 2,12,13
300 619 m 0,52,53
 300 591 300 591 319 572 c 128,-1,54
 338 553 338 553 366 553 c 0,55,56
 393 553 393 553 412.5 572 c 128,-1,57
 432 591 432 591 432 619 c 128,-1,58
 432 647 432 647 412.5 666 c 128,-1,59
 393 685 393 685 366 685 c 0,60,61
 338 685 338 685 319 665.5 c 128,-1,62
 300 646 300 646 300 619 c 0,52,53
243 619 m 0,63,64
 243 670 243 670 278.5 706 c 128,-1,65
 314 742 314 742 366 742 c 128,-1,66
 418 742 418 742 453.5 706.5 c 128,-1,67
 489 671 489 671 489 619 c 128,-1,68
 489 567 489 567 453.5 531 c 128,-1,69
 418 495 418 495 366 495 c 128,-1,70
 314 495 314 495 278.5 531 c 128,-1,71
 243 567 243 567 243 619 c 0,63,64
EndSplineSet
EndChar
StartChar: ae
Encoding: 230 230 146
Width: 602
Flags: W
LayerCount: 2
Back
Fore
SplineSet
338 400 m 1,0,1
 400 463 400 463 470 463 c 0,2,3
 532 463 532 463 564.5 428 c 128,-1,4
 597 393 597 393 597 326 c 0,5,6
 597 287 597 287 589 255.5 c 128,-1,7
 581 224 581 224 574 215 c 0,8,9
 564 203 564 203 513 203 c 2,10,-1
 330 203 l 1,11,-1
 325 185 l 2,12,13
 317 155 317 155 317 135 c 0,14,15
 317 96 317 96 338.5 74.5 c 128,-1,16
 360 53 360 53 400 53 c 0,17,18
 430 53 430 53 456.5 69.5 c 128,-1,19
 483 86 483 86 502 103 c 128,-1,20
 521 120 521 120 534 120 c 0,21,22
 561 120 561 120 561 91 c 128,-1,23
 561 62 561 62 506.5 25.5 c 128,-1,24
 452 -11 452 -11 389 -11 c 0,25,26
 343 -11 343 -11 314 6.5 c 128,-1,27
 285 24 285 24 263 66 c 1,28,29
 180 -11 180 -11 104 -11 c 0,30,31
 52 -11 52 -11 20 20.5 c 128,-1,32
 -12 52 -12 52 -12 102 c 0,33,34
 -12 172 -12 172 46 218.5 c 128,-1,35
 104 265 104 265 201 265 c 2,36,-1
 270 265 l 1,37,-1
 276 294 l 2,38,39
 283 329 283 329 283 349 c 0,40,41
 283 401 283 401 224 401 c 0,42,43
 191 401 191 401 156 377.5 c 128,-1,44
 121 354 121 354 111 354 c 0,45,46
 85 354 85 354 85 379 c 0,47,48
 85 407 85 407 132 435 c 128,-1,49
 179 463 179 463 234 463 c 0,50,51
 310 463 310 463 338 400 c 1,0,1
254 203 m 1,52,-1
 234 203 l 2,53,54
 62 203 62 203 62 113 c 0,55,56
 62 84 62 84 79 66.5 c 128,-1,57
 96 49 96 49 125 49 c 0,58,59
 160 49 160 49 203 83 c 0,60,61
 210 88 210 88 215 93.5 c 128,-1,62
 220 99 220 99 224 103 c 128,-1,63
 228 107 228 107 231 113.5 c 128,-1,64
 234 120 234 120 235.5 123 c 128,-1,65
 237 126 237 126 239 133.5 c 128,-1,66
 241 141 241 141 241.5 143 c 128,-1,67
 242 145 242 145 244 154.5 c 128,-1,68
 246 164 246 164 246 165 c 2,69,-1
 254 203 l 1,52,-1
343 265 m 1,70,-1
 514 265 l 1,71,72
 523 300 523 300 523 324 c 0,73,74
 523 360 523 360 505 380.5 c 128,-1,75
 487 401 487 401 457 401 c 0,76,77
 420 401 420 401 388 365 c 128,-1,78
 356 329 356 329 343 265 c 1,70,-1
EndSplineSet
EndChar
StartChar: eth
Encoding: 240 240 219
Width: 602
Flags: W
LayerCount: 2
Back
Fore
SplineSet
326 391 m 0,0,1
 242 391 242 391 185 331 c 128,-1,2
 128 271 128 271 128 192 c 0,3,4
 128 128 128 128 167 90 c 128,-1,5
 206 52 206 52 274 52 c 0,6,7
 359 52 359 52 415.5 112 c 128,-1,8
 472 172 472 172 472 252 c 0,9,10
 472 315 472 315 432.5 353 c 128,-1,11
 393 391 393 391 326 391 c 0,0,1
381 446 m 1,12,13
 345 499 345 499 318 524 c 1,14,-1
 219 481 l 2,15,16
 209 477 209 477 205 477 c 0,17,18
 197 477 197 477 189.5 484.5 c 128,-1,19
 182 492 182 492 182 499 c 0,20,21
 182 516 182 516 203 525 c 2,22,-1
 283 559 l 1,23,24
 268 573 268 573 249 587.5 c 128,-1,25
 230 602 230 602 221.5 609.5 c 128,-1,26
 213 617 213 617 213 624 c 0,27,28
 213 635 213 635 244 635 c 0,29,30
 267 635 267 635 287.5 624 c 128,-1,31
 308 613 308 613 345 586 c 1,32,-1
 442 627 l 2,33,34
 454 631 454 631 456 631 c 0,35,36
 464 631 464 631 471.5 624 c 128,-1,37
 479 617 479 617 479 608 c 0,38,39
 479 592 479 592 459 583 c 2,40,-1
 386 553 l 1,41,42
 553 401 553 401 553 258 c 0,43,44
 553 146 553 146 471.5 67 c 128,-1,45
 390 -12 390 -12 269 -12 c 0,46,47
 168 -12 168 -12 107.5 44 c 128,-1,48
 47 100 47 100 47 189 c 0,49,50
 47 297 47 297 129.5 376.5 c 128,-1,51
 212 456 212 456 321 456 c 0,52,53
 348 456 348 456 381 446 c 1,12,13
EndSplineSet
EndChar
StartChar: oslash
Encoding: 248 248 149
Width: 602
Flags: W
LayerCount: 2
Back
Fore
SplineSet
455 335 m 1,0,-1
 171 86 l 1,1,2
 207 52 207 52 274 52 c 0,3,4
 358 52 358 52 415.5 113 c 128,-1,5
 473 174 473 174 473 262 c 0,6,7
 473 303 473 303 455 335 c 1,0,-1
143 123 m 1,8,-1
 423 369 l 1,9,10
 396 398 396 398 327 398 c 0,11,12
 243 398 243 398 186 337.5 c 128,-1,13
 129 277 129 277 129 190 c 0,14,15
 129 157 129 157 143 123 c 1,8,-1
114 38 m 1,16,-1
 60 -10 l 2,17,18
 44 -24 44 -24 34 -24 c 128,-1,19
 24 -24 24 -24 17.5 -18 c 128,-1,20
 11 -12 11 -12 11 -4 c 0,21,22
 11 9 11 9 24 20 c 2,23,-1
 83 72 l 1,24,25
 48 122 48 122 48 187 c 0,26,27
 48 303 48 303 130 383 c 128,-1,28
 212 463 212 463 335 463 c 0,29,30
 418 463 418 463 481 419 c 1,31,-1
 529 462 l 2,32,33
 545 476 545 476 554 476 c 0,34,35
 564 476 564 476 571 470 c 128,-1,36
 578 464 578 464 578 456 c 0,37,38
 578 442 578 442 565 431 c 2,39,-1
 513 387 l 1,40,41
 554 333 554 333 554 265 c 0,42,43
 554 149 554 149 472.5 68.5 c 128,-1,44
 391 -12 391 -12 270 -12 c 0,45,46
 169 -12 169 -12 114 38 c 1,16,-1
EndSplineSet
EndChar
StartChar: thorn
Encoding: 254 254 226
Width: 602
Flags: W
LayerCount: 2
Back
Fore
SplineSet
482 271 m 0,0,1
 482 331 482 331 448.5 364 c 128,-1,2
 415 397 415 397 356 397 c 0,3,4
 277 397 277 397 221.5 338 c 128,-1,5
 166 279 166 279 166 187 c 0,6,7
 166 132 166 132 202 98.5 c 128,-1,8
 238 65 238 65 297 65 c 0,9,10
 376 65 376 65 429 124 c 128,-1,11
 482 183 482 183 482 271 c 0,0,1
93 -127 m 1,12,-1
 201 -127 l 2,13,14
 231 -127 231 -127 231 -155 c 0,15,16
 231 -194 231 -194 186 -194 c 2,17,-1
 -26 -194 l 2,18,19
 -55 -194 -55 -194 -55 -167 c 0,20,21
 -55 -127 -55 -127 -11 -127 c 2,22,-1
 21 -127 l 1,23,-1
 169 572 l 1,24,-1
 134 572 l 2,25,26
 104 572 104 572 104 600 c 0,27,28
 104 639 104 639 148 639 c 2,29,-1
 230 639 l 2,30,31
 253 639 253 639 253 624 c 0,32,33
 253 618 253 618 252 615 c 2,34,-1
 203 392 l 1,35,36
 282 462 282 462 375 462 c 0,37,38
 460 462 460 462 512 410 c 128,-1,39
 564 358 564 358 564 271 c 0,40,41
 564 157 564 157 485.5 78 c 128,-1,42
 407 -1 407 -1 295 -1 c 0,43,44
 186 -1 186 -1 136 74 c 1,45,-1
 93 -127 l 1,12,-1
EndSplineSet
EndChar
StartChar: Lslash
Encoding: 321 321 142
Width: 602
Flags: W
LayerCount: 2
Back
Fore
SplineSet
248 334 m 1,0,-1
 390 421 l 2,1,2
 400 427 400 427 409 427 c 0,3,4
 419 427 419 427 425.5 419.5 c 128,-1,5
 432 412 432 412 432 400 c 0,6,7
 432 381 432 381 407 366 c 2,8,-1
 231 258 l 1,9,-1
 191 67 l 1,10,-1
 445 67 l 1,11,-1
 475 197 l 2,12,13
 480 221 480 221 483.5 230.5 c 128,-1,14
 487 240 487 240 495 247 c 128,-1,15
 503 254 503 254 517 254 c 0,16,17
 550 254 550 254 550 228 c 0,18,19
 550 224 550 224 548 212 c 2,20,-1
 513 51 l 2,21,22
 506 16 506 16 495.5 8 c 128,-1,23
 485 0 485 0 450 0 c 2,24,-1
 22 0 l 2,25,26
 -8 0 -8 0 -8 28 c 0,27,28
 -8 67 -8 67 36 67 c 2,29,-1
 116 67 l 1,30,-1
 148 220 l 1,31,-1
 77 176 l 2,32,33
 67 169 67 169 57 169 c 0,34,35
 48 169 48 169 41.5 177 c 128,-1,36
 35 185 35 185 35 196 c 0,37,38
 35 217 35 217 59 231 c 2,39,-1
 165 297 l 1,40,-1
 211 512 l 1,41,-1
 127 512 l 2,42,43
 97 512 97 512 97 539 c 0,44,45
 97 579 97 579 142 579 c 2,46,-1
 402 579 l 2,47,48
 431 579 431 579 431 551 c 0,49,50
 431 512 431 512 387 512 c 2,51,-1
 287 512 l 1,52,-1
 248 334 l 1,0,-1
EndSplineSet
EndChar
StartChar: lslash
Encoding: 322 322 148
Width: 602
Flags: W
LayerCount: 2
Back
Fore
SplineSet
380 390 m 1,0,-1
 470 447 l 2,1,2
 487 458 487 458 497 458 c 0,3,4
 506 458 506 458 513 451.5 c 128,-1,5
 520 445 520 445 520 437 c 0,6,7
 520 417 520 417 482 393 c 2,8,-1
 366 320 l 1,9,-1
 310 67 l 1,10,-1
 459 67 l 2,11,12
 489 67 489 67 489 39 c 0,13,14
 489 0 489 0 444 0 c 2,15,-1
 87 0 l 2,16,17
 58 0 58 0 58 27 c 0,18,19
 58 67 58 67 101 67 c 2,20,-1
 238 67 l 1,21,-1
 284 286 l 1,22,-1
 193 228 l 2,23,24
 176 217 176 217 166 217 c 0,25,26
 157 217 157 217 150 223.5 c 128,-1,27
 143 230 143 230 143 238 c 0,28,29
 143 251 143 251 151.5 260 c 128,-1,30
 160 269 160 269 181 282 c 2,31,-1
 298 356 l 1,32,-1
 345 572 l 1,33,-1
 231 572 l 2,34,35
 201 572 201 572 201 600 c 0,36,37
 201 639 201 639 245 639 c 2,38,-1
 406 639 l 2,39,40
 429 639 429 639 429 624 c 0,41,42
 429 618 429 618 428 615 c 2,43,-1
 380 390 l 1,0,-1
EndSplineSet
EndChar
StartChar: OE
Encoding: 338 338 144
Width: 602
Flags: W
LayerCount: 2
Back
Fore
SplineSet
214 0 m 2,0,1
 117 0 117 0 60 59.5 c 128,-1,2
 3 119 3 119 3 221 c 0,3,4
 3 349 3 349 68 453 c 0,5,6
 147 579 147 579 329 579 c 2,7,-1
 580 579 l 2,8,9
 623 579 623 579 623 546 c 0,10,11
 623 537 623 537 621 529 c 2,12,-1
 596 425 l 2,13,14
 589 397 589 397 581 388 c 128,-1,15
 573 379 573 379 555 379 c 0,16,17
 525 379 525 379 525 406 c 0,18,19
 525 410 525 410 529 432 c 2,20,-1
 547 512 l 1,21,-1
 387 512 l 1,22,-1
 355 344 l 1,23,-1
 422 344 l 1,24,-1
 430 377 l 2,25,26
 435 399 435 399 441.5 408 c 128,-1,27
 448 417 448 417 465 417 c 0,28,29
 491 417 491 417 491 394 c 0,30,31
 491 388 491 388 486 361 c 2,32,-1
 465 254 l 2,33,34
 461 236 461 236 459 229 c 128,-1,35
 457 222 457 222 450.5 217 c 128,-1,36
 444 212 444 212 431 212 c 0,37,38
 404 212 404 212 404 231 c 0,39,40
 404 244 404 244 405 248 c 2,41,-1
 412 285 l 1,42,-1
 341 285 l 1,43,-1
 297 68 l 1,44,-1
 453 68 l 1,45,-1
 474 158 l 2,46,47
 480 183 480 183 489 193.5 c 128,-1,48
 498 204 498 204 513 204 c 0,49,50
 543 204 543 204 543 175 c 0,51,52
 543 165 543 165 540 150 c 2,53,-1
 517 42 l 2,54,55
 512 18 512 18 501 9 c 128,-1,56
 490 0 490 0 460 0 c 2,57,-1
 214 0 l 2,0,1
228 68 m 1,58,-1
 315 512 l 1,59,-1
 290 512 l 2,60,61
 197 512 197 512 146 435 c 0,62,63
 120 396 120 396 102 331.5 c 128,-1,64
 84 267 84 267 84 209 c 0,65,66
 84 143 84 143 117.5 105.5 c 128,-1,67
 151 68 151 68 203 68 c 2,68,-1
 228 68 l 1,58,-1
EndSplineSet
EndChar
StartChar: oe
Encoding: 339 339 150
Width: 602
Flags: W
LayerCount: 2
Back
Fore
SplineSet
341 265 m 1,0,-1
 512 265 l 1,1,2
 521 300 521 300 521 324 c 0,3,4
 521 360 521 360 503 380.5 c 128,-1,5
 485 401 485 401 455 401 c 0,6,7
 418 401 418 401 385.5 364.5 c 128,-1,8
 353 328 353 328 341 265 c 1,0,-1
256 65 m 1,9,10
 200 -12 200 -12 132 -12 c 0,11,12
 77 -12 77 -12 42.5 28.5 c 128,-1,13
 8 69 8 69 8 139 c 0,14,15
 8 270 8 270 72.5 366.5 c 128,-1,16
 137 463 137 463 222 463 c 0,17,18
 292 463 292 463 323 397 c 1,19,20
 396 463 396 463 470 463 c 0,21,22
 531 463 531 463 563 427.5 c 128,-1,23
 595 392 595 392 595 326 c 0,24,25
 595 287 595 287 587 255.5 c 128,-1,26
 579 224 579 224 573 215 c 0,27,28
 563 203 563 203 512 203 c 2,29,-1
 328 203 l 1,30,-1
 323 185 l 2,31,32
 315 155 315 155 315 135 c 0,33,34
 315 96 315 96 336.5 74 c 128,-1,35
 358 52 358 52 398 52 c 0,36,37
 428 52 428 52 454.5 69 c 128,-1,38
 481 86 481 86 500 103 c 128,-1,39
 519 120 519 120 532 120 c 0,40,41
 559 120 559 120 559 91 c 128,-1,42
 559 62 559 62 504.5 25 c 128,-1,43
 450 -12 450 -12 388 -12 c 0,44,45
 302 -12 302 -12 256 65 c 1,9,10
85 143 m 0,46,47
 85 101 85 101 101.5 76.5 c 128,-1,48
 118 52 118 52 143 52 c 0,49,50
 189 52 189 52 228.5 135.5 c 128,-1,51
 268 219 268 219 268 327 c 0,52,53
 268 401 268 401 217 401 c 0,54,55
 193 401 193 401 167.5 377 c 128,-1,56
 142 353 142 353 123 310 c 0,57,58
 85 225 85 225 85 143 c 0,46,47
EndSplineSet
EndChar
StartChar: circumflex
Encoding: 710 710 128
Width: 602
Flags: W
LayerCount: 2
Back
Fore
SplineSet
391 647 m 2,0,-1
 482 536 l 2,1,2
 486 530 486 530 486 526 c 0,3,4
 486 519 486 519 480 513.5 c 128,-1,5
 474 508 474 508 467 508 c 0,6,7
 461 508 461 508 456 512 c 2,8,-1
 354 591 l 1,9,-1
 214 512 l 2,10,11
 211 510 211 510 205 510 c 0,12,13
 198 510 198 510 192.5 515 c 128,-1,14
 187 520 187 520 187 528 c 128,-1,15
 187 536 187 536 193 541 c 2,16,-1
 325 647 l 2,17,18
 336 657 336 657 360 657 c 0,19,20
 382 657 382 657 391 647 c 2,0,-1
EndSplineSet
EndChar
StartChar: caron
Encoding: 711 711 138
Width: 602
Flags: W
LayerCount: 2
Back
Fore
SplineSet
322 521 m 2,0,-1
 231 632 l 2,1,2
 227 638 227 638 227 642 c 0,3,4
 227 649 227 649 233 654.5 c 128,-1,5
 239 660 239 660 246 660 c 0,6,7
 252 660 252 660 257 656 c 2,8,-1
 359 577 l 1,9,-1
 499 656 l 2,10,11
 502 658 502 658 508 658 c 0,12,13
 515 658 515 658 520.5 653 c 128,-1,14
 526 648 526 648 526 640 c 256,15,16
 526 632 526 632 520 628 c 2,17,-1
 388 521 l 2,18,19
 377 511 377 511 353 511 c 0,20,21
 331 511 331 511 322 521 c 2,0,-1
EndSplineSet
EndChar
StartChar: breve
Encoding: 728 728 131
Width: 602
Flags: W
LayerCount: 2
Back
Fore
SplineSet
389 528 m 0,0,1
 314 528 314 528 270 560 c 128,-1,2
 226 592 226 592 226 638 c 0,3,4
 226 659 226 659 240 659 c 0,5,6
 252 659 252 659 260 652 c 128,-1,7
 268 645 268 645 277.5 632.5 c 128,-1,8
 287 620 287 620 295 613 c 0,9,10
 328 587 328 587 390 587 c 0,11,12
 455 587 455 587 495 613 c 0,13,14
 510 623 510 623 521 635.5 c 128,-1,15
 532 648 532 648 538.5 654 c 128,-1,16
 545 660 545 660 553 660 c 0,17,18
 568 660 568 660 568 639 c 0,19,20
 568 599 568 599 516.5 563.5 c 128,-1,21
 465 528 465 528 389 528 c 0,0,1
EndSplineSet
EndChar
StartChar: dotaccent
Encoding: 729 729 132
Width: 602
Flags: W
LayerCount: 2
Back
Fore
SplineSet
297 589 m 0,0,1
 297 613 297 613 315.5 632 c 128,-1,2
 334 651 334 651 359 651 c 128,-1,3
 384 651 384 651 402.5 632.5 c 128,-1,4
 421 614 421 614 421 589 c 0,5,6
 421 562 421 562 403 544.5 c 128,-1,7
 385 527 385 527 359 527 c 128,-1,8
 333 527 333 527 315 545 c 128,-1,9
 297 563 297 563 297 589 c 0,0,1
EndSplineSet
EndChar
StartChar: ring
Encoding: 730 730 134
Width: 602
Flags: W
LayerCount: 2
Back
Fore
SplineSet
300 623 m 0,0,1
 300 595 300 595 319 576 c 128,-1,2
 338 557 338 557 366 557 c 0,3,4
 393 557 393 557 412.5 576 c 128,-1,5
 432 595 432 595 432 623 c 0,6,7
 432 650 432 650 412.5 669.5 c 128,-1,8
 393 689 393 689 366 689 c 0,9,10
 338 689 338 689 319 669.5 c 128,-1,11
 300 650 300 650 300 623 c 0,0,1
243 624 m 0,12,13
 243 675 243 675 278.5 711 c 128,-1,14
 314 747 314 747 366 747 c 128,-1,15
 418 747 418 747 453.5 711.5 c 128,-1,16
 489 676 489 676 489 624 c 128,-1,17
 489 572 489 572 453.5 536 c 128,-1,18
 418 500 418 500 366 500 c 128,-1,19
 314 500 314 500 278.5 536 c 128,-1,20
 243 572 243 572 243 624 c 0,12,13
EndSplineSet
EndChar
StartChar: ogonek
Encoding: 731 731 137
Width: 602
Flags: W
LayerCount: 2
Back
Fore
SplineSet
334 15 m 1,0,1
 290 -21 290 -21 269.5 -51 c 128,-1,2
 249 -81 249 -81 249 -114 c 0,3,4
 249 -168 249 -168 295 -168 c 0,5,6
 315 -168 315 -168 333 -152.5 c 128,-1,7
 351 -137 351 -137 352 -137 c 0,8,9
 363 -137 363 -137 363 -146 c 0,10,11
 363 -165 363 -165 330.5 -194 c 128,-1,12
 298 -223 298 -223 254 -223 c 0,13,14
 219 -223 219 -223 198 -203 c 128,-1,15
 177 -183 177 -183 177 -150 c 0,16,17
 177 -66 177 -66 308 15 c 1,18,-1
 334 15 l 1,0,1
EndSplineSet
EndChar
StartChar: tilde
Encoding: 732 732 129
Width: 602
Flags: W
LayerCount: 2
Back
Fore
SplineSet
406 609 m 2,0,1
 435 601 435 601 450 601 c 0,2,3
 472 601 472 601 491 618.5 c 128,-1,4
 510 636 510 636 518 636 c 0,5,6
 535 636 535 636 535 618 c 0,7,8
 535 596 535 596 504 569 c 128,-1,9
 473 542 473 542 427 542 c 0,10,11
 395 542 395 542 365 550 c 2,12,-1
 312 565 l 2,13,14
 288 572 288 572 268 572 c 0,15,16
 246 572 246 572 226.5 555 c 128,-1,17
 207 538 207 538 199 538 c 0,18,19
 182 538 182 538 182 556 c 0,20,21
 182 579 182 579 213.5 605 c 128,-1,22
 245 631 245 631 291 631 c 0,23,24
 323 631 323 631 353 623 c 2,25,-1
 406 609 l 2,0,1
EndSplineSet
EndChar
StartChar: hungarumlaut
Encoding: 733 733 136
Width: 602
Flags: W
LayerCount: 2
Back
Fore
SplineSet
212 538 m 1,0,-1
 356 649 l 2,1,2
 368 658 368 658 376 658 c 0,3,4
 387 658 387 658 393 650 c 2,5,-1
 412 622 l 2,6,7
 416 617 416 617 416 610 c 0,8,9
 416 600 416 600 403 594 c 2,10,-1
 230 516 l 1,11,-1
 212 538 l 1,0,-1
375 538 m 1,12,-1
 519 649 l 2,13,14
 531 658 531 658 539 658 c 0,15,16
 550 658 550 658 556 650 c 2,17,-1
 575 622 l 2,18,19
 579 617 579 617 579 610 c 0,20,21
 579 600 579 600 566 594 c 2,22,-1
 393 516 l 1,23,-1
 375 538 l 1,12,-1
EndSplineSet
EndChar
StartChar: mu
Encoding: 956 956 220
Width: 602
Flags: W
LayerCount: 2
Back
Fore
SplineSet
457 67 m 1,0,-1
 488 67 l 2,1,2
 517 67 517 67 517 39 c 0,3,4
 517 0 517 0 473 0 c 2,5,-1
 396 0 l 2,6,7
 372 0 372 0 372 15 c 0,8,9
 372 16 372 16 374 24 c 2,10,-1
 384 59 l 1,11,12
 308 -11 308 -11 219 -11 c 0,13,14
 167 -11 167 -11 137 19 c 1,15,-1
 108 -144 l 2,16,17
 103 -175 103 -175 94.5 -187.5 c 128,-1,18
 86 -200 86 -200 69 -200 c 0,19,20
 33 -200 33 -200 33 -172 c 0,21,22
 33 -157 33 -157 39 -130 c 2,23,-1
 145 384 l 1,24,-1
 106 384 l 2,25,26
 76 384 76 384 76 412 c 0,27,28
 76 451 76 451 120 451 c 2,29,-1
 205 451 l 2,30,31
 229 451 229 451 229 436 c 0,32,33
 229 431 229 431 228 428 c 2,34,-1
 171 168 l 2,35,36
 164 133 164 133 164 123 c 0,37,38
 164 58 164 58 242 58 c 0,39,40
 302 58 302 58 351 96 c 128,-1,41
 400 134 400 134 411 190 c 2,42,-1
 457 417 l 2,43,44
 461 437 461 437 469 444 c 128,-1,45
 477 451 477 451 500 451 c 0,46,47
 533 451 533 451 533 425 c 0,48,49
 533 419 533 419 532 416 c 2,50,-1
 457 67 l 1,0,-1
EndSplineSet
EndChar
StartChar: endash
Encoding: 8211 8211 113
Width: 602
Flags: W
LayerCount: 2
Back
Fore
SplineSet
603 266 m 2,0,1
 627 266 627 266 627 248 c 2,2,3
 627 248 627 248 627 246 c 2,4,-1
 624 208 l 2,5,6
 622 185 622 185 600 185 c 2,7,-1
 -2 185 l 2,8,9
 -11 185 -11 185 -17 191 c 128,-1,10
 -23 197 -23 197 -23 206 c 2,11,-1
 -23 208 l 1,12,-1
 -20 246 l 2,13,14
 -18 266 -18 266 1 266 c 2,15,-1
 603 266 l 2,0,1
EndSplineSet
EndChar
StartChar: emdash
Encoding: 8212 8212 139
Width: 602
Flags: W
LayerCount: 2
Back
Fore
SplineSet
602 266 m 2,0,1
 626 266 626 266 626 248 c 2,2,3
 626 248 626 248 626 246 c 2,4,-1
 623 208 l 2,5,6
 621 185 621 185 599 185 c 2,7,-1
 -3 185 l 2,8,9
 -12 185 -12 185 -18 191 c 128,-1,10
 -24 197 -24 197 -24 206 c 2,11,-1
 -24 208 l 1,12,-1
 -21 246 l 2,13,14
 -19 266 -19 266 0 266 c 2,15,-1
 602 266 l 2,0,1
EndSplineSet
EndChar
StartChar: quoteleft
Encoding: 8216 8216 67
Width: 602
Flags: W
LayerCount: 2
Back
Fore
SplineSet
429 553 m 2,0,-1
 339 356 l 2,1,2
 332 340 332 340 311 340 c 2,3,-1
 229 340 l 2,4,5
 219 340 219 340 219 350 c 0,6,7
 219 352 219 352 221 356 c 2,8,-1
 374 584 l 2,9,10
 383 597 383 597 394 597 c 0,11,12
 397 597 397 597 403 595 c 2,13,-1
 429 582 l 2,14,15
 436 578 436 578 436 570 c 0,16,17
 436 567 436 567 429 553 c 2,0,-1
EndSplineSet
EndChar
StartChar: quoteright
Encoding: 8217 8217 10
Width: 602
Flags: W
LayerCount: 2
Back
Fore
SplineSet
234 365 m 2,0,-1
 325 562 l 2,1,2
 333 579 333 579 352 579 c 2,3,-1
 434 579 l 2,4,5
 445 579 445 579 445 569 c 0,6,7
 445 566 445 566 443 562 c 2,8,-1
 289 334 l 2,9,10
 280 321 280 321 269 321 c 0,11,12
 266 321 266 321 260 323 c 2,13,-1
 235 337 l 2,14,15
 228 340 228 340 228 348 c 0,16,17
 228 353 228 353 234 365 c 2,0,-1
EndSplineSet
EndChar
StartChar: quotesinglbase
Encoding: 8218 8218 119
Width: 602
Flags: W
LayerCount: 2
Back
Fore
SplineSet
171 -97 m 2,0,-1
 262 100 l 2,1,2
 270 117 270 117 289 117 c 2,3,-1
 371 117 l 2,4,5
 382 117 382 117 382 107 c 0,6,7
 382 105 382 105 380 101 c 2,8,-1
 226 -128 l 2,9,10
 217 -140 217 -140 206 -140 c 0,11,12
 200 -140 200 -140 197 -138 c 2,13,-1
 172 -125 l 2,14,15
 165 -122 165 -122 165 -114 c 0,16,17
 165 -109 165 -109 171 -97 c 2,0,-1
EndSplineSet
EndChar
StartChar: quotedblleft
Encoding: 8220 8220 107
Width: 602
Flags: W
LayerCount: 2
Back
Fore
SplineSet
546 553 m 2,0,-1
 456 356 l 2,1,2
 449 340 449 340 428 340 c 2,3,-1
 346 340 l 2,4,5
 336 340 336 340 336 350 c 0,6,7
 336 352 336 352 338 356 c 2,8,-1
 491 584 l 2,9,10
 500 597 500 597 511 597 c 0,11,12
 514 597 514 597 520 595 c 2,13,-1
 546 582 l 2,14,15
 553 578 553 578 553 570 c 0,16,17
 553 567 553 567 546 553 c 2,0,-1
325 553 m 2,18,-1
 234 356 l 2,19,20
 227 340 227 340 207 340 c 2,21,-1
 125 340 l 2,22,23
 114 340 114 340 114 350 c 0,24,25
 114 352 114 352 116 356 c 2,26,-1
 270 584 l 2,27,28
 279 597 279 597 290 597 c 0,29,30
 293 597 293 597 299 595 c 2,31,-1
 325 582 l 2,32,33
 331 579 331 579 331 570 c 0,34,35
 331 565 331 565 325 553 c 2,18,-1
EndSplineSet
EndChar
StartChar: quotedblright
Encoding: 8221 8221 121
Width: 602
Flags: W
LayerCount: 2
Back
Fore
SplineSet
135 365 m 2,0,-1
 225 562 l 2,1,2
 233 579 233 579 253 579 c 2,3,-1
 334 579 l 2,4,5
 345 579 345 579 345 569 c 0,6,7
 345 566 345 566 343 562 c 2,8,-1
 190 334 l 2,9,10
 181 321 181 321 169 321 c 0,11,12
 166 321 166 321 160 323 c 2,13,-1
 135 337 l 2,14,15
 128 340 128 340 128 348 c 0,16,17
 128 351 128 351 135 365 c 2,0,-1
356 365 m 2,18,-1
 446 562 l 2,19,20
 454 579 454 579 474 579 c 2,21,-1
 556 579 l 2,22,23
 566 579 566 579 566 569 c 0,24,25
 566 566 566 566 564 562 c 2,26,-1
 411 334 l 2,27,28
 402 321 402 321 391 321 c 0,29,30
 388 321 388 321 382 323 c 2,31,-1
 356 337 l 2,32,33
 349 340 349 340 349 348 c 0,34,35
 349 351 349 351 356 365 c 2,18,-1
EndSplineSet
EndChar
StartChar: quotedblbase
Encoding: 8222 8222 120
Width: 602
Flags: W
LayerCount: 2
Back
Fore
SplineSet
283 -95 m 2,0,-1
 373 101 l 2,1,2
 381 118 381 118 401 118 c 2,3,-1
 483 118 l 2,4,5
 493 118 493 118 493 108 c 0,6,7
 493 106 493 106 491 102 c 2,8,-1
 338 -127 l 2,9,10
 329 -139 329 -139 318 -139 c 0,11,12
 312 -139 312 -139 309 -137 c 2,13,-1
 283 -124 l 2,14,15
 276 -120 276 -120 276 -112 c 0,16,17
 276 -109 276 -109 283 -95 c 2,0,-1
62 -95 m 2,18,-1
 152 101 l 2,19,20
 160 118 160 118 179 118 c 2,21,-1
 261 118 l 2,22,23
 272 118 272 118 272 108 c 0,24,25
 272 106 272 106 270 102 c 2,26,-1
 116 -127 l 2,27,28
 107 -139 107 -139 96 -139 c 0,29,30
 90 -139 90 -139 87 -137 c 2,31,-1
 62 -124 l 2,32,33
 55 -120 55 -120 55 -112 c 0,34,35
 55 -109 55 -109 62 -95 c 2,18,-1
EndSplineSet
EndChar
StartChar: dagger
Encoding: 8224 8224 114
Width: 602
Flags: W
LayerCount: 2
Back
Fore
SplineSet
174 383 m 2,0,1
 165 383 165 383 158.5 390 c 128,-1,2
 152 397 152 397 152 407 c 0,3,4
 152 424 152 424 162 435 c 128,-1,5
 172 446 172 446 187 446 c 2,6,-1
 306 446 l 1,7,-1
 327 558 l 2,8,9
 330 574 330 574 341.5 584.5 c 128,-1,10
 353 595 353 595 367 595 c 0,11,12
 379 595 379 595 387 586.5 c 128,-1,13
 395 578 395 578 395 565 c 0,14,15
 395 564 395 564 394.5 561 c 128,-1,16
 394 558 394 558 394 557 c 2,17,-1
 373 446 l 1,18,-1
 483 446 l 2,19,20
 492 446 492 446 498 440 c 128,-1,21
 504 434 504 434 504 424 c 0,22,23
 504 405 504 405 495 394 c 128,-1,24
 486 383 486 383 470 383 c 2,25,-1
 361 383 l 1,26,-1
 287 22 l 2,27,28
 284 6 284 6 272.5 -5 c 128,-1,29
 261 -16 261 -16 247 -16 c 0,30,31
 235 -16 235 -16 227.5 -7.5 c 128,-1,32
 220 1 220 1 220 14 c 0,33,34
 220 19 220 19 221 22 c 2,35,-1
 294 383 l 1,36,-1
 174 383 l 2,0,1
EndSplineSet
EndChar
StartChar: daggerdbl
Encoding: 8225 8225 115
Width: 602
Flags: W
LayerCount: 2
Back
Fore
SplineSet
253 134 m 1,0,-1
 143 134 l 2,1,2
 134 134 134 134 128 140 c 128,-1,3
 122 146 122 146 122 156 c 0,4,5
 122 175 122 175 131 186 c 128,-1,6
 140 197 140 197 156 197 c 2,7,-1
 265 197 l 1,8,-1
 305 384 l 1,9,-1
 185 384 l 2,10,11
 176 384 176 384 169.5 391 c 128,-1,12
 163 398 163 398 163 408 c 0,13,14
 163 425 163 425 173 436 c 128,-1,15
 183 447 183 447 198 447 c 2,16,-1
 317 447 l 1,17,-1
 338 559 l 2,18,19
 341 575 341 575 352.5 585.5 c 128,-1,20
 364 596 364 596 378 596 c 0,21,22
 390 596 390 596 398 587.5 c 128,-1,23
 406 579 406 579 406 566 c 0,24,25
 406 564 406 564 405.5 562 c 128,-1,26
 405 560 405 560 405 558 c 2,27,-1
 384 447 l 1,28,-1
 494 447 l 2,29,30
 502 447 502 447 508.5 440.5 c 128,-1,31
 515 434 515 434 515 425 c 0,32,33
 515 406 515 406 506 395 c 128,-1,34
 497 384 497 384 481 384 c 2,35,-1
 372 384 l 1,36,-1
 332 197 l 1,37,-1
 452 197 l 2,38,39
 461 197 461 197 467.5 190 c 128,-1,40
 474 183 474 183 474 173 c 0,41,42
 474 156 474 156 464 145 c 128,-1,43
 454 134 454 134 439 134 c 2,44,-1
 320 134 l 1,45,-1
 299 22 l 2,46,47
 296 6 296 6 284.5 -4.5 c 128,-1,48
 273 -15 273 -15 259 -15 c 0,49,50
 247 -15 247 -15 239 -7 c 128,-1,51
 231 1 231 1 231 14 c 0,52,53
 231 16 231 16 231.5 18.5 c 128,-1,54
 232 21 232 21 232 22 c 2,55,-1
 253 134 l 1,0,-1
EndSplineSet
EndChar
StartChar: bullet
Encoding: 8226 8226 118
Width: 602
Flags: W
LayerCount: 2
Back
Fore
SplineSet
223 334 m 128,-1,1
 223 367 223 367 246 390 c 128,-1,2
 269 413 269 413 301 413 c 128,-1,3
 333 413 333 413 356 389.5 c 128,-1,4
 379 366 379 366 379 334 c 128,-1,5
 379 302 379 302 356 279 c 128,-1,6
 333 256 333 256 301 256 c 128,-1,7
 269 256 269 256 246 278.5 c 128,-1,0
 223 301 223 301 223 334 c 128,-1,1
EndSplineSet
EndChar
StartChar: ellipsis
Encoding: 8230 8230 123
Width: 602
Flags: W
LayerCount: 2
Back
Fore
SplineSet
229 60 m 128,-1,1
 229 90 229 90 250 111.5 c 128,-1,2
 271 133 271 133 301 133 c 128,-1,3
 331 133 331 133 352 111.5 c 128,-1,4
 373 90 373 90 373 60 c 128,-1,5
 373 30 373 30 352 9 c 128,-1,6
 331 -12 331 -12 301 -12 c 128,-1,7
 271 -12 271 -12 250 9 c 128,-1,0
 229 30 229 30 229 60 c 128,-1,1
27 60 m 128,-1,9
 27 90 27 90 48.5 111.5 c 128,-1,10
 70 133 70 133 100 133 c 128,-1,11
 130 133 130 133 151 111.5 c 128,-1,12
 172 90 172 90 172 60 c 128,-1,13
 172 30 172 30 151 9 c 128,-1,14
 130 -12 130 -12 100 -12 c 128,-1,15
 70 -12 70 -12 48.5 9 c 128,-1,8
 27 30 27 30 27 60 c 128,-1,9
429 60 m 128,-1,17
 429 90 429 90 450.5 111.5 c 128,-1,18
 472 133 472 133 502 133 c 128,-1,19
 532 133 532 133 553 111.5 c 128,-1,20
 574 90 574 90 574 60 c 128,-1,21
 574 30 574 30 553 9 c 128,-1,22
 532 -12 532 -12 502 -12 c 128,-1,23
 472 -12 472 -12 450.5 9 c 128,-1,16
 429 30 429 30 429 60 c 128,-1,17
EndSplineSet
EndChar
StartChar: perthousand
Encoding: 8240 8240 124
Width: 602
Flags: W
LayerCount: 2
Back
Fore
SplineSet
-44 485 m 128,-1,1
 -44 542 -44 542 -3.5 579.5 c 128,-1,2
 37 617 37 617 99 617 c 128,-1,3
 161 617 161 617 201 579.5 c 128,-1,4
 241 542 241 542 241 485 c 128,-1,5
 241 428 241 428 201 390.5 c 128,-1,6
 161 353 161 353 99 353 c 0,7,8
 36 353 36 353 -4 390.5 c 128,-1,0
 -44 428 -44 428 -44 485 c 128,-1,1
16 485 m 128,-1,10
 16 452 16 452 39 431.5 c 128,-1,11
 62 411 62 411 99 411 c 128,-1,12
 136 411 136 411 158.5 431.5 c 128,-1,13
 181 452 181 452 181 485 c 128,-1,14
 181 518 181 518 158.5 538.5 c 128,-1,15
 136 559 136 559 99 559 c 128,-1,16
 62 559 62 559 39 538.5 c 128,-1,9
 16 518 16 518 16 485 c 128,-1,10
309 399 m 2,17,18
 316 402 316 402 323 402 c 0,19,20
 349 402 349 402 349 375 c 0,21,22
 349 356 349 356 330 348 c 2,23,-1
 2 218 l 2,24,25
 -5 215 -5 215 -12 215 c 0,26,27
 -24 215 -24 215 -31.5 223 c 128,-1,28
 -39 231 -39 231 -39 242 c 0,29,30
 -39 260 -39 260 -18 269 c 2,31,-1
 309 399 l 2,17,18
70 131 m 128,-1,33
 70 188 70 188 110 225 c 128,-1,34
 150 262 150 262 212 262 c 0,35,36
 275 262 275 262 315 225 c 128,-1,37
 355 188 355 188 355 131 c 128,-1,38
 355 74 355 74 315 36.5 c 128,-1,39
 275 -1 275 -1 212 -1 c 0,40,41
 150 -1 150 -1 110 36.5 c 128,-1,32
 70 74 70 74 70 131 c 128,-1,33
130 131 m 128,-1,43
 130 98 130 98 152.5 77 c 128,-1,44
 175 56 175 56 212 56 c 128,-1,45
 249 56 249 56 272 77 c 128,-1,46
 295 98 295 98 295 131 c 128,-1,47
 295 164 295 164 272 184.5 c 128,-1,48
 249 205 249 205 212 205 c 128,-1,49
 175 205 175 205 152.5 184.5 c 128,-1,42
 130 164 130 164 130 131 c 128,-1,43
378 131 m 0,50,51
 378 187 378 187 418.5 224.5 c 128,-1,52
 459 262 459 262 521 262 c 0,53,54
 584 262 584 262 623.5 225 c 128,-1,55
 663 188 663 188 663 131 c 128,-1,56
 663 74 663 74 623 36.5 c 128,-1,57
 583 -1 583 -1 521 -1 c 0,58,59
 458 -1 458 -1 418 36.5 c 128,-1,60
 378 74 378 74 378 131 c 0,50,51
439 131 m 128,-1,62
 439 98 439 98 461.5 77 c 128,-1,63
 484 56 484 56 521 56 c 128,-1,64
 558 56 558 56 580.5 77 c 128,-1,65
 603 98 603 98 603 131 c 128,-1,66
 603 164 603 164 580.5 184.5 c 128,-1,67
 558 205 558 205 521 205 c 128,-1,68
 484 205 484 205 461.5 184.5 c 128,-1,61
 439 164 439 164 439 131 c 128,-1,62
EndSplineSet
EndChar
StartChar: guilsinglleft
Encoding: 8249 8249 109
Width: 602
Flags: W
LayerCount: 2
Back
Fore
SplineSet
300 230 m 1,0,-1
 339 90 l 2,1,2
 341 80 341 80 341 76 c 0,3,4
 341 63 341 63 333 55 c 128,-1,5
 325 47 325 47 313 47 c 0,6,7
 292 47 292 47 285 68 c 2,8,-1
 230 215 l 2,9,10
 228 223 228 223 228 224 c 0,11,12
 228 244 228 244 239 259 c 2,13,-1
 329 393 l 2,14,15
 339 408 339 408 356 408 c 0,16,17
 368 408 368 408 376 400.5 c 128,-1,18
 384 393 384 393 384 382 c 0,19,20
 384 372 384 372 379 362 c 2,21,-1
 300 230 l 1,0,-1
EndSplineSet
EndChar
StartChar: guilsinglright
Encoding: 8250 8250 110
Width: 602
Flags: W
LayerCount: 2
Back
Fore
SplineSet
310 227 m 1,0,-1
 270 368 l 2,1,2
 268 378 268 378 268 381 c 0,3,4
 268 394 268 394 276.5 402 c 128,-1,5
 285 410 285 410 297 410 c 0,6,7
 318 410 318 410 325 390 c 2,8,-1
 380 243 l 2,9,10
 382 235 382 235 382 233 c 0,11,12
 382 214 382 214 371 199 c 2,13,-1
 280 64 l 2,14,15
 270 49 270 49 254 49 c 0,16,17
 242 49 242 49 234 57 c 128,-1,18
 226 65 226 65 226 76 c 0,19,20
 226 86 226 86 231 96 c 2,21,-1
 310 227 l 1,0,-1
EndSplineSet
EndChar
StartChar: fi
Encoding: 64257 64257 111
Width: 602
Flags: W
LayerCount: 2
Back
Fore
SplineSet
468 67 m 1,0,-1
 535 67 l 2,1,2
 565 67 565 67 565 39 c 0,3,4
 565 0 565 0 520 0 c 2,5,-1
 328 0 l 2,6,7
 299 0 299 0 299 27 c 0,8,9
 299 67 299 67 342 67 c 2,10,-1
 396 67 l 1,11,-1
 463 384 l 1,12,-1
 400 384 l 2,13,14
 370 384 370 384 370 412 c 0,15,16
 370 451 370 451 415 451 c 2,17,-1
 524 451 l 2,18,19
 546 451 546 451 546 437 c 0,20,21
 546 432 546 432 545 428 c 2,22,-1
 468 67 l 1,0,-1
148 384 m 1,23,-1
 75 384 l 2,24,25
 46 384 46 384 46 412 c 0,26,27
 46 451 46 451 90 451 c 2,28,-1
 162 451 l 1,29,-1
 165 467 l 2,30,31
 186 558 186 558 222 598.5 c 128,-1,32
 258 639 258 639 334 639 c 0,33,34
 438 639 438 639 438 596 c 0,35,36
 438 579 438 579 425.5 567 c 128,-1,37
 413 555 413 555 394 555 c 0,38,39
 382 555 382 555 359 560.5 c 128,-1,40
 336 566 336 566 325 566 c 0,41,42
 260 566 260 566 240 472 c 2,43,-1
 236 451 l 1,44,-1
 311 451 l 2,45,46
 341 451 341 451 341 423 c 0,47,48
 341 384 341 384 297 384 c 2,49,-1
 221 384 l 1,50,-1
 154 67 l 1,51,-1
 237 67 l 2,52,53
 267 67 267 67 267 39 c 0,54,55
 267 0 267 0 222 0 c 2,56,-1
 7 0 l 2,57,58
 -22 0 -22 0 -22 27 c 0,59,60
 -22 67 -22 67 22 67 c 2,61,-1
 80 67 l 1,62,-1
 148 384 l 1,23,-1
560 670 m 0,63,64
 580 670 580 670 587.5 663 c 128,-1,65
 595 656 595 656 595 639 c 0,66,67
 595 585 595 585 578 564.5 c 128,-1,68
 561 544 561 544 527 544 c 0,69,70
 507 544 507 544 499 551 c 128,-1,71
 491 558 491 558 491 575 c 0,72,73
 491 629 491 629 508 649.5 c 128,-1,74
 525 670 525 670 560 670 c 0,63,64
EndSplineSet
EndChar
StartChar: fl
Encoding: 64258 64258 112
Width: 602
Flags: W
LayerCount: 2
Back
Fore
SplineSet
148 384 m 1,0,-1
 75 384 l 2,1,2
 46 384 46 384 46 412 c 0,3,4
 46 451 46 451 90 451 c 2,5,-1
 162 451 l 1,6,-1
 165 467 l 2,7,8
 179 526 179 526 193 558 c 128,-1,9
 207 590 207 590 238 612 c 0,10,11
 276 639 276 639 369 639 c 2,12,-1
 403 639 l 1,13,-1
 565 639 l 2,14,15
 587 639 587 639 587 625 c 0,16,17
 587 619 587 619 586 615 c 2,18,-1
 469 67 l 1,19,-1
 535 67 l 2,20,21
 565 67 565 67 565 39 c 0,22,23
 565 0 565 0 521 0 c 2,24,-1
 328 0 l 2,25,26
 299 0 299 0 299 27 c 0,27,28
 299 67 299 67 342 67 c 2,29,-1
 397 67 l 1,30,-1
 504 572 l 1,31,-1
 434 572 l 2,32,33
 431 572 431 572 417 567 c 128,-1,34
 403 562 403 562 389 562 c 0,35,36
 379 562 379 562 358 565.5 c 128,-1,37
 337 569 337 569 325 569 c 0,38,39
 259 569 259 569 240 472 c 2,40,-1
 236 451 l 1,41,-1
 326 451 l 2,42,43
 356 451 356 451 356 423 c 0,44,45
 356 384 356 384 312 384 c 2,46,-1
 221 384 l 1,47,-1
 154 67 l 1,48,-1
 237 67 l 2,49,50
 267 67 267 67 267 39 c 0,51,52
 267 0 267 0 222 0 c 2,53,-1
 7 0 l 2,54,55
 -22 0 -22 0 -22 27 c 0,56,57
 -22 67 -22 67 22 67 c 2,58,-1
 80 67 l 1,59,-1
 148 384 l 1,0,-1
EndSplineSet
EndChar
StartChar: .notdef
Encoding: 65536 -1 0
Width: 364
Flags: W
LayerCount: 2
Back
Fore
SplineSet
33 0 m 1,0,-1
 33 666 l 1,1,-1
 298 666 l 1,2,-1
 298 0 l 1,3,-1
 33 0 l 1,0,-1
66 33 m 1,4,-1
 265 33 l 1,5,-1
 265 633 l 1,6,-1
 66 633 l 1,7,-1
 66 33 l 1,4,-1
EndSplineSet
EndChar
